<?xml version="1.0" encoding="UTF-8" standalone="no"?>
<svg
   xmlns:dc="http://purl.org/dc/elements/1.1/"
   xmlns:cc="http://creativecommons.org/ns#"
   xmlns:rdf="http://www.w3.org/1999/02/22-rdf-syntax-ns#"
   xmlns:svg="http://www.w3.org/2000/svg"
   xmlns="http://www.w3.org/2000/svg"
   xmlns:sodipodi="http://sodipodi.sourceforge.net/DTD/sodipodi-0.dtd"
   xmlns:inkscape="http://www.inkscape.org/namespaces/inkscape"
   width="256px"
   height="256px"
   viewBox="0 0 256 256"
   version="1.1"
   preserveAspectRatio="xMidYMid"
   id="svg2"
   inkscape:version="0.91 r13725"
   sodipodi:docname="facebook.svg">
  <metadata
     id="metadata14">
    <rdf:RDF>
      <cc:Work
         rdf:about="">
        <dc:format>image/svg+xml</dc:format>
        <dc:type
           rdf:resource="http://purl.org/dc/dcmitype/StillImage" />
        <dc:title />
      </cc:Work>
    </rdf:RDF>
  </metadata>
  <defs
     id="defs12" />
  <sodipodi:namedview
     pagecolor="#000000"
     bordercolor="#666666"
     borderopacity="1"
     objecttolerance="10"
     gridtolerance="10"
     guidetolerance="10"
     inkscape:pageopacity="0"
     inkscape:pageshadow="2"
     inkscape:window-width="1366"
     inkscape:window-height="744"
     id="namedview10"
     showgrid="false"
     inkscape:zoom="1.9116"
     inkscape:cx="26.051475"
     inkscape:cy="109.64637"
     inkscape:window-x="0"
     inkscape:window-y="24"
     inkscape:window-maximized="1"
     inkscape:current-layer="g4" />
  <g
     id="g4">
    <path
       d="M 14.128906 0 C 6.3239063 0 1.1842379e-15 6.3249062 0 14.128906 L 0 241.87109 C 0 249.67409 6.3239062 256.00195 14.128906 256.00195 L 136.73828 256.00195 L 136.73828 156.86328 L 103.37695 156.86328 L 103.37695 118.22852 L 136.73828 118.22852 L 136.73828 89.736328 C 136.73828 56.670328 156.93169 38.664062 186.42969 38.664062 C 200.55769 38.664062 212.70219 39.7165 216.24219 40.1875 L 216.24219 74.742188 L 195.7832 74.751953 C 179.7422 74.751953 176.63477 82.374547 176.63477 93.560547 L 176.63477 118.22852 L 214.89453 118.22852 L 209.91211 156.86328 L 176.63477 156.86328 L 176.63477 256.00195 L 241.87109 256.00195 C 249.67309 256.00195 256 249.67409 256 241.87109 L 256 14.128906 C 256 6.3249063 249.67309 1.1842379e-15 241.87109 0 L 14.128906 0 z "
       id="path6"
       style="fill:#ffffff" />
  </g>
</svg>
