<?xml version="1.0" encoding="UTF-8" standalone="no"?>
<!-- Created with Inkscape (http://www.inkscape.org/) -->

<svg
   xmlns:dc="http://purl.org/dc/elements/1.1/"
   xmlns:cc="http://creativecommons.org/ns#"
   xmlns:rdf="http://www.w3.org/1999/02/22-rdf-syntax-ns#"
   xmlns:svg="http://www.w3.org/2000/svg"
   xmlns="http://www.w3.org/2000/svg"
   xmlns:sodipodi="http://sodipodi.sourceforge.net/DTD/sodipodi-0.dtd"
   xmlns:inkscape="http://www.inkscape.org/namespaces/inkscape"
   width="500"
   height="810"
   viewBox="0 0 141.11111 228.6"
   version="1.1"
   id="svg90851"
   inkscape:version="0.91 r13725"
   sodipodi:docname="impactbyte_all_stencil.svg"
   inkscape:export-filename="/home/mhaidarh/all/org/impactbyte/repo/brand/logo/impactbyte_logo_red_square.svg.png"
   inkscape:export-xdpi="90"
   inkscape:export-ydpi="90">
  <defs
     id="defs90845">
    <clipPath
       clipPathUnits="userSpaceOnUse"
       id="clipPath171994">
      <rect
         style="opacity:0.66000001;fill:#00b0ff;fill-opacity:1;stroke:none;stroke-width:5;stroke-linecap:round;stroke-linejoin:round;stroke-miterlimit:4;stroke-dasharray:none;stroke-dashoffset:0;stroke-opacity:1"
         id="rect171996"
         width="360.70697"
         height="215.52615"
         x="1154.7113"
         y="2285.3784"
         rx="2.088433"
         ry="2.088433" />
    </clipPath>
    <clipPath
       clipPathUnits="userSpaceOnUse"
       id="clipPath90806">
      <rect
         style="opacity:0.66000001;fill:#00b0ff;fill-opacity:1;stroke:none;stroke-width:5;stroke-linecap:round;stroke-linejoin:round;stroke-miterlimit:4;stroke-dasharray:none;stroke-dashoffset:0;stroke-opacity:1"
         id="rect90808"
         width="183.2639"
         height="286.61984"
         x="1067.2368"
         y="2274.9014"
         rx="2.0539536"
         ry="2.088433" />
    </clipPath>
    <clipPath
       id="clipPath171994-7"
       clipPathUnits="userSpaceOnUse">
      <rect
         ry="2.088433"
         rx="2.088433"
         y="2285.3784"
         x="1154.7113"
         height="215.52615"
         width="360.70697"
         id="rect171996-5"
         style="opacity:0.66000001;fill:#00b0ff;fill-opacity:1;stroke:none;stroke-width:5;stroke-linecap:round;stroke-linejoin:round;stroke-miterlimit:4;stroke-dasharray:none;stroke-dashoffset:0;stroke-opacity:1" />
    </clipPath>
    <clipPath
       id="clipPath90806-3"
       clipPathUnits="userSpaceOnUse">
      <rect
         ry="2.088433"
         rx="2.0539536"
         y="2274.9014"
         x="1067.2368"
         height="286.61984"
         width="183.2639"
         id="rect90808-5"
         style="opacity:0.66000001;fill:#00b0ff;fill-opacity:1;stroke:none;stroke-width:5;stroke-linecap:round;stroke-linejoin:round;stroke-miterlimit:4;stroke-dasharray:none;stroke-dashoffset:0;stroke-opacity:1" />
    </clipPath>
    <clipPath
       id="clipPath171994-753"
       clipPathUnits="userSpaceOnUse">
      <rect
         ry="2.088433"
         rx="2.088433"
         y="2285.3784"
         x="1154.7113"
         height="215.52615"
         width="360.70697"
         id="rect171996-56"
         style="opacity:0.66000001;fill:#00b0ff;fill-opacity:1;stroke:none;stroke-width:5;stroke-linecap:round;stroke-linejoin:round;stroke-miterlimit:4;stroke-dasharray:none;stroke-dashoffset:0;stroke-opacity:1" />
    </clipPath>
    <clipPath
       id="clipPath90806-2"
       clipPathUnits="userSpaceOnUse">
      <rect
         ry="2.088433"
         rx="2.0539536"
         y="2274.9014"
         x="1067.2368"
         height="286.61984"
         width="183.2639"
         id="rect90808-9"
         style="opacity:0.66000001;fill:#00b0ff;fill-opacity:1;stroke:none;stroke-width:5;stroke-linecap:round;stroke-linejoin:round;stroke-miterlimit:4;stroke-dasharray:none;stroke-dashoffset:0;stroke-opacity:1" />
    </clipPath>
    <clipPath
       clipPathUnits="userSpaceOnUse"
       id="clipPath171994-75">
      <rect
         style="opacity:0.66000001;fill:#00b0ff;fill-opacity:1;stroke:none;stroke-width:5;stroke-linecap:round;stroke-linejoin:round;stroke-miterlimit:4;stroke-dasharray:none;stroke-dashoffset:0;stroke-opacity:1"
         id="rect171996-3"
         width="360.70697"
         height="215.52615"
         x="1154.7113"
         y="2285.3784"
         rx="2.088433"
         ry="2.088433" />
    </clipPath>
    <clipPath
       clipPathUnits="userSpaceOnUse"
       id="clipPath90806-5">
      <rect
         style="opacity:0.66000001;fill:#00b0ff;fill-opacity:1;stroke:none;stroke-width:5;stroke-linecap:round;stroke-linejoin:round;stroke-miterlimit:4;stroke-dasharray:none;stroke-dashoffset:0;stroke-opacity:1"
         id="rect90808-6"
         width="183.2639"
         height="286.61984"
         x="1067.2368"
         y="2274.9014"
         rx="2.0539536"
         ry="2.088433" />
    </clipPath>
    <clipPath
       id="clipPath171994-7-1"
       clipPathUnits="userSpaceOnUse">
      <rect
         ry="2.088433"
         rx="2.088433"
         y="2285.3784"
         x="1154.7113"
         height="215.52615"
         width="360.70697"
         id="rect171996-5-2"
         style="opacity:0.66000001;fill:#00b0ff;fill-opacity:1;stroke:none;stroke-width:5;stroke-linecap:round;stroke-linejoin:round;stroke-miterlimit:4;stroke-dasharray:none;stroke-dashoffset:0;stroke-opacity:1" />
    </clipPath>
    <clipPath
       id="clipPath90806-3-7"
       clipPathUnits="userSpaceOnUse">
      <rect
         ry="2.088433"
         rx="2.0539536"
         y="2274.9014"
         x="1067.2368"
         height="286.61984"
         width="183.2639"
         id="rect90808-5-0"
         style="opacity:0.66000001;fill:#00b0ff;fill-opacity:1;stroke:none;stroke-width:5;stroke-linecap:round;stroke-linejoin:round;stroke-miterlimit:4;stroke-dasharray:none;stroke-dashoffset:0;stroke-opacity:1" />
    </clipPath>
    <clipPath
       id="clipPath171994-7535"
       clipPathUnits="userSpaceOnUse">
      <rect
         ry="2.088433"
         rx="2.088433"
         y="2285.3784"
         x="1154.7113"
         height="215.52615"
         width="360.70697"
         id="rect171996-6"
         style="opacity:0.66000001;fill:#00b0ff;fill-opacity:1;stroke:none;stroke-width:5;stroke-linecap:round;stroke-linejoin:round;stroke-miterlimit:4;stroke-dasharray:none;stroke-dashoffset:0;stroke-opacity:1" />
    </clipPath>
    <clipPath
       id="clipPath90806-29"
       clipPathUnits="userSpaceOnUse">
      <rect
         ry="2.088433"
         rx="2.0539536"
         y="2274.9014"
         x="1067.2368"
         height="286.61984"
         width="183.2639"
         id="rect90808-1"
         style="opacity:0.66000001;fill:#00b0ff;fill-opacity:1;stroke:none;stroke-width:5;stroke-linecap:round;stroke-linejoin:round;stroke-miterlimit:4;stroke-dasharray:none;stroke-dashoffset:0;stroke-opacity:1" />
    </clipPath>
    <clipPath
       clipPathUnits="userSpaceOnUse"
       id="clipPath171994-7-2">
      <rect
         style="opacity:0.66000001;fill:#00b0ff;fill-opacity:1;stroke:none;stroke-width:5;stroke-linecap:round;stroke-linejoin:round;stroke-miterlimit:4;stroke-dasharray:none;stroke-dashoffset:0;stroke-opacity:1"
         id="rect171996-5-7"
         width="360.70697"
         height="215.52615"
         x="1154.7113"
         y="2285.3784"
         rx="2.088433"
         ry="2.088433" />
    </clipPath>
    <clipPath
       clipPathUnits="userSpaceOnUse"
       id="clipPath90806-3-0">
      <rect
         style="opacity:0.66000001;fill:#00b0ff;fill-opacity:1;stroke:none;stroke-width:5;stroke-linecap:round;stroke-linejoin:round;stroke-miterlimit:4;stroke-dasharray:none;stroke-dashoffset:0;stroke-opacity:1"
         id="rect90808-5-9"
         width="183.2639"
         height="286.61984"
         x="1067.2368"
         y="2274.9014"
         rx="2.0539536"
         ry="2.088433" />
    </clipPath>
    <clipPath
       clipPathUnits="userSpaceOnUse"
       id="clipPath171994-753-3">
      <rect
         style="opacity:0.66000001;fill:#00b0ff;fill-opacity:1;stroke:none;stroke-width:5;stroke-linecap:round;stroke-linejoin:round;stroke-miterlimit:4;stroke-dasharray:none;stroke-dashoffset:0;stroke-opacity:1"
         id="rect171996-56-6"
         width="360.70697"
         height="215.52615"
         x="1154.7113"
         y="2285.3784"
         rx="2.088433"
         ry="2.088433" />
    </clipPath>
    <clipPath
       clipPathUnits="userSpaceOnUse"
       id="clipPath90806-2-0">
      <rect
         style="opacity:0.66000001;fill:#00b0ff;fill-opacity:1;stroke:none;stroke-width:5;stroke-linecap:round;stroke-linejoin:round;stroke-miterlimit:4;stroke-dasharray:none;stroke-dashoffset:0;stroke-opacity:1"
         id="rect90808-9-6"
         width="183.2639"
         height="286.61984"
         x="1067.2368"
         y="2274.9014"
         rx="2.0539536"
         ry="2.088433" />
    </clipPath>
    <clipPath
       id="clipPath171994-75-2"
       clipPathUnits="userSpaceOnUse">
      <rect
         ry="2.088433"
         rx="2.088433"
         y="2285.3784"
         x="1154.7113"
         height="215.52615"
         width="360.70697"
         id="rect171996-3-6"
         style="opacity:0.66000001;fill:#00b0ff;fill-opacity:1;stroke:none;stroke-width:5;stroke-linecap:round;stroke-linejoin:round;stroke-miterlimit:4;stroke-dasharray:none;stroke-dashoffset:0;stroke-opacity:1" />
    </clipPath>
    <clipPath
       id="clipPath90806-5-1"
       clipPathUnits="userSpaceOnUse">
      <rect
         ry="2.088433"
         rx="2.0539536"
         y="2274.9014"
         x="1067.2368"
         height="286.61984"
         width="183.2639"
         id="rect90808-6-8"
         style="opacity:0.66000001;fill:#00b0ff;fill-opacity:1;stroke:none;stroke-width:5;stroke-linecap:round;stroke-linejoin:round;stroke-miterlimit:4;stroke-dasharray:none;stroke-dashoffset:0;stroke-opacity:1" />
    </clipPath>
    <clipPath
       clipPathUnits="userSpaceOnUse"
       id="clipPath171994-7-1-7">
      <rect
         style="opacity:0.66000001;fill:#00b0ff;fill-opacity:1;stroke:none;stroke-width:5;stroke-linecap:round;stroke-linejoin:round;stroke-miterlimit:4;stroke-dasharray:none;stroke-dashoffset:0;stroke-opacity:1"
         id="rect171996-5-2-9"
         width="360.70697"
         height="215.52615"
         x="1154.7113"
         y="2285.3784"
         rx="2.088433"
         ry="2.088433" />
    </clipPath>
    <clipPath
       clipPathUnits="userSpaceOnUse"
       id="clipPath90806-3-7-2">
      <rect
         style="opacity:0.66000001;fill:#00b0ff;fill-opacity:1;stroke:none;stroke-width:5;stroke-linecap:round;stroke-linejoin:round;stroke-miterlimit:4;stroke-dasharray:none;stroke-dashoffset:0;stroke-opacity:1"
         id="rect90808-5-0-0"
         width="183.2639"
         height="286.61984"
         x="1067.2368"
         y="2274.9014"
         rx="2.0539536"
         ry="2.088433" />
    </clipPath>
    <clipPath
       id="clipPath171994-75356"
       clipPathUnits="userSpaceOnUse">
      <rect
         ry="2.088433"
         rx="2.088433"
         y="2285.3784"
         x="1154.7113"
         height="215.52615"
         width="360.70697"
         id="rect171996-2"
         style="opacity:0.66000001;fill:#00b0ff;fill-opacity:1;stroke:none;stroke-width:5;stroke-linecap:round;stroke-linejoin:round;stroke-miterlimit:4;stroke-dasharray:none;stroke-dashoffset:0;stroke-opacity:1" />
    </clipPath>
    <clipPath
       id="clipPath90806-9"
       clipPathUnits="userSpaceOnUse">
      <rect
         ry="2.088433"
         rx="2.0539536"
         y="2274.9014"
         x="1067.2368"
         height="286.61984"
         width="183.2639"
         id="rect90808-12"
         style="opacity:0.66000001;fill:#00b0ff;fill-opacity:1;stroke:none;stroke-width:5;stroke-linecap:round;stroke-linejoin:round;stroke-miterlimit:4;stroke-dasharray:none;stroke-dashoffset:0;stroke-opacity:1" />
    </clipPath>
    <clipPath
       clipPathUnits="userSpaceOnUse"
       id="clipPath171994-75-7">
      <rect
         style="opacity:0.66000001;fill:#00b0ff;fill-opacity:1;stroke:none;stroke-width:5;stroke-linecap:round;stroke-linejoin:round;stroke-miterlimit:4;stroke-dasharray:none;stroke-dashoffset:0;stroke-opacity:1"
         id="rect171996-3-0"
         width="360.70697"
         height="215.52615"
         x="1154.7113"
         y="2285.3784"
         rx="2.088433"
         ry="2.088433" />
    </clipPath>
    <clipPath
       clipPathUnits="userSpaceOnUse"
       id="clipPath90806-5-9">
      <rect
         style="opacity:0.66000001;fill:#00b0ff;fill-opacity:1;stroke:none;stroke-width:5;stroke-linecap:round;stroke-linejoin:round;stroke-miterlimit:4;stroke-dasharray:none;stroke-dashoffset:0;stroke-opacity:1"
         id="rect90808-6-3"
         width="183.2639"
         height="286.61984"
         x="1067.2368"
         y="2274.9014"
         rx="2.0539536"
         ry="2.088433" />
    </clipPath>
    <clipPath
       id="clipPath171994-7-6"
       clipPathUnits="userSpaceOnUse">
      <rect
         ry="2.088433"
         rx="2.088433"
         y="2285.3784"
         x="1154.7113"
         height="215.52615"
         width="360.70697"
         id="rect171996-5-0"
         style="opacity:0.66000001;fill:#00b0ff;fill-opacity:1;stroke:none;stroke-width:5;stroke-linecap:round;stroke-linejoin:round;stroke-miterlimit:4;stroke-dasharray:none;stroke-dashoffset:0;stroke-opacity:1" />
    </clipPath>
    <clipPath
       id="clipPath90806-3-6"
       clipPathUnits="userSpaceOnUse">
      <rect
         ry="2.088433"
         rx="2.0539536"
         y="2274.9014"
         x="1067.2368"
         height="286.61984"
         width="183.2639"
         id="rect90808-5-2"
         style="opacity:0.66000001;fill:#00b0ff;fill-opacity:1;stroke:none;stroke-width:5;stroke-linecap:round;stroke-linejoin:round;stroke-miterlimit:4;stroke-dasharray:none;stroke-dashoffset:0;stroke-opacity:1" />
    </clipPath>
  </defs>
  <sodipodi:namedview
     id="base"
     pagecolor="#000000"
     bordercolor="#666666"
     borderopacity="1.0"
     inkscape:pageopacity="0"
     inkscape:pageshadow="2"
     inkscape:zoom="0.80048345"
     inkscape:cx="-178.2846"
     inkscape:cy="328.49676"
     inkscape:document-units="px"
     inkscape:current-layer="layer1"
     showgrid="false"
     inkscape:window-width="1329"
     inkscape:window-height="744"
     inkscape:window-x="37"
     inkscape:window-y="24"
     inkscape:window-maximized="1"
     units="px"
     inkscape:showpageshadow="false" />
  <metadata
     id="metadata90848">
    <rdf:RDF>
      <cc:Work
         rdf:about="">
        <dc:format>image/svg+xml</dc:format>
        <dc:type
           rdf:resource="http://purl.org/dc/dcmitype/StillImage" />
        <dc:title></dc:title>
      </cc:Work>
    </rdf:RDF>
  </metadata>
  <g
     inkscape:label="Layer 1"
     inkscape:groupmode="layer"
     id="layer1"
     transform="translate(0,-68.400015)">
    <g
       id="g3391"
       transform="matrix(1.6154605,0,0,1.6154605,-43.424161,-183.11207)">
      <g
         inkscape:label="Layer 1"
         id="layer1-8"
         transform="matrix(0.61902014,0,0,0.61902014,26.880247,53.630849)">
        <path
           inkscape:connector-curvature="0"
           style="opacity:1;fill:#ffffff;fill-opacity:1;stroke:none;stroke-width:11.96073818"
           d="M 380.81836,32.96875 C 276.49574,49.243761 181.04432,98.485677 87.919922,145.79297 44.259405,170.92954 -4.2278553,212.78971 0.29492188,268.31836 4.3760849,302.41064 23.121203,335.12323 48.634766,357.38477 c 7.128906,5.22832 20.894678,2.3916 25.388672,1.75585 -21.579232,31.69496 1.048268,73.53107 28.742182,93.34376 16.06117,13.81471 39.9001,21.11608 57.95118,6.63671 35.12237,-15.3783 75.0096,-22.95666 107.24023,-45.37109 3.43479,19.15607 26.77464,38.95459 44.16211,21.48828 63.1457,-42.39956 120.63622,-94.93185 158.98242,-161.31836 11.5824,-20.61733 32.76514,-42.13298 28.28516,-67.19922 -9.99344,-22.42718 -42.15947,-20.69342 -59.65625,-8.50781 9.09053,-29.17435 38.74858,-57.83206 24.28711,-90.06641 C 449.08608,90.268836 422.48325,92.270935 402.83398,96.923828 416.60179,75.186279 413.95072,33.175927 380.81836,32.96875 Z m 0.38476,15.042969 c 0.58887,7.2e-5 1.15691,0.02984 1.70508,0.08789 0.14689,0.01554 0.28178,0.04879 0.42578,0.06836 0.39567,0.05383 0.78992,0.109879 1.16407,0.193359 0.16468,0.03669 0.31599,0.09055 0.47656,0.132813 0.33278,0.08771 0.66716,0.174107 0.98242,0.285156 0.19112,0.06724 0.36796,0.152974 0.55274,0.228515 0.26565,0.108765 0.53445,0.212417 0.78711,0.337891 0.20674,0.102507 0.39947,0.222614 0.59765,0.335938 0.21094,0.120836 0.42761,0.234441 0.62891,0.367187 0.22349,0.147101 0.43079,0.313357 0.64258,0.47461 0.15579,0.118834 0.31728,0.231156 0.46679,0.357421 0.2218,0.186965 0.42853,0.391042 0.63672,0.59375 0.1243,0.121253 0.25356,0.236597 0.37305,0.363282 0.21056,0.222803 0.40765,0.460208 0.60351,0.699218 0.10205,0.124802 0.2066,0.24595 0.30469,0.375 0.2059,0.270261 0.39913,0.553633 0.58789,0.841797 0.0674,0.103147 0.13787,0.203246 0.20313,0.308594 0.20204,0.325496 0.39066,0.66415 0.57226,1.009766 0.0435,0.083 0.0885,0.163944 0.13086,0.248046 0.17917,0.355008 0.34522,0.72181 0.50391,1.095704 0.0392,0.09256 0.0792,0.183679 0.11719,0.277343 0.16091,0.396123 0.31016,0.801993 0.44921,1.216797 0.0203,0.06068 0.0407,0.120587 0.0605,0.181641 0.14448,0.443738 0.27605,0.896739 0.39649,1.359375 0.012,0.04636 0.0253,0.09213 0.0371,0.138672 0.12599,0.4957 0.23852,1.000982 0.33789,1.515625 0.10314,0.534223 0.19234,1.076944 0.26757,1.628906 1.35862,9.968069 -1.75908,22.600745 -7.01562,29.892578 -10.7725,9.594137 -14.80569,30.682717 6.64453,22.007817 18.28063,-3.99466 41.95921,-12.59208 56.95703,2.6289 5.79923,20.30669 -10.47389,38.15336 -17.39844,56.21094 -9.27053,12.18005 -22.74082,57.40268 6.98243,41.9668 12.63011,-14.42622 58.63665,-17.7777 40.26953,11.29687 -26.44725,48.08969 -58.12985,93.9736 -96.88282,132.92188 -27.90673,24.09937 -57.38453,46.31383 -87.49609,67.57031 -20.59649,-1.274 -6.92374,-41.07113 -35.47461,-27.00977 -35.84567,25.00654 -81.16942,29.76108 -118.45312,51.65039 -4.1023,1.44071 -8.80557,1.54282 -12.75586,-0.45507 -24.07007,-12.02694 -51.104874,-34.57269 -54.699222,-65.08985 -1.761626,-14.95647 14.855469,-28.27539 14.855469,-28.27539 0,0 24.285173,4.46567 43.941403,12.19922 18.94624,-4.97296 16.76721,-45.13169 36.82227,-14.89062 22.02484,-5.36535 22.32117,-36.88752 21.98633,-55.57032 C 176.72617,296.88171 155.3098,347.98982 147.11914,311 125.65802,297.57264 130.43766,337.1591 114.75391,343.20312 105.48378,331.26541 94.832323,310.91188 79.806641,334.83594 53.872975,373.58842 -5.4807506,293.705 20.388672,232.95312 c 1.374518,-3.43075 3.127701,-6.84957 5.298828,-10.24414 3.534544,-6.03409 7.460503,-11.66058 11.710938,-16.93945 36.187925,-46.94129 80.475462,-58.60986 125.908202,-80.875 24.25086,-12.18381 48.90459,-23.57792 74.0332,-33.785155 8.37639,-3.402445 16.80621,-6.67293 25.29102,-9.796875 8.48423,-3.123773 17.02497,-6.102066 25.62305,-8.917969 2.86622,-0.938671 5.73986,-1.859442 8.61914,-2.761719 1.53539,-0.600191 3.07565,-1.191029 4.61914,-1.771484 3.08813,-1.161359 6.19373,-2.282584 9.3125,-3.361328 1.55878,-0.539148 3.12151,-1.068334 4.6875,-1.585938 1.56659,-0.517811 3.13744,-1.025833 4.71093,-1.521484 3.14702,-0.991301 6.3076,-1.936905 9.48047,-2.835937 3.17283,-0.89898 6.35839,-1.75085 9.55469,-2.552735 3.19635,-0.801936 6.40366,-1.553893 9.6211,-2.253906 8.04347,-1.749915 16.14951,-3.174207 24.29882,-4.234375 2.2691,-0.77532 4.33912,-1.233426 6.22266,-1.414063 0.62785,-0.06021 1.23561,-0.08993 1.82226,-0.08984 z m -45.18945,87.855471 c -9.71966,2.06918 -20.5503,3.13685 -31.29883,1.72265 -29.04876,-3.82174 -28.74832,27.15089 -44.32031,37.55274 0.79482,12.65192 -3.06402,25.78644 -11.44336,35.1289 -17.5948,21.85494 -63.36495,26.79545 -74.9414,-3.10156 -0.0245,-0.21362 -0.0309,-0.42532 -0.0527,-0.63867 -6.88966,1.69301 -16.39358,2.10981 -30.44141,0.74805 -40.97523,-3.97216 -23.93353,33.08343 -51.386714,30.26758 -27.446279,-2.81481 -25.343423,18.99568 -51.894531,24.6582 -0.614895,10.03145 1.658947,19.61206 8.060547,27.35351 l 20.08789,24.29102 c 2e-6,0 15.39478,-16.4489 21.53711,-23.85547 14.215618,-15.92149 18.553318,25.05716 30.175778,16.05078 8.85777,-10.58474 28.84509,-48.91144 38.63672,-24.61523 8.56616,22.69895 22.32759,-13.36953 34.5332,-16.16211 1.78929,0.4574 3.4555,1.11234 5.00977,1.92969 l 0.006,-0.004 c 20.50305,-20.82467 40.34201,-29.37514 56.56836,-29.59375 52.86528,-0.71224 67.36319,87.0058 -58.49219,126.82031 -1.35385,2.80121 -2.67641,5.37723 -3.92383,7.62891 -7.8874,18.89397 -23.84218,6.73572 -33.88476,-0.0781 -7.99577,13.06389 -14.51688,30.27957 -29.5625,24.375 -5.73147,-2.27108 -24.99414,-6.97461 -24.99414,-6.97461 0,0 13.19124,45.64189 34.02929,34.64063 36.95561,-14.73148 70.29687,-24.71663 106.60157,-41.14453 17.82387,-5.17199 29.37565,-21.74689 47.70898,-24.54688 19.33791,-3.32426 14.13733,18.07446 18.5918,27.85742 49.87388,-41.97596 84.6889,-74.80367 126.93164,-138.75781 -15.47267,3.39123 -40.48785,11.2862 -48.2793,-7.88086 -2.94491,-33.3473 21.92464,-60.00538 29.89258,-90.88672 -18.47406,-8.28124 -38.94222,-2.93559 -57.98437,-0.0625 -13.1557,6.28601 -24.98461,-2.04945 -25.47071,-12.72265 z M 224.08984,171.0625 c -0.81309,-0.0693 -1.63983,0.18448 -2.44531,0.9082 -2.92224,0.49819 -4.4377,2.03966 -6.72851,3.04492 -4.94409,3.51986 -8.24135,8.83069 -11.45118,13.875 -1.98989,3.58459 -4.19035,8.1216 -2.20117,12.12696 1.74603,3.06531 5.64232,3.13552 8.61133,2.11133 3.04924,-0.79884 5.93701,-2.08701 8.83984,-3.29297 5.66164,-2.74057 11.59513,-6.03002 14.91797,-11.57813 1.49716,-4.32489 -1.8006,-8.289 -3.68164,-11.9082 -1.12078,-1.97221 -3.42208,-5.07876 -5.86133,-5.28711 z m 77.2793,11.19141 c 0.80594,-0.003 1.61912,0.11604 2.375,0.40234 7.65525,4.48682 8.36215,16.34749 2.60547,22.76563 -5.78904,7.19094 -20.84901,8.81686 -24.6582,-1.01954 -1.28529,-11.21268 8.763,-21.30247 19.67773,-22.14843 z m 51.76563,30.36328 c 0.8063,-0.003 1.61914,0.1164 2.375,0.40234 7.65524,4.48689 8.36213,16.34753 2.60546,22.76563 -5.78904,7.19096 -20.84744,8.81686 -24.65625,-1.01954 -1.28528,-11.21266 8.76143,-21.30247 19.67579,-22.14843 z m -39.67579,10.45508 c 0.80631,-0.003 1.61877,0.11639 2.375,0.40234 7.65488,4.48678 8.36215,16.34746 2.60547,22.76562 -5.78903,7.19097 -20.84939,8.81687 -24.6582,-1.01953 -1.28528,-11.21272 8.76337,-21.30247 19.67773,-22.14843 z m -62.41406,36.58203 c -14.57592,-0.26743 -32.10056,11.77281 -39.42187,23.73047 2.46645,6.22934 3.64752,13.26357 3.70703,19.92382 0.005,0.53131 0.002,1.06008 -0.008,1.58594 -0.001,0.0726 -4.5e-4,0.1463 -0.002,0.21875 -1.9e-4,0.009 -0.002,0.0183 -0.002,0.0273 -0.008,0.37043 -0.024,0.73642 -0.0391,1.10352 -0.01,0.23938 -0.0147,0.48092 -0.0274,0.71875 -5.5e-4,0.0103 -10e-4,0.0209 -0.002,0.0312 -0.0119,0.22196 -0.0324,0.43965 -0.0469,0.66016 -0.0227,0.34594 -0.0414,0.69309 -0.0703,1.03515 -5.5e-4,0.006 -0.001,0.0131 -0.002,0.0195 -0.009,0.10126 -0.0221,0.19989 -0.0312,0.30079 -0.0934,1.02883 -0.2101,2.0417 -0.35938,3.02734 -0.28697,1.2972 -0.59331,2.59875 -0.91211,3.90234 -0.1526,0.62627 -0.31722,1.25359 -0.47656,1.88086 -0.1565,0.61339 -0.30994,1.22618 -0.47265,1.83985 -0.25565,0.96929 -0.52111,1.93733 -0.79102,2.90625 -0.046,0.16418 -0.0923,0.32805 -0.13867,0.49218 -1.67803,5.97123 -3.60568,11.90505 -5.66211,17.5918 31.68238,-2.93588 74.57214,-63.62171 54.98633,-78.58398 -2.21012,-1.86389 -5.20838,-2.47375 -8.03516,-2.27539 -0.72301,-0.0797 -1.45336,-0.12255 -2.19336,-0.13672 z m -36.30469,52.38281 -0.002,-0.002 c -10e-4,0.006 -0.003,0.0131 -0.004,0.0195 l 0.006,-0.0176 z"
           transform="matrix(0.28222224,0,0,0.28222224,-4.3063697e-6,155.88891)"
           id="path172260" />
      </g>
      <text
         sodipodi:linespacing="125%"
         id="text3359-3-6-9"
         y="256.52515"
         x="25.345554"
         style="font-style:normal;font-weight:normal;font-size:22.57070541px;line-height:125%;font-family:sans-serif;letter-spacing:0px;word-spacing:0px;fill:#ffffff;fill-opacity:1;stroke:none;stroke-width:1px;stroke-linecap:butt;stroke-linejoin:miter;stroke-opacity:1"
         xml:space="preserve"><tspan
           style="font-style:normal;font-variant:normal;font-weight:bold;font-stretch:normal;font-family:Montserrat;-inkscape-font-specification:'Montserrat Bold';fill:#ffffff;fill-opacity:1"
           y="256.52515"
           x="25.345554"
           id="tspan3361-6-2-4"
           sodipodi:role="line">IMPACT</tspan></text>
      <text
         sodipodi:linespacing="100%"
         id="text3425-9-7"
         y="295.8335"
         x="26.424238"
         style="font-style:normal;font-weight:normal;font-size:48.01245117px;line-height:100%;font-family:sans-serif;letter-spacing:0px;word-spacing:0px;fill:#ffffff;fill-opacity:1;stroke:none;stroke-width:1px;stroke-linecap:butt;stroke-linejoin:miter;stroke-opacity:1"
         xml:space="preserve"><tspan
           dx="0"
           style="font-style:normal;font-variant:normal;font-weight:500;font-stretch:normal;line-height:100%;font-family:OneDirection;-inkscape-font-specification:'OneDirection Medium';letter-spacing:1.20031118px;fill:#ffffff;fill-opacity:1"
           y="295.8335"
           x="26.424238"
           id="tspan3427-1-8"
           sodipodi:role="line">BYTE</tspan></text>
    </g>
  </g>
</svg>
