<?xml version="1.0" encoding="UTF-8" standalone="no"?>
<!-- Created with Inkscape (http://www.inkscape.org/) -->

<svg
   xmlns:dc="http://purl.org/dc/elements/1.1/"
   xmlns:cc="http://creativecommons.org/ns#"
   xmlns:rdf="http://www.w3.org/1999/02/22-rdf-syntax-ns#"
   xmlns:svg="http://www.w3.org/2000/svg"
   xmlns="http://www.w3.org/2000/svg"
   xmlns:xlink="http://www.w3.org/1999/xlink"
   xmlns:sodipodi="http://sodipodi.sourceforge.net/DTD/sodipodi-0.dtd"
   xmlns:inkscape="http://www.inkscape.org/namespaces/inkscape"
   width="500"
   height="500"
   viewBox="0 0 499.99998 500.00001"
   id="svg2"
   version="1.1"
   inkscape:version="0.91 r13725"
   sodipodi:docname="impactbyte_gray.svg">
  <defs
     id="defs4">
    <clipPath
       id="clipPath171994"
       clipPathUnits="userSpaceOnUse">
      <rect
         ry="2.088433"
         rx="2.088433"
         y="2285.3784"
         x="1154.7113"
         height="215.52615"
         width="360.70697"
         id="rect171996"
         style="opacity:0.66000001;fill:#00b0ff;fill-opacity:1;stroke:none;stroke-width:5;stroke-linecap:round;stroke-linejoin:round;stroke-miterlimit:4;stroke-dasharray:none;stroke-dashoffset:0;stroke-opacity:1" />
    </clipPath>
    <clipPath
       id="clipPath90806"
       clipPathUnits="userSpaceOnUse">
      <rect
         ry="2.088433"
         rx="2.0539536"
         y="2274.9014"
         x="1067.2368"
         height="286.61984"
         width="183.2639"
         id="rect90808"
         style="opacity:0.66000001;fill:#00b0ff;fill-opacity:1;stroke:none;stroke-width:5;stroke-linecap:round;stroke-linejoin:round;stroke-miterlimit:4;stroke-dasharray:none;stroke-dashoffset:0;stroke-opacity:1" />
    </clipPath>
    <clipPath
       clipPathUnits="userSpaceOnUse"
       id="clipPath171994-75">
      <rect
         style="opacity:0.66000001;fill:#00b0ff;fill-opacity:1;stroke:none;stroke-width:5;stroke-linecap:round;stroke-linejoin:round;stroke-miterlimit:4;stroke-dasharray:none;stroke-dashoffset:0;stroke-opacity:1"
         id="rect171996-3"
         width="360.70697"
         height="215.52615"
         x="1154.7113"
         y="2285.3784"
         rx="2.088433"
         ry="2.088433" />
    </clipPath>
    <clipPath
       clipPathUnits="userSpaceOnUse"
       id="clipPath90806-5">
      <rect
         style="opacity:0.66000001;fill:#00b0ff;fill-opacity:1;stroke:none;stroke-width:5;stroke-linecap:round;stroke-linejoin:round;stroke-miterlimit:4;stroke-dasharray:none;stroke-dashoffset:0;stroke-opacity:1"
         id="rect90808-6"
         width="183.2639"
         height="286.61984"
         x="1067.2368"
         y="2274.9014"
         rx="2.0539536"
         ry="2.088433" />
    </clipPath>
    <clipPath
       id="clipPath171994-7"
       clipPathUnits="userSpaceOnUse">
      <rect
         ry="2.088433"
         rx="2.088433"
         y="2285.3784"
         x="1154.7113"
         height="215.52615"
         width="360.70697"
         id="rect171996-5"
         style="opacity:0.66000001;fill:#00b0ff;fill-opacity:1;stroke:none;stroke-width:5;stroke-linecap:round;stroke-linejoin:round;stroke-miterlimit:4;stroke-dasharray:none;stroke-dashoffset:0;stroke-opacity:1" />
    </clipPath>
    <clipPath
       id="clipPath90806-3"
       clipPathUnits="userSpaceOnUse">
      <rect
         ry="2.088433"
         rx="2.0539536"
         y="2274.9014"
         x="1067.2368"
         height="286.61984"
         width="183.2639"
         id="rect90808-5"
         style="opacity:0.66000001;fill:#00b0ff;fill-opacity:1;stroke:none;stroke-width:5;stroke-linecap:round;stroke-linejoin:round;stroke-miterlimit:4;stroke-dasharray:none;stroke-dashoffset:0;stroke-opacity:1" />
    </clipPath>
    <clipPath
       clipPathUnits="userSpaceOnUse"
       id="clipPath171994-753562">
      <rect
         style="opacity:0.66000001;fill:#00b0ff;fill-opacity:1;stroke:none;stroke-width:5;stroke-linecap:round;stroke-linejoin:round;stroke-miterlimit:4;stroke-dasharray:none;stroke-dashoffset:0;stroke-opacity:1"
         id="rect171996-9"
         width="360.70697"
         height="215.52615"
         x="1154.7113"
         y="2285.3784"
         rx="2.088433"
         ry="2.088433" />
    </clipPath>
    <clipPath
       clipPathUnits="userSpaceOnUse"
       id="clipPath90806-1">
      <rect
         style="opacity:0.66000001;fill:#00b0ff;fill-opacity:1;stroke:none;stroke-width:5;stroke-linecap:round;stroke-linejoin:round;stroke-miterlimit:4;stroke-dasharray:none;stroke-dashoffset:0;stroke-opacity:1"
         id="rect90808-2"
         width="183.2639"
         height="286.61984"
         x="1067.2368"
         y="2274.9014"
         rx="2.0539536"
         ry="2.088433" />
    </clipPath>
    <clipPath
       id="clipPath171994-7-70"
       clipPathUnits="userSpaceOnUse">
      <rect
         ry="2.088433"
         rx="2.088433"
         y="2285.3784"
         x="1154.7113"
         height="215.52615"
         width="360.70697"
         id="rect171996-5-9"
         style="opacity:0.66000001;fill:#00b0ff;fill-opacity:1;stroke:none;stroke-width:5;stroke-linecap:round;stroke-linejoin:round;stroke-miterlimit:4;stroke-dasharray:none;stroke-dashoffset:0;stroke-opacity:1" />
    </clipPath>
    <clipPath
       id="clipPath90806-3-3"
       clipPathUnits="userSpaceOnUse">
      <rect
         ry="2.088433"
         rx="2.0539536"
         y="2274.9014"
         x="1067.2368"
         height="286.61984"
         width="183.2639"
         id="rect90808-5-6"
         style="opacity:0.66000001;fill:#00b0ff;fill-opacity:1;stroke:none;stroke-width:5;stroke-linecap:round;stroke-linejoin:round;stroke-miterlimit:4;stroke-dasharray:none;stroke-dashoffset:0;stroke-opacity:1" />
    </clipPath>
    <clipPath
       id="clipPath171994-753"
       clipPathUnits="userSpaceOnUse">
      <rect
         ry="2.088433"
         rx="2.088433"
         y="2285.3784"
         x="1154.7113"
         height="215.52615"
         width="360.70697"
         id="rect171996-56"
         style="opacity:0.66000001;fill:#00b0ff;fill-opacity:1;stroke:none;stroke-width:5;stroke-linecap:round;stroke-linejoin:round;stroke-miterlimit:4;stroke-dasharray:none;stroke-dashoffset:0;stroke-opacity:1" />
    </clipPath>
    <clipPath
       id="clipPath90806-2"
       clipPathUnits="userSpaceOnUse">
      <rect
         ry="2.088433"
         rx="2.0539536"
         y="2274.9014"
         x="1067.2368"
         height="286.61984"
         width="183.2639"
         id="rect90808-9"
         style="opacity:0.66000001;fill:#00b0ff;fill-opacity:1;stroke:none;stroke-width:5;stroke-linecap:round;stroke-linejoin:round;stroke-miterlimit:4;stroke-dasharray:none;stroke-dashoffset:0;stroke-opacity:1" />
    </clipPath>
    <clipPath
       clipPathUnits="userSpaceOnUse"
       id="clipPath171994-75-0">
      <rect
         style="opacity:0.66000001;fill:#00b0ff;fill-opacity:1;stroke:none;stroke-width:5;stroke-linecap:round;stroke-linejoin:round;stroke-miterlimit:4;stroke-dasharray:none;stroke-dashoffset:0;stroke-opacity:1"
         id="rect171996-3-62"
         width="360.70697"
         height="215.52615"
         x="1154.7113"
         y="2285.3784"
         rx="2.088433"
         ry="2.088433" />
    </clipPath>
    <clipPath
       clipPathUnits="userSpaceOnUse"
       id="clipPath90806-5-6">
      <rect
         style="opacity:0.66000001;fill:#00b0ff;fill-opacity:1;stroke:none;stroke-width:5;stroke-linecap:round;stroke-linejoin:round;stroke-miterlimit:4;stroke-dasharray:none;stroke-dashoffset:0;stroke-opacity:1"
         id="rect90808-6-1"
         width="183.2639"
         height="286.61984"
         x="1067.2368"
         y="2274.9014"
         rx="2.0539536"
         ry="2.088433" />
    </clipPath>
    <clipPath
       id="clipPath171994-7-1"
       clipPathUnits="userSpaceOnUse">
      <rect
         ry="2.088433"
         rx="2.088433"
         y="2285.3784"
         x="1154.7113"
         height="215.52615"
         width="360.70697"
         id="rect171996-5-2"
         style="opacity:0.66000001;fill:#00b0ff;fill-opacity:1;stroke:none;stroke-width:5;stroke-linecap:round;stroke-linejoin:round;stroke-miterlimit:4;stroke-dasharray:none;stroke-dashoffset:0;stroke-opacity:1" />
    </clipPath>
    <clipPath
       id="clipPath90806-3-7"
       clipPathUnits="userSpaceOnUse">
      <rect
         ry="2.088433"
         rx="2.0539536"
         y="2274.9014"
         x="1067.2368"
         height="286.61984"
         width="183.2639"
         id="rect90808-5-0"
         style="opacity:0.66000001;fill:#00b0ff;fill-opacity:1;stroke:none;stroke-width:5;stroke-linecap:round;stroke-linejoin:round;stroke-miterlimit:4;stroke-dasharray:none;stroke-dashoffset:0;stroke-opacity:1" />
    </clipPath>
    <clipPath
       id="clipPath171994-7535"
       clipPathUnits="userSpaceOnUse">
      <rect
         ry="2.088433"
         rx="2.088433"
         y="2285.3784"
         x="1154.7113"
         height="215.52615"
         width="360.70697"
         id="rect171996-6"
         style="opacity:0.66000001;fill:#00b0ff;fill-opacity:1;stroke:none;stroke-width:5;stroke-linecap:round;stroke-linejoin:round;stroke-miterlimit:4;stroke-dasharray:none;stroke-dashoffset:0;stroke-opacity:1" />
    </clipPath>
    <clipPath
       id="clipPath90806-29"
       clipPathUnits="userSpaceOnUse">
      <rect
         ry="2.088433"
         rx="2.0539536"
         y="2274.9014"
         x="1067.2368"
         height="286.61984"
         width="183.2639"
         id="rect90808-1"
         style="opacity:0.66000001;fill:#00b0ff;fill-opacity:1;stroke:none;stroke-width:5;stroke-linecap:round;stroke-linejoin:round;stroke-miterlimit:4;stroke-dasharray:none;stroke-dashoffset:0;stroke-opacity:1" />
    </clipPath>
    <clipPath
       clipPathUnits="userSpaceOnUse"
       id="clipPath171994-7-2">
      <rect
         style="opacity:0.66000001;fill:#00b0ff;fill-opacity:1;stroke:none;stroke-width:5;stroke-linecap:round;stroke-linejoin:round;stroke-miterlimit:4;stroke-dasharray:none;stroke-dashoffset:0;stroke-opacity:1"
         id="rect171996-5-7"
         width="360.70697"
         height="215.52615"
         x="1154.7113"
         y="2285.3784"
         rx="2.088433"
         ry="2.088433" />
    </clipPath>
    <clipPath
       clipPathUnits="userSpaceOnUse"
       id="clipPath90806-3-0">
      <rect
         style="opacity:0.66000001;fill:#00b0ff;fill-opacity:1;stroke:none;stroke-width:5;stroke-linecap:round;stroke-linejoin:round;stroke-miterlimit:4;stroke-dasharray:none;stroke-dashoffset:0;stroke-opacity:1"
         id="rect90808-5-9"
         width="183.2639"
         height="286.61984"
         x="1067.2368"
         y="2274.9014"
         rx="2.0539536"
         ry="2.088433" />
    </clipPath>
    <clipPath
       clipPathUnits="userSpaceOnUse"
       id="clipPath171994-753-3">
      <rect
         style="opacity:0.66000001;fill:#00b0ff;fill-opacity:1;stroke:none;stroke-width:5;stroke-linecap:round;stroke-linejoin:round;stroke-miterlimit:4;stroke-dasharray:none;stroke-dashoffset:0;stroke-opacity:1"
         id="rect171996-56-6"
         width="360.70697"
         height="215.52615"
         x="1154.7113"
         y="2285.3784"
         rx="2.088433"
         ry="2.088433" />
    </clipPath>
    <clipPath
       clipPathUnits="userSpaceOnUse"
       id="clipPath90806-2-0">
      <rect
         style="opacity:0.66000001;fill:#00b0ff;fill-opacity:1;stroke:none;stroke-width:5;stroke-linecap:round;stroke-linejoin:round;stroke-miterlimit:4;stroke-dasharray:none;stroke-dashoffset:0;stroke-opacity:1"
         id="rect90808-9-6"
         width="183.2639"
         height="286.61984"
         x="1067.2368"
         y="2274.9014"
         rx="2.0539536"
         ry="2.088433" />
    </clipPath>
    <clipPath
       id="clipPath171994-75-2"
       clipPathUnits="userSpaceOnUse">
      <rect
         ry="2.088433"
         rx="2.088433"
         y="2285.3784"
         x="1154.7113"
         height="215.52615"
         width="360.70697"
         id="rect171996-3-6"
         style="opacity:0.66000001;fill:#00b0ff;fill-opacity:1;stroke:none;stroke-width:5;stroke-linecap:round;stroke-linejoin:round;stroke-miterlimit:4;stroke-dasharray:none;stroke-dashoffset:0;stroke-opacity:1" />
    </clipPath>
    <clipPath
       id="clipPath90806-5-1"
       clipPathUnits="userSpaceOnUse">
      <rect
         ry="2.088433"
         rx="2.0539536"
         y="2274.9014"
         x="1067.2368"
         height="286.61984"
         width="183.2639"
         id="rect90808-6-8"
         style="opacity:0.66000001;fill:#00b0ff;fill-opacity:1;stroke:none;stroke-width:5;stroke-linecap:round;stroke-linejoin:round;stroke-miterlimit:4;stroke-dasharray:none;stroke-dashoffset:0;stroke-opacity:1" />
    </clipPath>
    <clipPath
       clipPathUnits="userSpaceOnUse"
       id="clipPath171994-7-1-7">
      <rect
         style="opacity:0.66000001;fill:#00b0ff;fill-opacity:1;stroke:none;stroke-width:5;stroke-linecap:round;stroke-linejoin:round;stroke-miterlimit:4;stroke-dasharray:none;stroke-dashoffset:0;stroke-opacity:1"
         id="rect171996-5-2-9"
         width="360.70697"
         height="215.52615"
         x="1154.7113"
         y="2285.3784"
         rx="2.088433"
         ry="2.088433" />
    </clipPath>
    <clipPath
       clipPathUnits="userSpaceOnUse"
       id="clipPath90806-3-7-2">
      <rect
         style="opacity:0.66000001;fill:#00b0ff;fill-opacity:1;stroke:none;stroke-width:5;stroke-linecap:round;stroke-linejoin:round;stroke-miterlimit:4;stroke-dasharray:none;stroke-dashoffset:0;stroke-opacity:1"
         id="rect90808-5-0-0"
         width="183.2639"
         height="286.61984"
         x="1067.2368"
         y="2274.9014"
         rx="2.0539536"
         ry="2.088433" />
    </clipPath>
    <clipPath
       id="clipPath171994-75356"
       clipPathUnits="userSpaceOnUse">
      <rect
         ry="2.088433"
         rx="2.088433"
         y="2285.3784"
         x="1154.7113"
         height="215.52615"
         width="360.70697"
         id="rect171996-2"
         style="opacity:0.66000001;fill:#00b0ff;fill-opacity:1;stroke:none;stroke-width:5;stroke-linecap:round;stroke-linejoin:round;stroke-miterlimit:4;stroke-dasharray:none;stroke-dashoffset:0;stroke-opacity:1" />
    </clipPath>
    <clipPath
       id="clipPath90806-9"
       clipPathUnits="userSpaceOnUse">
      <rect
         ry="2.088433"
         rx="2.0539536"
         y="2274.9014"
         x="1067.2368"
         height="286.61984"
         width="183.2639"
         id="rect90808-12"
         style="opacity:0.66000001;fill:#00b0ff;fill-opacity:1;stroke:none;stroke-width:5;stroke-linecap:round;stroke-linejoin:round;stroke-miterlimit:4;stroke-dasharray:none;stroke-dashoffset:0;stroke-opacity:1" />
    </clipPath>
    <clipPath
       clipPathUnits="userSpaceOnUse"
       id="clipPath171994-7-7">
      <rect
         style="opacity:0.66000001;fill:#00b0ff;fill-opacity:1;stroke:none;stroke-width:5;stroke-linecap:round;stroke-linejoin:round;stroke-miterlimit:4;stroke-dasharray:none;stroke-dashoffset:0;stroke-opacity:1"
         id="rect171996-5-0"
         width="360.70697"
         height="215.52615"
         x="1154.7113"
         y="2285.3784"
         rx="2.088433"
         ry="2.088433" />
    </clipPath>
    <clipPath
       clipPathUnits="userSpaceOnUse"
       id="clipPath90806-3-9">
      <rect
         style="opacity:0.66000001;fill:#00b0ff;fill-opacity:1;stroke:none;stroke-width:5;stroke-linecap:round;stroke-linejoin:round;stroke-miterlimit:4;stroke-dasharray:none;stroke-dashoffset:0;stroke-opacity:1"
         id="rect90808-5-3"
         width="183.2639"
         height="286.61984"
         x="1067.2368"
         y="2274.9014"
         rx="2.0539536"
         ry="2.088433" />
    </clipPath>
    <clipPath
       clipPathUnits="userSpaceOnUse"
       id="clipPath171994-753-6">
      <rect
         style="opacity:0.66000001;fill:#00b0ff;fill-opacity:1;stroke:none;stroke-width:5;stroke-linecap:round;stroke-linejoin:round;stroke-miterlimit:4;stroke-dasharray:none;stroke-dashoffset:0;stroke-opacity:1"
         id="rect171996-56-0"
         width="360.70697"
         height="215.52615"
         x="1154.7113"
         y="2285.3784"
         rx="2.088433"
         ry="2.088433" />
    </clipPath>
    <clipPath
       clipPathUnits="userSpaceOnUse"
       id="clipPath90806-2-6">
      <rect
         style="opacity:0.66000001;fill:#00b0ff;fill-opacity:1;stroke:none;stroke-width:5;stroke-linecap:round;stroke-linejoin:round;stroke-miterlimit:4;stroke-dasharray:none;stroke-dashoffset:0;stroke-opacity:1"
         id="rect90808-9-2"
         width="183.2639"
         height="286.61984"
         x="1067.2368"
         y="2274.9014"
         rx="2.0539536"
         ry="2.088433" />
    </clipPath>
    <clipPath
       id="clipPath171994-75-6"
       clipPathUnits="userSpaceOnUse">
      <rect
         ry="2.088433"
         rx="2.088433"
         y="2285.3784"
         x="1154.7113"
         height="215.52615"
         width="360.70697"
         id="rect171996-3-1"
         style="opacity:0.66000001;fill:#00b0ff;fill-opacity:1;stroke:none;stroke-width:5;stroke-linecap:round;stroke-linejoin:round;stroke-miterlimit:4;stroke-dasharray:none;stroke-dashoffset:0;stroke-opacity:1" />
    </clipPath>
    <clipPath
       id="clipPath90806-5-8"
       clipPathUnits="userSpaceOnUse">
      <rect
         ry="2.088433"
         rx="2.0539536"
         y="2274.9014"
         x="1067.2368"
         height="286.61984"
         width="183.2639"
         id="rect90808-6-7"
         style="opacity:0.66000001;fill:#00b0ff;fill-opacity:1;stroke:none;stroke-width:5;stroke-linecap:round;stroke-linejoin:round;stroke-miterlimit:4;stroke-dasharray:none;stroke-dashoffset:0;stroke-opacity:1" />
    </clipPath>
    <clipPath
       clipPathUnits="userSpaceOnUse"
       id="clipPath171994-7-1-9">
      <rect
         style="opacity:0.66000001;fill:#00b0ff;fill-opacity:1;stroke:none;stroke-width:5;stroke-linecap:round;stroke-linejoin:round;stroke-miterlimit:4;stroke-dasharray:none;stroke-dashoffset:0;stroke-opacity:1"
         id="rect171996-5-2-2"
         width="360.70697"
         height="215.52615"
         x="1154.7113"
         y="2285.3784"
         rx="2.088433"
         ry="2.088433" />
    </clipPath>
    <clipPath
       clipPathUnits="userSpaceOnUse"
       id="clipPath90806-3-7-0">
      <rect
         style="opacity:0.66000001;fill:#00b0ff;fill-opacity:1;stroke:none;stroke-width:5;stroke-linecap:round;stroke-linejoin:round;stroke-miterlimit:4;stroke-dasharray:none;stroke-dashoffset:0;stroke-opacity:1"
         id="rect90808-5-0-2"
         width="183.2639"
         height="286.61984"
         x="1067.2368"
         y="2274.9014"
         rx="2.0539536"
         ry="2.088433" />
    </clipPath>
    <clipPath
       id="clipPath171994-5"
       clipPathUnits="userSpaceOnUse">
      <rect
         ry="2.088433"
         rx="2.088433"
         y="2285.3784"
         x="1154.7113"
         height="215.52615"
         width="360.70697"
         id="rect171996-35"
         style="opacity:0.66000001;fill:#00b0ff;fill-opacity:1;stroke:none;stroke-width:5;stroke-linecap:round;stroke-linejoin:round;stroke-miterlimit:4;stroke-dasharray:none;stroke-dashoffset:0;stroke-opacity:1" />
    </clipPath>
    <clipPath
       id="clipPath90806-6"
       clipPathUnits="userSpaceOnUse">
      <rect
         ry="2.088433"
         rx="2.0539536"
         y="2274.9014"
         x="1067.2368"
         height="286.61984"
         width="183.2639"
         id="rect90808-29"
         style="opacity:0.66000001;fill:#00b0ff;fill-opacity:1;stroke:none;stroke-width:5;stroke-linecap:round;stroke-linejoin:round;stroke-miterlimit:4;stroke-dasharray:none;stroke-dashoffset:0;stroke-opacity:1" />
    </clipPath>
    <clipPath
       clipPathUnits="userSpaceOnUse"
       id="clipPath171994-7-12">
      <rect
         style="opacity:0.66000001;fill:#00b0ff;fill-opacity:1;stroke:none;stroke-width:5;stroke-linecap:round;stroke-linejoin:round;stroke-miterlimit:4;stroke-dasharray:none;stroke-dashoffset:0;stroke-opacity:1"
         id="rect171996-5-70"
         width="360.70697"
         height="215.52615"
         x="1154.7113"
         y="2285.3784"
         rx="2.088433"
         ry="2.088433" />
    </clipPath>
    <clipPath
       clipPathUnits="userSpaceOnUse"
       id="clipPath90806-3-93">
      <rect
         style="opacity:0.66000001;fill:#00b0ff;fill-opacity:1;stroke:none;stroke-width:5;stroke-linecap:round;stroke-linejoin:round;stroke-miterlimit:4;stroke-dasharray:none;stroke-dashoffset:0;stroke-opacity:1"
         id="rect90808-5-60"
         width="183.2639"
         height="286.61984"
         x="1067.2368"
         y="2274.9014"
         rx="2.0539536"
         ry="2.088433" />
    </clipPath>
    <clipPath
       clipPathUnits="userSpaceOnUse"
       id="clipPath171994-753-62">
      <rect
         style="opacity:0.66000001;fill:#00b0ff;fill-opacity:1;stroke:none;stroke-width:5;stroke-linecap:round;stroke-linejoin:round;stroke-miterlimit:4;stroke-dasharray:none;stroke-dashoffset:0;stroke-opacity:1"
         id="rect171996-56-61"
         width="360.70697"
         height="215.52615"
         x="1154.7113"
         y="2285.3784"
         rx="2.088433"
         ry="2.088433" />
    </clipPath>
    <clipPath
       clipPathUnits="userSpaceOnUse"
       id="clipPath90806-2-8">
      <rect
         style="opacity:0.66000001;fill:#00b0ff;fill-opacity:1;stroke:none;stroke-width:5;stroke-linecap:round;stroke-linejoin:round;stroke-miterlimit:4;stroke-dasharray:none;stroke-dashoffset:0;stroke-opacity:1"
         id="rect90808-9-7"
         width="183.2639"
         height="286.61984"
         x="1067.2368"
         y="2274.9014"
         rx="2.0539536"
         ry="2.088433" />
    </clipPath>
    <clipPath
       id="clipPath171994-75-9"
       clipPathUnits="userSpaceOnUse">
      <rect
         ry="2.088433"
         rx="2.088433"
         y="2285.3784"
         x="1154.7113"
         height="215.52615"
         width="360.70697"
         id="rect171996-3-2"
         style="opacity:0.66000001;fill:#00b0ff;fill-opacity:1;stroke:none;stroke-width:5;stroke-linecap:round;stroke-linejoin:round;stroke-miterlimit:4;stroke-dasharray:none;stroke-dashoffset:0;stroke-opacity:1" />
    </clipPath>
    <clipPath
       id="clipPath90806-5-0"
       clipPathUnits="userSpaceOnUse">
      <rect
         ry="2.088433"
         rx="2.0539536"
         y="2274.9014"
         x="1067.2368"
         height="286.61984"
         width="183.2639"
         id="rect90808-6-2"
         style="opacity:0.66000001;fill:#00b0ff;fill-opacity:1;stroke:none;stroke-width:5;stroke-linecap:round;stroke-linejoin:round;stroke-miterlimit:4;stroke-dasharray:none;stroke-dashoffset:0;stroke-opacity:1" />
    </clipPath>
    <clipPath
       clipPathUnits="userSpaceOnUse"
       id="clipPath171994-7-1-3">
      <rect
         style="opacity:0.66000001;fill:#00b0ff;fill-opacity:1;stroke:none;stroke-width:5;stroke-linecap:round;stroke-linejoin:round;stroke-miterlimit:4;stroke-dasharray:none;stroke-dashoffset:0;stroke-opacity:1"
         id="rect171996-5-2-7"
         width="360.70697"
         height="215.52615"
         x="1154.7113"
         y="2285.3784"
         rx="2.088433"
         ry="2.088433" />
    </clipPath>
    <clipPath
       clipPathUnits="userSpaceOnUse"
       id="clipPath90806-3-7-5">
      <rect
         style="opacity:0.66000001;fill:#00b0ff;fill-opacity:1;stroke:none;stroke-width:5;stroke-linecap:round;stroke-linejoin:round;stroke-miterlimit:4;stroke-dasharray:none;stroke-dashoffset:0;stroke-opacity:1"
         id="rect90808-5-0-9"
         width="183.2639"
         height="286.61984"
         x="1067.2368"
         y="2274.9014"
         rx="2.0539536"
         ry="2.088433" />
    </clipPath>
    <filter
       style="color-interpolation-filters:sRGB;"
       inkscape:label="Lightness-Contrast"
       id="filter4425">
      <feColorMatrix
         values="1 0 0 -0.1 -0 0 1 0 -0.1 -0 0 0 1 -0.1 -0 0 0 0 1 0"
         id="feColorMatrix4427" />
    </filter>
  </defs>
  <sodipodi:namedview
     id="base"
     pagecolor="#ffffff"
     bordercolor="#666666"
     borderopacity="1.0"
     inkscape:pageopacity="0"
     inkscape:pageshadow="2"
     inkscape:zoom="0.870912"
     inkscape:cx="326.7415"
     inkscape:cy="310.46147"
     inkscape:document-units="px"
     inkscape:current-layer="layer1"
     showgrid="false"
     inkscape:showpageshadow="false"
     units="px"
     inkscape:window-width="1366"
     inkscape:window-height="744"
     inkscape:window-x="0"
     inkscape:window-y="24"
     inkscape:window-maximized="1" />
  <metadata
     id="metadata7">
    <rdf:RDF>
      <cc:Work
         rdf:about="">
        <dc:format>image/svg+xml</dc:format>
        <dc:type
           rdf:resource="http://purl.org/dc/dcmitype/StillImage" />
        <dc:title></dc:title>
      </cc:Work>
    </rdf:RDF>
  </metadata>
  <g
     inkscape:label="Layer 1"
     inkscape:groupmode="layer"
     id="layer1"
     transform="translate(0,-552.36216)">
    <image
       sodipodi:absref="/home/mhaidarh/all/org/impactbyte/prints/books/assets/template_red.jpg"
       xlink:href="assets/template_red.jpg"
       width="500"
       height="500"
       preserveAspectRatio="none"
       style="image-rendering:optimizeSpeed"
       id="image3974-3"
       x="1800"
       y="552.36218" />
    <g
       id="g4477">
      <path
         id="path172262-6"
         transform="translate(-1.5258789e-5,552.36216)"
         d="M 2190.8066 77.333984 C 2182.941 79.660822 2175.1724 82.341927 2167.5332 85.328125 C 2130.6785 96.877535 2095.1706 112.20864 2060.6797 129.53711 C 2020.3104 149.32081 1974.4421 167.06229 1950.5859 207.78906 C 1932.3133 236.35846 1950.9024 267.02071 1972.7148 289.47266 C 1978.0829 302.903 1995.3256 294.52273 2002.8398 282.35742 C 2014.8601 263.21832 2014.422 294.63318 2021.8379 304.18359 C 2034.3852 299.34818 2030.5595 267.67803 2047.7285 278.41992 C 2054.2811 308.01157 2071.4165 267.12535 2084.834 269.45117 C 2085.1019 284.39755 2084.8484 309.61591 2067.2441 313.9082 C 2051.2 289.71549 2051.8872 329.40991 2030.3945 330.15039 C 2014.196 320.52557 1989.8344 316.15618 1995.1133 341.49805 C 1995.5604 364.7729 2015.2516 381.1322 2034.5078 390.75391 C 2037.6679 392.35229 2041.4311 392.26976 2044.7129 391.11719 C 2074.5399 373.6056 2110.8 369.80406 2139.4766 349.79883 C 2158.9325 329.78928 2151.3765 370.38517 2167.8535 371.4043 C 2175.5675 365.95885 2183.2211 360.42383 2190.8066 354.79688 L 2190.8066 77.333984 z "
         style="opacity:1;fill:#ef5350;fill-opacity:1;stroke-width:11.96073818" />
      <path
         id="path172264-5"
         transform="translate(-1.5258789e-5,552.36216)"
         d="M 2190.8066 77.337891 C 2189.2669 77.793582 2187.7289 78.253872 2186.1973 78.736328 C 2183.6797 79.529336 2181.1727 80.357731 2178.6777 81.220703 C 2174.9353 82.515142 2171.2195 83.887133 2167.5332 85.328125 C 2137.5887 94.712021 2108.5345 106.5917 2080.1914 120.01172 C 2075.8309 122.07634 2071.4875 124.17851 2067.1602 126.3125 C 2064.9965 127.37949 2062.8354 128.45408 2060.6797 129.53711 C 2024.5638 147.23637 1989.358 156.58378 1960.5098 193.54492 C 1960.1353 194.02467 1959.7571 194.48547 1959.3848 194.97461 C 1956.207 198.98707 1953.2522 203.23731 1950.5859 207.78906 C 1949.1644 210.01171 1947.9912 212.24712 1947 214.49023 C 1946.8254 214.87162 1946.6602 215.25529 1946.4941 215.63867 C 1946.449 215.74881 1946.3977 215.85858 1946.3535 215.96875 C 1925.6417 264.57208 1973.1319 328.49542 1993.8809 297.49023 C 2005.9015 278.35098 2014.4218 294.63339 2021.8379 304.18359 C 2034.3849 299.34833 2030.5596 267.67803 2047.7285 278.41992 C 2054.2811 308.01178 2071.4165 267.12527 2084.834 269.45117 C 2085.1019 284.3974 2084.8635 309.61591 2067.2441 313.9082 C 2051.2001 289.71535 2052.9422 321.84392 2037.7852 325.82227 C 2022.0602 319.63545 2002.6328 316.06055 2002.6328 316.06055 C 2002.6328 316.06055 1989.3387 326.71841 1990.748 338.68359 C 1993.6235 363.09733 2015.2517 381.13234 2034.5078 390.75391 C 2037.668 392.35222 2041.431 392.26976 2044.7129 391.11719 C 2074.5398 373.60574 2110.8 369.80406 2139.4766 349.79883 C 2162.3173 338.54975 2151.3763 370.3851 2167.8535 371.4043 C 2175.5675 365.95883 2183.2211 360.42365 2190.8066 354.79688 L 2190.8066 328.3125 C 2186.9031 331.67784 2182.9167 335.07539 2178.7734 338.5625 C 2175.2098 330.73611 2179.3708 313.61795 2163.9004 316.27734 C 2149.2338 318.51735 2139.9935 331.77843 2125.7344 335.91602 C 2096.6906 349.05836 2070.0176 357.04489 2040.4531 368.83008 C 2023.7826 377.63108 2013.2285 341.11914 2013.2285 341.11914 C 2013.2285 341.11914 2028.6375 344.8804 2033.2227 346.69727 C 2045.2592 351.42092 2050.4784 337.6484 2056.875 327.19727 C 2064.9091 332.64837 2077.6725 342.37688 2083.9824 327.26172 C 2084.9716 325.47622 2086.0265 323.37995 2087.0996 321.16211 C 2218.7108 279.53802 2158.5046 172.43483 2088.6602 243.375 L 2088.6543 243.37891 C 2087.4108 242.72497 2086.078 242.19993 2084.6465 241.83398 C 2074.882 244.06804 2063.8724 272.9248 2057.0195 254.76562 C 2049.1862 235.32867 2033.1975 265.98924 2026.1113 274.45703 C 2016.8133 281.66214 2013.3432 248.87999 2001.9707 261.61719 C 1997.0568 267.54245 1984.7402 280.70117 1984.7402 280.70117 L 1968.6699 261.26953 C 1963.5485 255.07617 1961.7306 247.41037 1962.2227 239.38477 C 1983.4614 234.85405 1981.78 217.40643 2003.7363 219.6582 C 2025.6988 221.91089 2012.0655 192.26565 2044.8457 195.44336 C 2055.4935 196.47553 2063.3065 196.45121 2069.332 195.57422 C 2078.732 219.24742 2115.1627 215.26806 2129.1953 197.83789 C 2135.9014 190.36091 2138.9887 179.84797 2138.3496 169.72266 C 2150.8007 161.39695 2150.5716 136.6365 2173.8066 139.69336 C 2179.5405 140.44776 2185.2975 140.3067 2190.8066 139.64648 L 2190.8066 77.337891 z M 2171.1309 175.42578 C 2162.3991 176.10255 2154.3605 184.17241 2155.3887 193.14258 C 2158.436 201.01169 2170.484 199.71175 2175.1152 193.95898 C 2179.7205 188.82444 2179.1535 179.33553 2173.0293 175.74609 C 2172.4246 175.51719 2171.7757 175.42365 2171.1309 175.42578 z M 2180.8008 208.07812 L 2180.8008 208.08008 C 2172.0694 208.75685 2164.0323 216.82671 2165.0605 225.79688 C 2168.1075 233.66599 2180.1559 232.36605 2184.7871 226.61328 C 2189.3925 221.47874 2188.8251 211.98983 2182.7012 208.40039 C 2182.0962 208.17149 2181.4459 208.07599 2180.8008 208.07812 z "
         style="opacity:1;fill:#692323;fill-opacity:1;stroke-width:11.96073818" />
      <path
         sodipodi:nodetypes="cccccccccc"
         style="opacity:1;fill:#e9e9f1;fill-opacity:1;stroke-width:3.16461182"
         d="m 2109.3071,718.83369 c 1.9514,0.16653 3.7916,2.65159 4.6883,4.22936 1.5048,2.89538 4.1437,6.06734 2.946,9.52724 -2.6583,4.43849 -7.4058,7.06883 -11.9351,9.26129 -2.3223,0.96477 -4.6318,1.99587 -7.0712,2.63494 -2.3752,0.81935 -5.4924,0.76309 -6.8892,-1.68917 -1.5914,-3.20428 0.1689,-6.83383 1.7608,-9.7015 2.5678,-4.03547 5.2049,-8.28397 9.1602,-11.09983 1.8326,-0.80426 3.0457,-2.03741 5.3835,-2.43596 0.6443,-0.57897 1.3063,-0.78179 1.9567,-0.72637 z"
         id="path172270-3"
         inkscape:connector-curvature="0" />
      <path
         id="path172276-7"
         d="m 2130.8705,789.70734 c -11.665,-0.21402 -25.691,9.4252 -31.5443,18.99475 2.8677,7.24542 3.5691,15.8524 2.5,22.91144 -1.6974,7.67275 -4.1228,15.53103 -6.7864,22.89324 25.3483,-2.31924 59.6868,-50.89606 44.013,-62.86982 -1.7681,-1.49109 -4.1657,-1.97893 -6.4271,-1.82027 -0.5784,-0.0638 -1.1632,-0.0985 -1.7552,-0.10984 z"
         style="fill:#ffa726;fill-opacity:1;fill-rule:evenodd;stroke:none;stroke-width:0.83730352px;stroke-linecap:butt;stroke-linejoin:miter;stroke-opacity:1"
         inkscape:connector-curvature="0" />
    </g>
    <path
       inkscape:connector-curvature="0"
       style="opacity:1;fill:#424242;fill-opacity:1;stroke:none;stroke-width:11.96073818"
       d="m 389.99996,618.24691 c -66.386,17.73387 -128.65114,49.75534 -189.66406,80.75 -34.9284,20.1093 -73.71977,53.59663 -70.10156,98.01953 3.2648,27.2738 18.26302,53.4447 38.67382,71.2539 5.703,4.1827 16.71535,1.9129 20.31055,1.4043 -17.2634,25.356 0.83699,58.82571 22.99219,74.67578 12.849,11.0518 31.92033,16.8921 46.36133,5.3086 28.0978,-12.3026 60.00836,-18.36528 85.79296,-36.29688 2.7478,15.3249 21.42008,31.16438 35.33008,17.19141 3.45808,-2.32195 6.89248,-4.68512 10.30469,-7.08399 l 0,-15.35156 c -7.33195,5.42894 -14.72453,10.77317 -22.17578,16.0332 -16.47717,-1.0193 -5.53831,-32.85847 -28.37891,-21.60937 -28.6766,20.0052 -64.93472,23.80894 -94.76172,41.32031 -3.2818,1.1526 -7.04683,1.23502 -10.20703,-0.36328 -19.2561,-9.62157 -40.88241,-27.65651 -43.75781,-52.07031 -1.4093,-11.9652 11.88281,-22.6211 11.88281,-22.6211 0,0 19.42735,3.57102 35.15235,9.75781 15.157,-3.97829 13.41683,-36.10305 29.46093,-11.91015 17.6198,-4.2923 17.85775,-29.51073 17.58985,-44.45703 -13.4175,-2.3259 -30.55287,38.56065 -37.10547,8.96875 -17.1688,-10.7419 -13.34753,20.92642 -25.89453,25.76172 -7.4161,-9.5502 -15.93653,-25.83452 -27.95703,-6.69532 -20.7511,31.0081 -68.24613,-32.93005 -47.51954,-81.53515 0.031,-0.078 0.0657,-0.15638 0.0977,-0.23438 0.1852,-0.4293 0.37041,-0.85835 0.56641,-1.28515 0.9864,-2.2246 2.1526,-4.44014 3.5625,-6.64453 2.6578,-4.5373 5.60343,-8.77605 8.76953,-12.77735 0.3821,-0.5022 0.77195,-0.97645 1.15625,-1.46875 28.8481,-36.9602 64.05247,-46.30881 100.16797,-64.00781 34.4909,-17.3285 70.0007,-32.65763 106.85547,-44.20703 7.3726,-2.882 14.86471,-5.48421 22.44921,-7.75391 0.0156,-0.005 0.0313,-0.009 0.0469,-0.0137 l 0,-12.05859 z m -20.32031,73.92382 c -19.17884,0.23476 -19.69341,22.52163 -31.39453,30.3086 0.6343,10.1197 -2.4228,20.62515 -9.125,28.09765 -14.0337,17.4317 -50.46739,21.40316 -59.86328,-2.27734 -6.02791,0.8796 -13.82608,0.91601 -24.48438,-0.11719 -32.7802,-3.1777 -19.14677,26.46354 -41.10938,24.21094 -21.9569,-2.2519 -20.27492,15.19646 -41.51562,19.72656 -0.4925,8.0263 1.32742,15.69282 6.44922,21.88672 l 16.07031,19.42969 c 0,0 12.31667,-13.15673 17.23047,-19.08203 11.3725,-12.7372 14.84273,20.04494 24.14062,12.83984 7.08631,-8.4678 23.07296,-39.1284 30.90626,-19.69141 6.85289,18.1591 17.8644,-10.69568 27.6289,-12.92968 1.4302,0.3656 2.76141,0.88997 4.00391,1.54297 l 0.01,0 c 69.8445,-70.9402 130.04873,36.16115 -1.5625,77.78515 -1.0733,2.2184 -2.12388,4.31557 -3.11328,6.10156 -6.3099,15.1155 -19.07537,5.38625 -27.10937,-0.0645 -6.3966,10.4511 -11.61585,24.22751 -23.65235,19.50391 -4.5851,-1.8169 -19.99218,-5.58203 -19.99218,-5.58203 0,0 10.55215,36.51584 27.22265,27.71484 29.5645,-11.7852 56.23755,-19.77567 85.28125,-32.91797 14.2591,-4.1376 23.50127,-17.39672 38.16797,-19.63672 15.47027,-2.6594 11.30749,14.45681 14.87109,22.28321 3.87079,-3.25781 7.5993,-6.43453 11.25977,-9.58399 l 0,-189.24804 c -5.27122,0.58477 -10.75847,0.67652 -16.22656,-0.043 -1.45334,-0.1912 -2.81516,-0.27347 -4.09375,-0.25782 z M 309.2734,719.2137 c -0.6504,-0.055 -1.31263,0.14757 -1.95703,0.72656 -2.3378,0.3986 -3.55022,1.6294 -5.38282,2.4336 -3.9554,2.8159 -6.59235,7.06606 -9.16015,11.10156 -1.5928,2.8677 -3.35312,6.49492 -1.76172,9.69922 1.3968,2.4523 4.51152,2.51071 6.88672,1.69141 2.4393,-0.6391 4.75172,-1.67192 7.07422,-2.63672 4.5292,-2.1925 9.27519,-4.82332 11.93359,-9.26172 1.1976,-3.46 -1.44051,-6.63195 -2.94531,-9.52735 -0.8966,-1.5777 -2.7361,-4.05976 -4.6875,-4.22656 z m 61.82031,8.95313 c 0.6448,0 1.29764,0.091 1.90234,0.32031 6.1242,3.5894 6.68743,13.07644 2.08203,18.21094 -4.6312,5.7528 -16.67535,7.0567 -19.72265,-0.8125 -1.0283,-8.9701 7.00661,-17.04195 15.73828,-17.71875 z m 9.67187,32.65234 c 0.6451,0 1.29735,0.0909 1.90235,0.32031 6.1239,3.5895 6.68733,13.08025 2.08203,18.21485 -4.6312,5.7527 -16.67556,7.05269 -19.72266,-0.81641 -1.02817,-8.9702 7.00679,-17.04195 15.73828,-17.71875 z m -49.93164,29.26563 c -11.665,-0.214 -25.68976,9.42649 -31.54296,18.99609 2.8676,7.2454 3.569,15.85116 2.5,22.91016 0,0.01 -0.01,0.0213 -0.01,0.0312 l 0.0117,-0.0312 c -1.6976,7.6728 -4.12546,15.53233 -6.78906,22.89453 25.3484,-2.3192 59.68942,-50.8974 44.01562,-62.8711 -1.768,-1.4911 -4.16829,-1.97911 -6.42969,-1.82031 -0.5784,-0.063 -1.1619,-0.0971 -1.7539,-0.10937 l -0.002,0 z"
       id="path172260-0-9" />
  </g>
</svg>
