<?xml version="1.0" encoding="UTF-8" standalone="no"?>
<!-- Created with Inkscape (http://www.inkscape.org/) -->

<svg
   xmlns:dc="http://purl.org/dc/elements/1.1/"
   xmlns:cc="http://creativecommons.org/ns#"
   xmlns:rdf="http://www.w3.org/1999/02/22-rdf-syntax-ns#"
   xmlns:svg="http://www.w3.org/2000/svg"
   xmlns="http://www.w3.org/2000/svg"
   xmlns:sodipodi="http://sodipodi.sourceforge.net/DTD/sodipodi-0.dtd"
   xmlns:inkscape="http://www.inkscape.org/namespaces/inkscape"
   width="6cm"
   height="5cm"
   viewBox="0 0 59.999995 49.999997"
   version="1.1"
   id="svg90851"
   inkscape:version="0.91 r13725"
   sodipodi:docname="logo.svg"
   inkscape:export-filename="/home/mhaidarh/all/org/impactbyte/repo/brand/logo/impactbyte_logo_red_square.svg.png"
   inkscape:export-xdpi="90"
   inkscape:export-ydpi="90">
  <defs
     id="defs90845">
    <clipPath
       clipPathUnits="userSpaceOnUse"
       id="clipPath171994">
      <rect
         style="opacity:0.66000001;fill:#00b0ff;fill-opacity:1;stroke:none;stroke-width:5;stroke-linecap:round;stroke-linejoin:round;stroke-miterlimit:4;stroke-dasharray:none;stroke-dashoffset:0;stroke-opacity:1"
         id="rect171996"
         width="360.70697"
         height="215.52615"
         x="1154.7113"
         y="2285.3784"
         rx="2.088433"
         ry="2.088433" />
    </clipPath>
    <clipPath
       clipPathUnits="userSpaceOnUse"
       id="clipPath90806">
      <rect
         style="opacity:0.66000001;fill:#00b0ff;fill-opacity:1;stroke:none;stroke-width:5;stroke-linecap:round;stroke-linejoin:round;stroke-miterlimit:4;stroke-dasharray:none;stroke-dashoffset:0;stroke-opacity:1"
         id="rect90808"
         width="183.2639"
         height="286.61984"
         x="1067.2368"
         y="2274.9014"
         rx="2.0539536"
         ry="2.088433" />
    </clipPath>
    <clipPath
       id="clipPath171994-7"
       clipPathUnits="userSpaceOnUse">
      <rect
         ry="2.088433"
         rx="2.088433"
         y="2285.3784"
         x="1154.7113"
         height="215.52615"
         width="360.70697"
         id="rect171996-5"
         style="opacity:0.66000001;fill:#00b0ff;fill-opacity:1;stroke:none;stroke-width:5;stroke-linecap:round;stroke-linejoin:round;stroke-miterlimit:4;stroke-dasharray:none;stroke-dashoffset:0;stroke-opacity:1" />
    </clipPath>
    <clipPath
       id="clipPath90806-3"
       clipPathUnits="userSpaceOnUse">
      <rect
         ry="2.088433"
         rx="2.0539536"
         y="2274.9014"
         x="1067.2368"
         height="286.61984"
         width="183.2639"
         id="rect90808-5"
         style="opacity:0.66000001;fill:#00b0ff;fill-opacity:1;stroke:none;stroke-width:5;stroke-linecap:round;stroke-linejoin:round;stroke-miterlimit:4;stroke-dasharray:none;stroke-dashoffset:0;stroke-opacity:1" />
    </clipPath>
    <clipPath
       id="clipPath171994-753"
       clipPathUnits="userSpaceOnUse">
      <rect
         ry="2.088433"
         rx="2.088433"
         y="2285.3784"
         x="1154.7113"
         height="215.52615"
         width="360.70697"
         id="rect171996-56"
         style="opacity:0.66000001;fill:#00b0ff;fill-opacity:1;stroke:none;stroke-width:5;stroke-linecap:round;stroke-linejoin:round;stroke-miterlimit:4;stroke-dasharray:none;stroke-dashoffset:0;stroke-opacity:1" />
    </clipPath>
    <clipPath
       id="clipPath90806-2"
       clipPathUnits="userSpaceOnUse">
      <rect
         ry="2.088433"
         rx="2.0539536"
         y="2274.9014"
         x="1067.2368"
         height="286.61984"
         width="183.2639"
         id="rect90808-9"
         style="opacity:0.66000001;fill:#00b0ff;fill-opacity:1;stroke:none;stroke-width:5;stroke-linecap:round;stroke-linejoin:round;stroke-miterlimit:4;stroke-dasharray:none;stroke-dashoffset:0;stroke-opacity:1" />
    </clipPath>
    <clipPath
       clipPathUnits="userSpaceOnUse"
       id="clipPath171994-75">
      <rect
         style="opacity:0.66000001;fill:#00b0ff;fill-opacity:1;stroke:none;stroke-width:5;stroke-linecap:round;stroke-linejoin:round;stroke-miterlimit:4;stroke-dasharray:none;stroke-dashoffset:0;stroke-opacity:1"
         id="rect171996-3"
         width="360.70697"
         height="215.52615"
         x="1154.7113"
         y="2285.3784"
         rx="2.088433"
         ry="2.088433" />
    </clipPath>
    <clipPath
       clipPathUnits="userSpaceOnUse"
       id="clipPath90806-5">
      <rect
         style="opacity:0.66000001;fill:#00b0ff;fill-opacity:1;stroke:none;stroke-width:5;stroke-linecap:round;stroke-linejoin:round;stroke-miterlimit:4;stroke-dasharray:none;stroke-dashoffset:0;stroke-opacity:1"
         id="rect90808-6"
         width="183.2639"
         height="286.61984"
         x="1067.2368"
         y="2274.9014"
         rx="2.0539536"
         ry="2.088433" />
    </clipPath>
    <clipPath
       id="clipPath171994-7-1"
       clipPathUnits="userSpaceOnUse">
      <rect
         ry="2.088433"
         rx="2.088433"
         y="2285.3784"
         x="1154.7113"
         height="215.52615"
         width="360.70697"
         id="rect171996-5-2"
         style="opacity:0.66000001;fill:#00b0ff;fill-opacity:1;stroke:none;stroke-width:5;stroke-linecap:round;stroke-linejoin:round;stroke-miterlimit:4;stroke-dasharray:none;stroke-dashoffset:0;stroke-opacity:1" />
    </clipPath>
    <clipPath
       id="clipPath90806-3-7"
       clipPathUnits="userSpaceOnUse">
      <rect
         ry="2.088433"
         rx="2.0539536"
         y="2274.9014"
         x="1067.2368"
         height="286.61984"
         width="183.2639"
         id="rect90808-5-0"
         style="opacity:0.66000001;fill:#00b0ff;fill-opacity:1;stroke:none;stroke-width:5;stroke-linecap:round;stroke-linejoin:round;stroke-miterlimit:4;stroke-dasharray:none;stroke-dashoffset:0;stroke-opacity:1" />
    </clipPath>
    <clipPath
       id="clipPath171994-7535"
       clipPathUnits="userSpaceOnUse">
      <rect
         ry="2.088433"
         rx="2.088433"
         y="2285.3784"
         x="1154.7113"
         height="215.52615"
         width="360.70697"
         id="rect171996-6"
         style="opacity:0.66000001;fill:#00b0ff;fill-opacity:1;stroke:none;stroke-width:5;stroke-linecap:round;stroke-linejoin:round;stroke-miterlimit:4;stroke-dasharray:none;stroke-dashoffset:0;stroke-opacity:1" />
    </clipPath>
    <clipPath
       id="clipPath90806-29"
       clipPathUnits="userSpaceOnUse">
      <rect
         ry="2.088433"
         rx="2.0539536"
         y="2274.9014"
         x="1067.2368"
         height="286.61984"
         width="183.2639"
         id="rect90808-1"
         style="opacity:0.66000001;fill:#00b0ff;fill-opacity:1;stroke:none;stroke-width:5;stroke-linecap:round;stroke-linejoin:round;stroke-miterlimit:4;stroke-dasharray:none;stroke-dashoffset:0;stroke-opacity:1" />
    </clipPath>
    <clipPath
       clipPathUnits="userSpaceOnUse"
       id="clipPath171994-7-2">
      <rect
         style="opacity:0.66000001;fill:#00b0ff;fill-opacity:1;stroke:none;stroke-width:5;stroke-linecap:round;stroke-linejoin:round;stroke-miterlimit:4;stroke-dasharray:none;stroke-dashoffset:0;stroke-opacity:1"
         id="rect171996-5-7"
         width="360.70697"
         height="215.52615"
         x="1154.7113"
         y="2285.3784"
         rx="2.088433"
         ry="2.088433" />
    </clipPath>
    <clipPath
       clipPathUnits="userSpaceOnUse"
       id="clipPath90806-3-0">
      <rect
         style="opacity:0.66000001;fill:#00b0ff;fill-opacity:1;stroke:none;stroke-width:5;stroke-linecap:round;stroke-linejoin:round;stroke-miterlimit:4;stroke-dasharray:none;stroke-dashoffset:0;stroke-opacity:1"
         id="rect90808-5-9"
         width="183.2639"
         height="286.61984"
         x="1067.2368"
         y="2274.9014"
         rx="2.0539536"
         ry="2.088433" />
    </clipPath>
    <clipPath
       clipPathUnits="userSpaceOnUse"
       id="clipPath171994-753-3">
      <rect
         style="opacity:0.66000001;fill:#00b0ff;fill-opacity:1;stroke:none;stroke-width:5;stroke-linecap:round;stroke-linejoin:round;stroke-miterlimit:4;stroke-dasharray:none;stroke-dashoffset:0;stroke-opacity:1"
         id="rect171996-56-6"
         width="360.70697"
         height="215.52615"
         x="1154.7113"
         y="2285.3784"
         rx="2.088433"
         ry="2.088433" />
    </clipPath>
    <clipPath
       clipPathUnits="userSpaceOnUse"
       id="clipPath90806-2-0">
      <rect
         style="opacity:0.66000001;fill:#00b0ff;fill-opacity:1;stroke:none;stroke-width:5;stroke-linecap:round;stroke-linejoin:round;stroke-miterlimit:4;stroke-dasharray:none;stroke-dashoffset:0;stroke-opacity:1"
         id="rect90808-9-6"
         width="183.2639"
         height="286.61984"
         x="1067.2368"
         y="2274.9014"
         rx="2.0539536"
         ry="2.088433" />
    </clipPath>
    <clipPath
       id="clipPath171994-75-2"
       clipPathUnits="userSpaceOnUse">
      <rect
         ry="2.088433"
         rx="2.088433"
         y="2285.3784"
         x="1154.7113"
         height="215.52615"
         width="360.70697"
         id="rect171996-3-6"
         style="opacity:0.66000001;fill:#00b0ff;fill-opacity:1;stroke:none;stroke-width:5;stroke-linecap:round;stroke-linejoin:round;stroke-miterlimit:4;stroke-dasharray:none;stroke-dashoffset:0;stroke-opacity:1" />
    </clipPath>
    <clipPath
       id="clipPath90806-5-1"
       clipPathUnits="userSpaceOnUse">
      <rect
         ry="2.088433"
         rx="2.0539536"
         y="2274.9014"
         x="1067.2368"
         height="286.61984"
         width="183.2639"
         id="rect90808-6-8"
         style="opacity:0.66000001;fill:#00b0ff;fill-opacity:1;stroke:none;stroke-width:5;stroke-linecap:round;stroke-linejoin:round;stroke-miterlimit:4;stroke-dasharray:none;stroke-dashoffset:0;stroke-opacity:1" />
    </clipPath>
    <clipPath
       clipPathUnits="userSpaceOnUse"
       id="clipPath171994-7-1-7">
      <rect
         style="opacity:0.66000001;fill:#00b0ff;fill-opacity:1;stroke:none;stroke-width:5;stroke-linecap:round;stroke-linejoin:round;stroke-miterlimit:4;stroke-dasharray:none;stroke-dashoffset:0;stroke-opacity:1"
         id="rect171996-5-2-9"
         width="360.70697"
         height="215.52615"
         x="1154.7113"
         y="2285.3784"
         rx="2.088433"
         ry="2.088433" />
    </clipPath>
    <clipPath
       clipPathUnits="userSpaceOnUse"
       id="clipPath90806-3-7-2">
      <rect
         style="opacity:0.66000001;fill:#00b0ff;fill-opacity:1;stroke:none;stroke-width:5;stroke-linecap:round;stroke-linejoin:round;stroke-miterlimit:4;stroke-dasharray:none;stroke-dashoffset:0;stroke-opacity:1"
         id="rect90808-5-0-0"
         width="183.2639"
         height="286.61984"
         x="1067.2368"
         y="2274.9014"
         rx="2.0539536"
         ry="2.088433" />
    </clipPath>
    <clipPath
       id="clipPath171994-6"
       clipPathUnits="userSpaceOnUse">
      <rect
         ry="2.088433"
         rx="2.088433"
         y="2285.3784"
         x="1154.7113"
         height="215.52615"
         width="360.70697"
         id="rect171996-0"
         style="opacity:0.66000001;fill:#00b0ff;fill-opacity:1;stroke:none;stroke-width:5;stroke-linecap:round;stroke-linejoin:round;stroke-miterlimit:4;stroke-dasharray:none;stroke-dashoffset:0;stroke-opacity:1" />
    </clipPath>
    <clipPath
       id="clipPath90806-6"
       clipPathUnits="userSpaceOnUse">
      <rect
         ry="2.088433"
         rx="2.0539536"
         y="2274.9014"
         x="1067.2368"
         height="286.61984"
         width="183.2639"
         id="rect90808-2"
         style="opacity:0.66000001;fill:#00b0ff;fill-opacity:1;stroke:none;stroke-width:5;stroke-linecap:round;stroke-linejoin:round;stroke-miterlimit:4;stroke-dasharray:none;stroke-dashoffset:0;stroke-opacity:1" />
    </clipPath>
    <clipPath
       clipPathUnits="userSpaceOnUse"
       id="clipPath171994-7-6">
      <rect
         style="opacity:0.66000001;fill:#00b0ff;fill-opacity:1;stroke:none;stroke-width:5;stroke-linecap:round;stroke-linejoin:round;stroke-miterlimit:4;stroke-dasharray:none;stroke-dashoffset:0;stroke-opacity:1"
         id="rect171996-5-1"
         width="360.70697"
         height="215.52615"
         x="1154.7113"
         y="2285.3784"
         rx="2.088433"
         ry="2.088433" />
    </clipPath>
    <clipPath
       clipPathUnits="userSpaceOnUse"
       id="clipPath90806-3-8">
      <rect
         style="opacity:0.66000001;fill:#00b0ff;fill-opacity:1;stroke:none;stroke-width:5;stroke-linecap:round;stroke-linejoin:round;stroke-miterlimit:4;stroke-dasharray:none;stroke-dashoffset:0;stroke-opacity:1"
         id="rect90808-5-7"
         width="183.2639"
         height="286.61984"
         x="1067.2368"
         y="2274.9014"
         rx="2.0539536"
         ry="2.088433" />
    </clipPath>
    <clipPath
       clipPathUnits="userSpaceOnUse"
       id="clipPath171994-753-9">
      <rect
         style="opacity:0.66000001;fill:#00b0ff;fill-opacity:1;stroke:none;stroke-width:5;stroke-linecap:round;stroke-linejoin:round;stroke-miterlimit:4;stroke-dasharray:none;stroke-dashoffset:0;stroke-opacity:1"
         id="rect171996-56-2"
         width="360.70697"
         height="215.52615"
         x="1154.7113"
         y="2285.3784"
         rx="2.088433"
         ry="2.088433" />
    </clipPath>
    <clipPath
       clipPathUnits="userSpaceOnUse"
       id="clipPath90806-2-02">
      <rect
         style="opacity:0.66000001;fill:#00b0ff;fill-opacity:1;stroke:none;stroke-width:5;stroke-linecap:round;stroke-linejoin:round;stroke-miterlimit:4;stroke-dasharray:none;stroke-dashoffset:0;stroke-opacity:1"
         id="rect90808-9-3"
         width="183.2639"
         height="286.61984"
         x="1067.2368"
         y="2274.9014"
         rx="2.0539536"
         ry="2.088433" />
    </clipPath>
    <clipPath
       id="clipPath171994-75-7"
       clipPathUnits="userSpaceOnUse">
      <rect
         ry="2.088433"
         rx="2.088433"
         y="2285.3784"
         x="1154.7113"
         height="215.52615"
         width="360.70697"
         id="rect171996-3-5"
         style="opacity:0.66000001;fill:#00b0ff;fill-opacity:1;stroke:none;stroke-width:5;stroke-linecap:round;stroke-linejoin:round;stroke-miterlimit:4;stroke-dasharray:none;stroke-dashoffset:0;stroke-opacity:1" />
    </clipPath>
    <clipPath
       id="clipPath90806-5-9"
       clipPathUnits="userSpaceOnUse">
      <rect
         ry="2.088433"
         rx="2.0539536"
         y="2274.9014"
         x="1067.2368"
         height="286.61984"
         width="183.2639"
         id="rect90808-6-2"
         style="opacity:0.66000001;fill:#00b0ff;fill-opacity:1;stroke:none;stroke-width:5;stroke-linecap:round;stroke-linejoin:round;stroke-miterlimit:4;stroke-dasharray:none;stroke-dashoffset:0;stroke-opacity:1" />
    </clipPath>
    <clipPath
       clipPathUnits="userSpaceOnUse"
       id="clipPath171994-7-1-2">
      <rect
         style="opacity:0.66000001;fill:#00b0ff;fill-opacity:1;stroke:none;stroke-width:5;stroke-linecap:round;stroke-linejoin:round;stroke-miterlimit:4;stroke-dasharray:none;stroke-dashoffset:0;stroke-opacity:1"
         id="rect171996-5-2-8"
         width="360.70697"
         height="215.52615"
         x="1154.7113"
         y="2285.3784"
         rx="2.088433"
         ry="2.088433" />
    </clipPath>
    <clipPath
       clipPathUnits="userSpaceOnUse"
       id="clipPath90806-3-7-9">
      <rect
         style="opacity:0.66000001;fill:#00b0ff;fill-opacity:1;stroke:none;stroke-width:5;stroke-linecap:round;stroke-linejoin:round;stroke-miterlimit:4;stroke-dasharray:none;stroke-dashoffset:0;stroke-opacity:1"
         id="rect90808-5-0-7"
         width="183.2639"
         height="286.61984"
         x="1067.2368"
         y="2274.9014"
         rx="2.0539536"
         ry="2.088433" />
    </clipPath>
    <clipPath
       clipPathUnits="userSpaceOnUse"
       id="clipPath171994-7535-3">
      <rect
         style="opacity:0.66000001;fill:#00b0ff;fill-opacity:1;stroke:none;stroke-width:5;stroke-linecap:round;stroke-linejoin:round;stroke-miterlimit:4;stroke-dasharray:none;stroke-dashoffset:0;stroke-opacity:1"
         id="rect171996-6-6"
         width="360.70697"
         height="215.52615"
         x="1154.7113"
         y="2285.3784"
         rx="2.088433"
         ry="2.088433" />
    </clipPath>
    <clipPath
       clipPathUnits="userSpaceOnUse"
       id="clipPath90806-29-1">
      <rect
         style="opacity:0.66000001;fill:#00b0ff;fill-opacity:1;stroke:none;stroke-width:5;stroke-linecap:round;stroke-linejoin:round;stroke-miterlimit:4;stroke-dasharray:none;stroke-dashoffset:0;stroke-opacity:1"
         id="rect90808-1-2"
         width="183.2639"
         height="286.61984"
         x="1067.2368"
         y="2274.9014"
         rx="2.0539536"
         ry="2.088433" />
    </clipPath>
    <clipPath
       id="clipPath171994-7-2-9"
       clipPathUnits="userSpaceOnUse">
      <rect
         ry="2.088433"
         rx="2.088433"
         y="2285.3784"
         x="1154.7113"
         height="215.52615"
         width="360.70697"
         id="rect171996-5-7-3"
         style="opacity:0.66000001;fill:#00b0ff;fill-opacity:1;stroke:none;stroke-width:5;stroke-linecap:round;stroke-linejoin:round;stroke-miterlimit:4;stroke-dasharray:none;stroke-dashoffset:0;stroke-opacity:1" />
    </clipPath>
    <clipPath
       id="clipPath90806-3-0-1"
       clipPathUnits="userSpaceOnUse">
      <rect
         ry="2.088433"
         rx="2.0539536"
         y="2274.9014"
         x="1067.2368"
         height="286.61984"
         width="183.2639"
         id="rect90808-5-9-9"
         style="opacity:0.66000001;fill:#00b0ff;fill-opacity:1;stroke:none;stroke-width:5;stroke-linecap:round;stroke-linejoin:round;stroke-miterlimit:4;stroke-dasharray:none;stroke-dashoffset:0;stroke-opacity:1" />
    </clipPath>
    <clipPath
       id="clipPath171994-753-3-4"
       clipPathUnits="userSpaceOnUse">
      <rect
         ry="2.088433"
         rx="2.088433"
         y="2285.3784"
         x="1154.7113"
         height="215.52615"
         width="360.70697"
         id="rect171996-56-6-7"
         style="opacity:0.66000001;fill:#00b0ff;fill-opacity:1;stroke:none;stroke-width:5;stroke-linecap:round;stroke-linejoin:round;stroke-miterlimit:4;stroke-dasharray:none;stroke-dashoffset:0;stroke-opacity:1" />
    </clipPath>
    <clipPath
       id="clipPath90806-2-0-8"
       clipPathUnits="userSpaceOnUse">
      <rect
         ry="2.088433"
         rx="2.0539536"
         y="2274.9014"
         x="1067.2368"
         height="286.61984"
         width="183.2639"
         id="rect90808-9-6-4"
         style="opacity:0.66000001;fill:#00b0ff;fill-opacity:1;stroke:none;stroke-width:5;stroke-linecap:round;stroke-linejoin:round;stroke-miterlimit:4;stroke-dasharray:none;stroke-dashoffset:0;stroke-opacity:1" />
    </clipPath>
    <clipPath
       clipPathUnits="userSpaceOnUse"
       id="clipPath171994-75-2-5">
      <rect
         style="opacity:0.66000001;fill:#00b0ff;fill-opacity:1;stroke:none;stroke-width:5;stroke-linecap:round;stroke-linejoin:round;stroke-miterlimit:4;stroke-dasharray:none;stroke-dashoffset:0;stroke-opacity:1"
         id="rect171996-3-6-0"
         width="360.70697"
         height="215.52615"
         x="1154.7113"
         y="2285.3784"
         rx="2.088433"
         ry="2.088433" />
    </clipPath>
    <clipPath
       clipPathUnits="userSpaceOnUse"
       id="clipPath90806-5-1-3">
      <rect
         style="opacity:0.66000001;fill:#00b0ff;fill-opacity:1;stroke:none;stroke-width:5;stroke-linecap:round;stroke-linejoin:round;stroke-miterlimit:4;stroke-dasharray:none;stroke-dashoffset:0;stroke-opacity:1"
         id="rect90808-6-8-6"
         width="183.2639"
         height="286.61984"
         x="1067.2368"
         y="2274.9014"
         rx="2.0539536"
         ry="2.088433" />
    </clipPath>
    <clipPath
       id="clipPath171994-7-1-7-1"
       clipPathUnits="userSpaceOnUse">
      <rect
         ry="2.088433"
         rx="2.088433"
         y="2285.3784"
         x="1154.7113"
         height="215.52615"
         width="360.70697"
         id="rect171996-5-2-9-0"
         style="opacity:0.66000001;fill:#00b0ff;fill-opacity:1;stroke:none;stroke-width:5;stroke-linecap:round;stroke-linejoin:round;stroke-miterlimit:4;stroke-dasharray:none;stroke-dashoffset:0;stroke-opacity:1" />
    </clipPath>
    <clipPath
       id="clipPath90806-3-7-2-6"
       clipPathUnits="userSpaceOnUse">
      <rect
         ry="2.088433"
         rx="2.0539536"
         y="2274.9014"
         x="1067.2368"
         height="286.61984"
         width="183.2639"
         id="rect90808-5-0-0-3"
         style="opacity:0.66000001;fill:#00b0ff;fill-opacity:1;stroke:none;stroke-width:5;stroke-linecap:round;stroke-linejoin:round;stroke-miterlimit:4;stroke-dasharray:none;stroke-dashoffset:0;stroke-opacity:1" />
    </clipPath>
  </defs>
  <sodipodi:namedview
     id="base"
     pagecolor="#000000"
     bordercolor="#666666"
     borderopacity="1.0"
     inkscape:pageopacity="0"
     inkscape:pageshadow="2"
     inkscape:zoom="1.4437757"
     inkscape:cx="183.98425"
     inkscape:cy="123.0108"
     inkscape:document-units="cm"
     inkscape:current-layer="layer1"
     showgrid="false"
     inkscape:window-width="1329"
     inkscape:window-height="744"
     inkscape:window-x="37"
     inkscape:window-y="24"
     inkscape:window-maximized="1"
     units="cm"
     inkscape:showpageshadow="false"
     inkscape:snap-bbox="true"
     inkscape:bbox-nodes="true"
     inkscape:snap-global="false"
     inkscape:object-paths="true"
     inkscape:snap-intersection-paths="true"
     inkscape:object-nodes="true" />
  <metadata
     id="metadata90848">
    <rdf:RDF>
      <cc:Work
         rdf:about="">
        <dc:format>image/svg+xml</dc:format>
        <dc:type
           rdf:resource="http://purl.org/dc/dcmitype/StillImage" />
        <dc:title></dc:title>
      </cc:Work>
    </rdf:RDF>
  </metadata>
  <g
     inkscape:label="Layer 1"
     inkscape:groupmode="layer"
     id="layer1"
     transform="translate(0,-247.00003)">
    <g
       id="g5282"
       transform="matrix(1.434504,0,0,1.434504,-3.7230804,-125.35762)">
      <path
         inkscape:connector-curvature="0"
         id="path5082"
         d="m 33.521573,259.57241 c -0.39719,-9e-5 -0.7635,0.0853 -1.119141,0.19531 -2.074091,0.29336 -4.093212,0.8345 -6.005864,1.58008 -3.604632,1.13737 -7.052935,2.62588 -10.375007,4.29492 -3.604633,1.76343 -8.0432654,2.95581 -11.2871072,8.18555 -1.9542619,3.15066 -1.278761,6.79069 0.16211,9.25976 0.72043,1.23454 1.6173609,2.27887 2.9746018,2.83008 0.17443,0.0708 0.41306,-0.009 0.60743,0.0371 -0.16417,0.46663 -0.2795,0.99513 -0.20508,1.62695 0.396511,3.36651 3.0641314,5.41583 5.2558534,6.51172 0.896261,0.45098 1.798461,0.3921 2.531252,0.13477 a 2.0001998,2.0001998 0 0 0 0.35156,-0.16211 c 2.078142,-1.22008 5.104774,-1.81093 8.054696,-3.49414 0.0608,0.14526 0.0385,0.18111 0.13477,0.35351 0.35635,0.63835 1.353991,1.47044 2.400392,1.53516 a 2.0001998,2.0001998 0 0 0 1.27734,-0.36328 c 2.328192,-1.64352 4.626974,-3.37348 6.820315,-5.26758 a 2.0001998,2.0001998 0 0 0 0.11133,-0.10352 c 3.099093,-3.11471 5.591974,-6.73791 7.664066,-10.49218 0.53531,-0.85715 0.91775,-2.09231 0.30274,-3.22461 -0.61984,-1.1412 -1.704241,-1.41598 -2.468752,-1.48633 -0.40569,-0.0373 -0.76837,0.0601 -1.150391,0.0898 0.188571,-0.41132 0.506061,-0.94673 0.863281,-1.73242 0.40558,-0.89205 0.799451,-2.18467 0.40039,-3.58203 a 2.0001998,2.0001998 0 0 0 -0.49805,-0.85547 c -1.072871,-1.08883 -2.569312,-1.32018 -3.648433,-1.24023 -0.0854,0.006 -0.11829,0.0304 -0.20118,0.0391 0.0956,-0.47305 0.16162,-0.95249 0.13086,-1.4707 -0.0368,-0.61937 -0.17084,-1.31111 -0.67187,-1.99414 -0.32607,-0.44451 -0.875901,-0.75422 -1.462891,-0.96289 a 2.0001998,2.0001998 0 0 0 -0.949221,-0.24219 z"
         style="color:#000000;font-style:normal;font-variant:normal;font-weight:normal;font-stretch:normal;font-size:medium;line-height:normal;font-family:sans-serif;text-indent:0;text-align:start;text-decoration:none;text-decoration-line:none;text-decoration-style:solid;text-decoration-color:#000000;letter-spacing:normal;word-spacing:normal;text-transform:none;direction:ltr;block-progression:tb;writing-mode:lr-tb;baseline-shift:baseline;text-anchor:start;white-space:normal;clip-rule:nonzero;display:inline;overflow:visible;visibility:visible;opacity:1;isolation:auto;mix-blend-mode:normal;color-interpolation:sRGB;color-interpolation-filters:linearRGB;solid-color:#000000;solid-opacity:1;fill:#ffffff;fill-opacity:1;fill-rule:nonzero;stroke:none;stroke-width:3.99999952;stroke-linecap:round;stroke-linejoin:round;stroke-miterlimit:4;stroke-dasharray:none;stroke-dashoffset:0;stroke-opacity:1;color-rendering:auto;image-rendering:auto;shape-rendering:auto;text-rendering:auto;enable-background:accumulate" />
      <g
         transform="translate(-0.52354503,-3.5726974)"
         id="g5218">
        <path
           sodipodi:nodetypes="ccccccccccccccccccccccccc"
           inkscape:connector-curvature="0"
           id="path172262-2"
           d="m 34.044316,265.14425 c -0.178811,-2e-5 -0.382509,0.0359 -0.613003,0.11466 -1.986882,0.25848 -3.939732,0.80073 -5.812143,1.53266 -3.509977,1.09995 -6.891665,2.56012 -10.176511,4.21045 -3.844698,1.88416 -8.2132174,3.57377 -10.4852354,7.45251 -1.7402512,2.72089 0.030229,5.64117 2.1075951,7.77945 0.5112459,1.27908 2.1534073,0.481 2.8690363,-0.6776 1.144797,-1.82277 1.102963,1.16917 1.809245,2.07874 1.194976,-0.46052 0.830794,-3.47672 2.465941,-2.45369 0.624059,2.81826 2.255889,-1.07568 3.533744,-0.85417 0.02551,1.42346 0.0014,3.82521 -1.675173,4.234 -1.528014,-2.30406 -1.46268,1.47621 -3.509596,1.54673 -1.542716,-0.91665 -3.862875,-1.33268 -3.360123,1.08083 0.04258,2.21666 1.918036,3.77467 3.751954,4.69103 0.300968,0.15222 0.659394,0.14439 0.97195,0.0346 2.840664,-1.66777 6.29391,-2.02994 9.025014,-3.9352 1.852942,-1.90568 1.133442,1.96076 2.702676,2.05782 2.294223,-1.61953 4.540239,-3.31205 6.666468,-5.14818 2.9526,-2.9675 5.366522,-6.46337 7.381542,-10.12733 1.39941,-2.21521 -2.10585,-1.95984 -3.068131,-0.8607 -2.264629,1.17606 -1.2383,-2.2696 -0.531974,-3.19761 0.527573,-1.37581 1.767393,-2.73541 1.325558,-4.28259 -1.142691,-1.1597 -2.946831,-0.50479 -4.339626,-0.20043 -1.634311,0.66096 -1.326952,-0.9457 -0.506194,-1.67666 0.733108,-1.01698 0.923001,-3.39922 -0.533014,-3.39938 z"
           style="opacity:1;fill:#ef5350;fill-opacity:1;stroke-width:11.96073818" />
        <path
           id="path172264-9"
           d="m 34.044316,265.14424 c -0.178811,-2e-5 -0.382509,0.0359 -0.613003,0.11467 -1.986882,0.25848 -3.939732,0.80073 -5.812143,1.53266 -3.509977,1.09994 -6.891665,2.56012 -10.176511,4.21045 -3.844698,1.88416 -8.2132174,3.57376 -10.4852354,7.45251 -0.4365895,0.6826 -0.652194,1.37775 -0.6974457,2.06996 -0.0029,0.0446 -0.00499,0.0891 -0.00655,0.13362 0.00628,0.33308 0.1807795,1.15279 1.8107205,0.80588 2.0245486,-0.43092 1.8636799,-2.09352 3.9553506,-1.87901 2.091672,0.21454 0.793282,-2.60874 3.915206,-2.3061 3.121927,0.30263 3.695215,-0.34382 4.567616,-1.40097 0.872401,-1.05712 2.030083,-0.47739 3.799507,-0.82544 1.769423,-0.34801 1.410655,-3.41268 3.91476,-3.08324 2.504102,0.32947 5.072107,-1.10469 5.072107,-1.10469 0,0 0.347471,-0.49557 0.330436,-1.39063 0.0274,-0.0959 0.860734,-1.1859 0.860734,-1.1859 0.311849,-0.8181 0.669873,-0.81575 0.645993,-1.89405 -0.05864,-0.69116 -0.376918,-1.24963 -1.081577,-1.24972 z"
           style="opacity:1;fill:#692323;fill-opacity:1;stroke-width:11.96073818"
           inkscape:connector-curvature="0"
           sodipodi:nodetypes="sccccccccsscsccccs" />
        <path
           inkscape:connector-curvature="0"
           id="path172266-7"
           d="m 22.814565,272.14195 c -2.527448,0.19597 -4.854097,2.53226 -4.556474,5.12869 0.882016,2.27787 4.369314,1.90142 5.709871,0.23628 1.333073,-1.4863 1.169081,-4.23303 -0.603573,-5.27203 -0.175081,-0.0667 -0.363133,-0.0935 -0.549824,-0.0929 z"
           style="opacity:1;fill:#692323;fill-opacity:1;stroke-width:3.16461182" />
        <path
           sodipodi:nodetypes="ccccc"
           inkscape:connector-curvature="0"
           id="path172274-3"
           d="m 20.107371,281.84378 c 6.665119,-6.76968 12.410115,3.48529 -0.222312,7.43238 l 1.476289,-4.01574 -1.900847,-3.06986 z"
           style="fill:#692323;fill-opacity:1;fill-rule:evenodd;stroke:none;stroke-width:0.83730352px;stroke-linecap:butt;stroke-linejoin:miter;stroke-opacity:1" />
        <path
           style="opacity:1;fill:#692323;fill-opacity:1;stroke-width:3.16461182"
           d="m 27.96168,275.3723 c -0.831599,0.0644 -1.597121,0.83315 -1.499194,1.68745 0.290224,0.74944 1.437617,0.6256 1.878687,0.0777 0.438604,-0.48901 0.384653,-1.39276 -0.198604,-1.73461 -0.05759,-0.0218 -0.119484,-0.0308 -0.180889,-0.0306 z"
           id="path172280-1"
           inkscape:connector-curvature="0" />
        <path
           inkscape:connector-curvature="0"
           id="path172282-2"
           d="m 31.905763,277.68566 c -0.83157,0.0645 -1.597092,0.83315 -1.499166,1.68745 0.290195,0.74944 1.437589,0.6256 1.878659,0.0777 0.438603,-0.489 0.384653,-1.39275 -0.198605,-1.73461 -0.05759,-0.0218 -0.119455,-0.0308 -0.180888,-0.0306 z"
           style="opacity:1;fill:#692323;fill-opacity:1;stroke-width:3.16461182" />
        <path
           style="opacity:1;fill:#692323;fill-opacity:1;stroke-width:3.16461182"
           d="m 28.882778,278.48223 c -0.831571,0.0645 -1.597092,0.83315 -1.499166,1.68745 0.290195,0.74944 1.437589,0.6256 1.878658,0.0777 0.438604,-0.48901 0.384653,-1.39276 -0.198576,-1.73461 -0.05762,-0.0218 -0.119483,-0.0308 -0.180916,-0.0306 z"
           id="path172284-9"
           inkscape:connector-curvature="0" />
        <path
           id="path172278-6"
           d="m 34.044316,265.14422 c -0.178795,-2e-5 -0.382503,0.0359 -0.613014,0.11467 -1.986876,0.25849 -3.939725,0.80073 -5.812134,1.53268 -3.50998,1.09992 -6.891674,2.5601 -10.176503,4.21043 -3.844695,1.88416 -7.5818593,2.77166 -10.4852468,7.45251 -2.9033868,4.68085 2.0340907,11.66492 4.1233368,8.54298 1.144814,-1.82279 1.956261,-0.27194 2.662556,0.6376 1.194953,-0.4605 0.830797,-3.47672 2.46593,-2.45368 0.624051,2.81827 2.255887,-1.07567 3.533745,-0.85416 0.02551,1.42345 0.0029,3.8252 -1.675182,4.23399 -1.528005,-2.30408 -1.362023,0.75569 -2.805546,1.13458 -1.497618,-0.58922 -3.347954,-0.92958 -3.347954,-0.92958 0,0 -1.266076,1.01489 -1.131856,2.15443 0.273855,2.32512 2.333688,4.04281 4.167598,4.95915 0.300975,0.15222 0.659397,0.14439 0.971953,0.0346 2.840663,-1.66776 6.29391,-2.02994 9.025009,-3.9352 2.175305,-1.07134 1.133433,1.96076 2.70269,2.05783 2.294215,-1.61954 4.54024,-3.31204 6.666466,-5.14818 2.952609,-2.96749 5.366508,-6.46337 7.381537,-10.12734 1.399402,-2.21521 -2.105845,-1.95984 -3.06814,-0.8607 -2.264629,1.17607 -1.238295,-2.26959 -0.531969,-3.19759 0.527587,-1.37582 1.767402,-2.73543 1.325558,-4.28261 -1.142691,-1.15969 -2.946817,-0.50477 -4.339629,-0.20042 -1.634302,0.66095 -1.326964,-0.94569 -0.506201,-1.67667 0.733128,-1.01699 0.923018,-3.39921 -0.533004,-3.39938 z m -2.229055,2.5892 c 1.667412,0.42029 -0.238968,2.22429 -0.729143,3.03792 -1.201833,1.13444 0.02523,2.71958 1.455764,2.03604 1.450834,-0.2189 3.010286,-0.62622 4.417832,0.005 -0.607079,2.35286 -2.501877,4.38395 -2.277502,6.92469 0.593635,1.46035 2.499614,0.85878 3.678485,0.6004 -3.218494,4.8727 -5.871161,7.37389 -9.671077,10.57206 -0.339389,-0.74537 0.05688,-2.37569 -1.416491,-2.12242 -1.396825,0.21334 -2.276928,1.47621 -3.634938,1.87026 -2.766073,1.25165 -5.306335,2.01239 -8.122001,3.13479 -1.587662,0.83819 -2.592753,-2.63925 -2.592753,-2.63925 0,0 1.467604,0.35836 1.904287,0.53139 1.146334,0.44988 1.643246,-0.86189 2.252447,-1.85724 0.765149,0.51916 1.98077,1.44562 2.581715,0.006 0.564309,-1.01862 1.319166,-2.85386 1.699376,-4.57249 0.199694,-1.31854 -0.24384,-3.20746 -1.63605,-3.56336 -0.929955,0.21277 -1.978477,2.96092 -2.631137,1.23147 -0.746029,-1.85113 -2.268816,1.069 -2.943693,1.87545 -0.885522,0.6862 -1.216051,-2.43594 -2.299146,-1.22287 -0.467987,0.56431 -1.640952,1.81757 -1.640952,1.81757 l -1.5304701,-1.85074 c -1.4893905,-1.80112 -0.059912,-4.90666 1.6842111,-6.3187 6.290958,-4.00243 11.423113,-6.97496 21.451236,-9.49576 z"
           style="opacity:1;fill:#692323;fill-opacity:1;stroke-width:3.16461182"
           inkscape:connector-curvature="0"
           sodipodi:nodetypes="cccczcccccccsccccccccccccccccccccccccccccccccscc" />
        <path
           inkscape:connector-curvature="0"
           id="path172270-3"
           d="m 22.073789,274.51959 c 0.185848,0.0159 0.361103,0.25254 0.446496,0.4028 0.143317,0.27575 0.394646,0.57784 0.280578,0.90736 -0.253169,0.42271 -0.705318,0.67322 -1.136681,0.88202 -0.221169,0.0919 -0.441125,0.19009 -0.673447,0.25095 -0.226211,0.078 -0.523083,0.0727 -0.656114,-0.16087 -0.151557,-0.30517 0.01608,-0.65084 0.167693,-0.92395 0.244557,-0.38433 0.495708,-0.78895 0.8724,-1.05713 0.174539,-0.0766 0.290067,-0.19404 0.512714,-0.232 0.06137,-0.0551 0.124412,-0.0744 0.186361,-0.0692 z"
           style="opacity:1;fill:#ffffff;fill-opacity:1;stroke-width:3.16461182"
           sodipodi:nodetypes="cccccccccc" />
        <path
           inkscape:connector-curvature="0"
           style="fill:#ffa726;fill-opacity:1;fill-rule:evenodd;stroke:none;stroke-width:0.83730352px;stroke-linecap:butt;stroke-linejoin:miter;stroke-opacity:1"
           d="m 24.127443,281.26947 c -1.110953,-0.0204 -2.446768,0.89763 -3.004217,1.80902 0.273114,0.69004 0.339915,1.50975 0.238095,2.18204 -0.161659,0.73074 -0.392653,1.47915 -0.646329,2.18031 2.414127,-0.22088 5.684458,-4.84724 4.191717,-5.9876 -0.16839,-0.14201 -0.396729,-0.18847 -0.612103,-0.17336 -0.05509,-0.006 -0.110782,-0.009 -0.167163,-0.0105 z"
           id="path172276-1" />
      </g>
    </g>
  </g>
</svg>
