<?xml version="1.0" encoding="UTF-8" standalone="no"?>
<!-- Created with Inkscape (http://www.inkscape.org/) -->

<svg
   xmlns:dc="http://purl.org/dc/elements/1.1/"
   xmlns:cc="http://creativecommons.org/ns#"
   xmlns:rdf="http://www.w3.org/1999/02/22-rdf-syntax-ns#"
   xmlns:svg="http://www.w3.org/2000/svg"
   xmlns="http://www.w3.org/2000/svg"
   xmlns:sodipodi="http://sodipodi.sourceforge.net/DTD/sodipodi-0.dtd"
   xmlns:inkscape="http://www.inkscape.org/namespaces/inkscape"
   width="6cm"
   height="4cm"
   viewBox="0 0 59.999995 39.999998"
   version="1.1"
   id="svg90851"
   inkscape:version="0.91 r13725"
   sodipodi:docname="text.svg"
   inkscape:export-filename="/home/mhaidarh/all/org/impactbyte/repo/brand/logo/impactbyte_logo_red_square.svg.png"
   inkscape:export-xdpi="90"
   inkscape:export-ydpi="90">
  <defs
     id="defs90845">
    <clipPath
       clipPathUnits="userSpaceOnUse"
       id="clipPath171994">
      <rect
         style="opacity:0.66000001;fill:#00b0ff;fill-opacity:1;stroke:none;stroke-width:5;stroke-linecap:round;stroke-linejoin:round;stroke-miterlimit:4;stroke-dasharray:none;stroke-dashoffset:0;stroke-opacity:1"
         id="rect171996"
         width="360.70697"
         height="215.52615"
         x="1154.7113"
         y="2285.3784"
         rx="2.088433"
         ry="2.088433" />
    </clipPath>
    <clipPath
       clipPathUnits="userSpaceOnUse"
       id="clipPath90806">
      <rect
         style="opacity:0.66000001;fill:#00b0ff;fill-opacity:1;stroke:none;stroke-width:5;stroke-linecap:round;stroke-linejoin:round;stroke-miterlimit:4;stroke-dasharray:none;stroke-dashoffset:0;stroke-opacity:1"
         id="rect90808"
         width="183.2639"
         height="286.61984"
         x="1067.2368"
         y="2274.9014"
         rx="2.0539536"
         ry="2.088433" />
    </clipPath>
    <clipPath
       id="clipPath171994-7"
       clipPathUnits="userSpaceOnUse">
      <rect
         ry="2.088433"
         rx="2.088433"
         y="2285.3784"
         x="1154.7113"
         height="215.52615"
         width="360.70697"
         id="rect171996-5"
         style="opacity:0.66000001;fill:#00b0ff;fill-opacity:1;stroke:none;stroke-width:5;stroke-linecap:round;stroke-linejoin:round;stroke-miterlimit:4;stroke-dasharray:none;stroke-dashoffset:0;stroke-opacity:1" />
    </clipPath>
    <clipPath
       id="clipPath90806-3"
       clipPathUnits="userSpaceOnUse">
      <rect
         ry="2.088433"
         rx="2.0539536"
         y="2274.9014"
         x="1067.2368"
         height="286.61984"
         width="183.2639"
         id="rect90808-5"
         style="opacity:0.66000001;fill:#00b0ff;fill-opacity:1;stroke:none;stroke-width:5;stroke-linecap:round;stroke-linejoin:round;stroke-miterlimit:4;stroke-dasharray:none;stroke-dashoffset:0;stroke-opacity:1" />
    </clipPath>
    <clipPath
       id="clipPath171994-753"
       clipPathUnits="userSpaceOnUse">
      <rect
         ry="2.088433"
         rx="2.088433"
         y="2285.3784"
         x="1154.7113"
         height="215.52615"
         width="360.70697"
         id="rect171996-56"
         style="opacity:0.66000001;fill:#00b0ff;fill-opacity:1;stroke:none;stroke-width:5;stroke-linecap:round;stroke-linejoin:round;stroke-miterlimit:4;stroke-dasharray:none;stroke-dashoffset:0;stroke-opacity:1" />
    </clipPath>
    <clipPath
       id="clipPath90806-2"
       clipPathUnits="userSpaceOnUse">
      <rect
         ry="2.088433"
         rx="2.0539536"
         y="2274.9014"
         x="1067.2368"
         height="286.61984"
         width="183.2639"
         id="rect90808-9"
         style="opacity:0.66000001;fill:#00b0ff;fill-opacity:1;stroke:none;stroke-width:5;stroke-linecap:round;stroke-linejoin:round;stroke-miterlimit:4;stroke-dasharray:none;stroke-dashoffset:0;stroke-opacity:1" />
    </clipPath>
    <clipPath
       clipPathUnits="userSpaceOnUse"
       id="clipPath171994-75">
      <rect
         style="opacity:0.66000001;fill:#00b0ff;fill-opacity:1;stroke:none;stroke-width:5;stroke-linecap:round;stroke-linejoin:round;stroke-miterlimit:4;stroke-dasharray:none;stroke-dashoffset:0;stroke-opacity:1"
         id="rect171996-3"
         width="360.70697"
         height="215.52615"
         x="1154.7113"
         y="2285.3784"
         rx="2.088433"
         ry="2.088433" />
    </clipPath>
    <clipPath
       clipPathUnits="userSpaceOnUse"
       id="clipPath90806-5">
      <rect
         style="opacity:0.66000001;fill:#00b0ff;fill-opacity:1;stroke:none;stroke-width:5;stroke-linecap:round;stroke-linejoin:round;stroke-miterlimit:4;stroke-dasharray:none;stroke-dashoffset:0;stroke-opacity:1"
         id="rect90808-6"
         width="183.2639"
         height="286.61984"
         x="1067.2368"
         y="2274.9014"
         rx="2.0539536"
         ry="2.088433" />
    </clipPath>
    <clipPath
       id="clipPath171994-7-1"
       clipPathUnits="userSpaceOnUse">
      <rect
         ry="2.088433"
         rx="2.088433"
         y="2285.3784"
         x="1154.7113"
         height="215.52615"
         width="360.70697"
         id="rect171996-5-2"
         style="opacity:0.66000001;fill:#00b0ff;fill-opacity:1;stroke:none;stroke-width:5;stroke-linecap:round;stroke-linejoin:round;stroke-miterlimit:4;stroke-dasharray:none;stroke-dashoffset:0;stroke-opacity:1" />
    </clipPath>
    <clipPath
       id="clipPath90806-3-7"
       clipPathUnits="userSpaceOnUse">
      <rect
         ry="2.088433"
         rx="2.0539536"
         y="2274.9014"
         x="1067.2368"
         height="286.61984"
         width="183.2639"
         id="rect90808-5-0"
         style="opacity:0.66000001;fill:#00b0ff;fill-opacity:1;stroke:none;stroke-width:5;stroke-linecap:round;stroke-linejoin:round;stroke-miterlimit:4;stroke-dasharray:none;stroke-dashoffset:0;stroke-opacity:1" />
    </clipPath>
    <clipPath
       id="clipPath171994-7535"
       clipPathUnits="userSpaceOnUse">
      <rect
         ry="2.088433"
         rx="2.088433"
         y="2285.3784"
         x="1154.7113"
         height="215.52615"
         width="360.70697"
         id="rect171996-6"
         style="opacity:0.66000001;fill:#00b0ff;fill-opacity:1;stroke:none;stroke-width:5;stroke-linecap:round;stroke-linejoin:round;stroke-miterlimit:4;stroke-dasharray:none;stroke-dashoffset:0;stroke-opacity:1" />
    </clipPath>
    <clipPath
       id="clipPath90806-29"
       clipPathUnits="userSpaceOnUse">
      <rect
         ry="2.088433"
         rx="2.0539536"
         y="2274.9014"
         x="1067.2368"
         height="286.61984"
         width="183.2639"
         id="rect90808-1"
         style="opacity:0.66000001;fill:#00b0ff;fill-opacity:1;stroke:none;stroke-width:5;stroke-linecap:round;stroke-linejoin:round;stroke-miterlimit:4;stroke-dasharray:none;stroke-dashoffset:0;stroke-opacity:1" />
    </clipPath>
    <clipPath
       clipPathUnits="userSpaceOnUse"
       id="clipPath171994-7-2">
      <rect
         style="opacity:0.66000001;fill:#00b0ff;fill-opacity:1;stroke:none;stroke-width:5;stroke-linecap:round;stroke-linejoin:round;stroke-miterlimit:4;stroke-dasharray:none;stroke-dashoffset:0;stroke-opacity:1"
         id="rect171996-5-7"
         width="360.70697"
         height="215.52615"
         x="1154.7113"
         y="2285.3784"
         rx="2.088433"
         ry="2.088433" />
    </clipPath>
    <clipPath
       clipPathUnits="userSpaceOnUse"
       id="clipPath90806-3-0">
      <rect
         style="opacity:0.66000001;fill:#00b0ff;fill-opacity:1;stroke:none;stroke-width:5;stroke-linecap:round;stroke-linejoin:round;stroke-miterlimit:4;stroke-dasharray:none;stroke-dashoffset:0;stroke-opacity:1"
         id="rect90808-5-9"
         width="183.2639"
         height="286.61984"
         x="1067.2368"
         y="2274.9014"
         rx="2.0539536"
         ry="2.088433" />
    </clipPath>
    <clipPath
       clipPathUnits="userSpaceOnUse"
       id="clipPath171994-753-3">
      <rect
         style="opacity:0.66000001;fill:#00b0ff;fill-opacity:1;stroke:none;stroke-width:5;stroke-linecap:round;stroke-linejoin:round;stroke-miterlimit:4;stroke-dasharray:none;stroke-dashoffset:0;stroke-opacity:1"
         id="rect171996-56-6"
         width="360.70697"
         height="215.52615"
         x="1154.7113"
         y="2285.3784"
         rx="2.088433"
         ry="2.088433" />
    </clipPath>
    <clipPath
       clipPathUnits="userSpaceOnUse"
       id="clipPath90806-2-0">
      <rect
         style="opacity:0.66000001;fill:#00b0ff;fill-opacity:1;stroke:none;stroke-width:5;stroke-linecap:round;stroke-linejoin:round;stroke-miterlimit:4;stroke-dasharray:none;stroke-dashoffset:0;stroke-opacity:1"
         id="rect90808-9-6"
         width="183.2639"
         height="286.61984"
         x="1067.2368"
         y="2274.9014"
         rx="2.0539536"
         ry="2.088433" />
    </clipPath>
    <clipPath
       id="clipPath171994-75-2"
       clipPathUnits="userSpaceOnUse">
      <rect
         ry="2.088433"
         rx="2.088433"
         y="2285.3784"
         x="1154.7113"
         height="215.52615"
         width="360.70697"
         id="rect171996-3-6"
         style="opacity:0.66000001;fill:#00b0ff;fill-opacity:1;stroke:none;stroke-width:5;stroke-linecap:round;stroke-linejoin:round;stroke-miterlimit:4;stroke-dasharray:none;stroke-dashoffset:0;stroke-opacity:1" />
    </clipPath>
    <clipPath
       id="clipPath90806-5-1"
       clipPathUnits="userSpaceOnUse">
      <rect
         ry="2.088433"
         rx="2.0539536"
         y="2274.9014"
         x="1067.2368"
         height="286.61984"
         width="183.2639"
         id="rect90808-6-8"
         style="opacity:0.66000001;fill:#00b0ff;fill-opacity:1;stroke:none;stroke-width:5;stroke-linecap:round;stroke-linejoin:round;stroke-miterlimit:4;stroke-dasharray:none;stroke-dashoffset:0;stroke-opacity:1" />
    </clipPath>
    <clipPath
       clipPathUnits="userSpaceOnUse"
       id="clipPath171994-7-1-7">
      <rect
         style="opacity:0.66000001;fill:#00b0ff;fill-opacity:1;stroke:none;stroke-width:5;stroke-linecap:round;stroke-linejoin:round;stroke-miterlimit:4;stroke-dasharray:none;stroke-dashoffset:0;stroke-opacity:1"
         id="rect171996-5-2-9"
         width="360.70697"
         height="215.52615"
         x="1154.7113"
         y="2285.3784"
         rx="2.088433"
         ry="2.088433" />
    </clipPath>
    <clipPath
       clipPathUnits="userSpaceOnUse"
       id="clipPath90806-3-7-2">
      <rect
         style="opacity:0.66000001;fill:#00b0ff;fill-opacity:1;stroke:none;stroke-width:5;stroke-linecap:round;stroke-linejoin:round;stroke-miterlimit:4;stroke-dasharray:none;stroke-dashoffset:0;stroke-opacity:1"
         id="rect90808-5-0-0"
         width="183.2639"
         height="286.61984"
         x="1067.2368"
         y="2274.9014"
         rx="2.0539536"
         ry="2.088433" />
    </clipPath>
    <clipPath
       id="clipPath171994-6"
       clipPathUnits="userSpaceOnUse">
      <rect
         ry="2.088433"
         rx="2.088433"
         y="2285.3784"
         x="1154.7113"
         height="215.52615"
         width="360.70697"
         id="rect171996-0"
         style="opacity:0.66000001;fill:#00b0ff;fill-opacity:1;stroke:none;stroke-width:5;stroke-linecap:round;stroke-linejoin:round;stroke-miterlimit:4;stroke-dasharray:none;stroke-dashoffset:0;stroke-opacity:1" />
    </clipPath>
    <clipPath
       id="clipPath90806-6"
       clipPathUnits="userSpaceOnUse">
      <rect
         ry="2.088433"
         rx="2.0539536"
         y="2274.9014"
         x="1067.2368"
         height="286.61984"
         width="183.2639"
         id="rect90808-2"
         style="opacity:0.66000001;fill:#00b0ff;fill-opacity:1;stroke:none;stroke-width:5;stroke-linecap:round;stroke-linejoin:round;stroke-miterlimit:4;stroke-dasharray:none;stroke-dashoffset:0;stroke-opacity:1" />
    </clipPath>
    <clipPath
       clipPathUnits="userSpaceOnUse"
       id="clipPath171994-7-6">
      <rect
         style="opacity:0.66000001;fill:#00b0ff;fill-opacity:1;stroke:none;stroke-width:5;stroke-linecap:round;stroke-linejoin:round;stroke-miterlimit:4;stroke-dasharray:none;stroke-dashoffset:0;stroke-opacity:1"
         id="rect171996-5-1"
         width="360.70697"
         height="215.52615"
         x="1154.7113"
         y="2285.3784"
         rx="2.088433"
         ry="2.088433" />
    </clipPath>
    <clipPath
       clipPathUnits="userSpaceOnUse"
       id="clipPath90806-3-8">
      <rect
         style="opacity:0.66000001;fill:#00b0ff;fill-opacity:1;stroke:none;stroke-width:5;stroke-linecap:round;stroke-linejoin:round;stroke-miterlimit:4;stroke-dasharray:none;stroke-dashoffset:0;stroke-opacity:1"
         id="rect90808-5-7"
         width="183.2639"
         height="286.61984"
         x="1067.2368"
         y="2274.9014"
         rx="2.0539536"
         ry="2.088433" />
    </clipPath>
    <clipPath
       clipPathUnits="userSpaceOnUse"
       id="clipPath171994-753-9">
      <rect
         style="opacity:0.66000001;fill:#00b0ff;fill-opacity:1;stroke:none;stroke-width:5;stroke-linecap:round;stroke-linejoin:round;stroke-miterlimit:4;stroke-dasharray:none;stroke-dashoffset:0;stroke-opacity:1"
         id="rect171996-56-2"
         width="360.70697"
         height="215.52615"
         x="1154.7113"
         y="2285.3784"
         rx="2.088433"
         ry="2.088433" />
    </clipPath>
    <clipPath
       clipPathUnits="userSpaceOnUse"
       id="clipPath90806-2-02">
      <rect
         style="opacity:0.66000001;fill:#00b0ff;fill-opacity:1;stroke:none;stroke-width:5;stroke-linecap:round;stroke-linejoin:round;stroke-miterlimit:4;stroke-dasharray:none;stroke-dashoffset:0;stroke-opacity:1"
         id="rect90808-9-3"
         width="183.2639"
         height="286.61984"
         x="1067.2368"
         y="2274.9014"
         rx="2.0539536"
         ry="2.088433" />
    </clipPath>
    <clipPath
       id="clipPath171994-75-7"
       clipPathUnits="userSpaceOnUse">
      <rect
         ry="2.088433"
         rx="2.088433"
         y="2285.3784"
         x="1154.7113"
         height="215.52615"
         width="360.70697"
         id="rect171996-3-5"
         style="opacity:0.66000001;fill:#00b0ff;fill-opacity:1;stroke:none;stroke-width:5;stroke-linecap:round;stroke-linejoin:round;stroke-miterlimit:4;stroke-dasharray:none;stroke-dashoffset:0;stroke-opacity:1" />
    </clipPath>
    <clipPath
       id="clipPath90806-5-9"
       clipPathUnits="userSpaceOnUse">
      <rect
         ry="2.088433"
         rx="2.0539536"
         y="2274.9014"
         x="1067.2368"
         height="286.61984"
         width="183.2639"
         id="rect90808-6-2"
         style="opacity:0.66000001;fill:#00b0ff;fill-opacity:1;stroke:none;stroke-width:5;stroke-linecap:round;stroke-linejoin:round;stroke-miterlimit:4;stroke-dasharray:none;stroke-dashoffset:0;stroke-opacity:1" />
    </clipPath>
    <clipPath
       clipPathUnits="userSpaceOnUse"
       id="clipPath171994-7-1-2">
      <rect
         style="opacity:0.66000001;fill:#00b0ff;fill-opacity:1;stroke:none;stroke-width:5;stroke-linecap:round;stroke-linejoin:round;stroke-miterlimit:4;stroke-dasharray:none;stroke-dashoffset:0;stroke-opacity:1"
         id="rect171996-5-2-8"
         width="360.70697"
         height="215.52615"
         x="1154.7113"
         y="2285.3784"
         rx="2.088433"
         ry="2.088433" />
    </clipPath>
    <clipPath
       clipPathUnits="userSpaceOnUse"
       id="clipPath90806-3-7-9">
      <rect
         style="opacity:0.66000001;fill:#00b0ff;fill-opacity:1;stroke:none;stroke-width:5;stroke-linecap:round;stroke-linejoin:round;stroke-miterlimit:4;stroke-dasharray:none;stroke-dashoffset:0;stroke-opacity:1"
         id="rect90808-5-0-7"
         width="183.2639"
         height="286.61984"
         x="1067.2368"
         y="2274.9014"
         rx="2.0539536"
         ry="2.088433" />
    </clipPath>
    <clipPath
       clipPathUnits="userSpaceOnUse"
       id="clipPath171994-7535-3">
      <rect
         style="opacity:0.66000001;fill:#00b0ff;fill-opacity:1;stroke:none;stroke-width:5;stroke-linecap:round;stroke-linejoin:round;stroke-miterlimit:4;stroke-dasharray:none;stroke-dashoffset:0;stroke-opacity:1"
         id="rect171996-6-6"
         width="360.70697"
         height="215.52615"
         x="1154.7113"
         y="2285.3784"
         rx="2.088433"
         ry="2.088433" />
    </clipPath>
    <clipPath
       clipPathUnits="userSpaceOnUse"
       id="clipPath90806-29-1">
      <rect
         style="opacity:0.66000001;fill:#00b0ff;fill-opacity:1;stroke:none;stroke-width:5;stroke-linecap:round;stroke-linejoin:round;stroke-miterlimit:4;stroke-dasharray:none;stroke-dashoffset:0;stroke-opacity:1"
         id="rect90808-1-2"
         width="183.2639"
         height="286.61984"
         x="1067.2368"
         y="2274.9014"
         rx="2.0539536"
         ry="2.088433" />
    </clipPath>
    <clipPath
       id="clipPath171994-7-2-9"
       clipPathUnits="userSpaceOnUse">
      <rect
         ry="2.088433"
         rx="2.088433"
         y="2285.3784"
         x="1154.7113"
         height="215.52615"
         width="360.70697"
         id="rect171996-5-7-3"
         style="opacity:0.66000001;fill:#00b0ff;fill-opacity:1;stroke:none;stroke-width:5;stroke-linecap:round;stroke-linejoin:round;stroke-miterlimit:4;stroke-dasharray:none;stroke-dashoffset:0;stroke-opacity:1" />
    </clipPath>
    <clipPath
       id="clipPath90806-3-0-1"
       clipPathUnits="userSpaceOnUse">
      <rect
         ry="2.088433"
         rx="2.0539536"
         y="2274.9014"
         x="1067.2368"
         height="286.61984"
         width="183.2639"
         id="rect90808-5-9-9"
         style="opacity:0.66000001;fill:#00b0ff;fill-opacity:1;stroke:none;stroke-width:5;stroke-linecap:round;stroke-linejoin:round;stroke-miterlimit:4;stroke-dasharray:none;stroke-dashoffset:0;stroke-opacity:1" />
    </clipPath>
    <clipPath
       id="clipPath171994-753-3-4"
       clipPathUnits="userSpaceOnUse">
      <rect
         ry="2.088433"
         rx="2.088433"
         y="2285.3784"
         x="1154.7113"
         height="215.52615"
         width="360.70697"
         id="rect171996-56-6-7"
         style="opacity:0.66000001;fill:#00b0ff;fill-opacity:1;stroke:none;stroke-width:5;stroke-linecap:round;stroke-linejoin:round;stroke-miterlimit:4;stroke-dasharray:none;stroke-dashoffset:0;stroke-opacity:1" />
    </clipPath>
    <clipPath
       id="clipPath90806-2-0-8"
       clipPathUnits="userSpaceOnUse">
      <rect
         ry="2.088433"
         rx="2.0539536"
         y="2274.9014"
         x="1067.2368"
         height="286.61984"
         width="183.2639"
         id="rect90808-9-6-4"
         style="opacity:0.66000001;fill:#00b0ff;fill-opacity:1;stroke:none;stroke-width:5;stroke-linecap:round;stroke-linejoin:round;stroke-miterlimit:4;stroke-dasharray:none;stroke-dashoffset:0;stroke-opacity:1" />
    </clipPath>
    <clipPath
       clipPathUnits="userSpaceOnUse"
       id="clipPath171994-75-2-5">
      <rect
         style="opacity:0.66000001;fill:#00b0ff;fill-opacity:1;stroke:none;stroke-width:5;stroke-linecap:round;stroke-linejoin:round;stroke-miterlimit:4;stroke-dasharray:none;stroke-dashoffset:0;stroke-opacity:1"
         id="rect171996-3-6-0"
         width="360.70697"
         height="215.52615"
         x="1154.7113"
         y="2285.3784"
         rx="2.088433"
         ry="2.088433" />
    </clipPath>
    <clipPath
       clipPathUnits="userSpaceOnUse"
       id="clipPath90806-5-1-3">
      <rect
         style="opacity:0.66000001;fill:#00b0ff;fill-opacity:1;stroke:none;stroke-width:5;stroke-linecap:round;stroke-linejoin:round;stroke-miterlimit:4;stroke-dasharray:none;stroke-dashoffset:0;stroke-opacity:1"
         id="rect90808-6-8-6"
         width="183.2639"
         height="286.61984"
         x="1067.2368"
         y="2274.9014"
         rx="2.0539536"
         ry="2.088433" />
    </clipPath>
    <clipPath
       id="clipPath171994-7-1-7-1"
       clipPathUnits="userSpaceOnUse">
      <rect
         ry="2.088433"
         rx="2.088433"
         y="2285.3784"
         x="1154.7113"
         height="215.52615"
         width="360.70697"
         id="rect171996-5-2-9-0"
         style="opacity:0.66000001;fill:#00b0ff;fill-opacity:1;stroke:none;stroke-width:5;stroke-linecap:round;stroke-linejoin:round;stroke-miterlimit:4;stroke-dasharray:none;stroke-dashoffset:0;stroke-opacity:1" />
    </clipPath>
    <clipPath
       id="clipPath90806-3-7-2-6"
       clipPathUnits="userSpaceOnUse">
      <rect
         ry="2.088433"
         rx="2.0539536"
         y="2274.9014"
         x="1067.2368"
         height="286.61984"
         width="183.2639"
         id="rect90808-5-0-0-3"
         style="opacity:0.66000001;fill:#00b0ff;fill-opacity:1;stroke:none;stroke-width:5;stroke-linecap:round;stroke-linejoin:round;stroke-miterlimit:4;stroke-dasharray:none;stroke-dashoffset:0;stroke-opacity:1" />
    </clipPath>
  </defs>
  <sodipodi:namedview
     id="base"
     pagecolor="#000000"
     bordercolor="#666666"
     borderopacity="1.0"
     inkscape:pageopacity="0"
     inkscape:pageshadow="2"
     inkscape:zoom="1.002622"
     inkscape:cx="183.98425"
     inkscape:cy="123.0108"
     inkscape:document-units="cm"
     inkscape:current-layer="layer1"
     showgrid="false"
     inkscape:window-width="1329"
     inkscape:window-height="744"
     inkscape:window-x="37"
     inkscape:window-y="24"
     inkscape:window-maximized="1"
     units="cm"
     inkscape:showpageshadow="false"
     inkscape:snap-bbox="true"
     inkscape:bbox-nodes="true"
     inkscape:snap-global="false"
     inkscape:object-paths="true"
     inkscape:snap-intersection-paths="true"
     inkscape:object-nodes="true" />
  <metadata
     id="metadata90848">
    <rdf:RDF>
      <cc:Work
         rdf:about="">
        <dc:format>image/svg+xml</dc:format>
        <dc:type
           rdf:resource="http://purl.org/dc/dcmitype/StillImage" />
        <dc:title></dc:title>
      </cc:Work>
    </rdf:RDF>
  </metadata>
  <g
     inkscape:label="Layer 1"
     inkscape:groupmode="layer"
     id="layer1"
     transform="translate(0,-257.00003)">
    <g
       id="g3662"
       transform="translate(-59.806808,5.0557678)">
      <rect
         ry="3"
         rx="3"
         y="251.94426"
         x="59.806808"
         height="40"
         width="59.999996"
         id="rect3648"
         style="color:#000000;clip-rule:nonzero;display:inline;overflow:visible;visibility:visible;opacity:1;isolation:auto;mix-blend-mode:normal;color-interpolation:sRGB;color-interpolation-filters:linearRGB;solid-color:#000000;solid-opacity:1;fill:#ffffff;fill-opacity:1;fill-rule:nonzero;stroke:none;stroke-width:14.17322826;stroke-linecap:round;stroke-linejoin:round;stroke-miterlimit:4;stroke-dasharray:none;stroke-dashoffset:0;stroke-opacity:1;color-rendering:auto;image-rendering:auto;shape-rendering:auto;text-rendering:auto;enable-background:accumulate" />
      <g
         id="g3650">
        <path
           id="path5115"
           style="font-style:normal;font-variant:normal;font-weight:bold;font-stretch:normal;font-size:medium;line-height:125%;font-family:Montserrat;-inkscape-font-specification:'Montserrat Bold';letter-spacing:0px;word-spacing:0px;fill:#692323;fill-opacity:1;stroke:none;stroke-width:1px;stroke-linecap:butt;stroke-linejoin:miter;stroke-opacity:1"
           d="m 62.482924,254.72378 2.584067,0 0,9.89853 -2.584067,0 0,-9.89853 z"
           inkscape:connector-curvature="0" />
        <path
           id="path5117"
           style="font-style:normal;font-variant:normal;font-weight:bold;font-stretch:normal;font-size:medium;line-height:125%;font-family:Montserrat;-inkscape-font-specification:'Montserrat Bold';letter-spacing:0px;word-spacing:0px;fill:#692323;fill-opacity:1;stroke:none;stroke-width:1px;stroke-linecap:butt;stroke-linejoin:miter;stroke-opacity:1"
           d="m 66.978345,254.72378 2.809997,0 2.866479,5.78945 2.852359,-5.78945 2.809997,0 0,9.89853 -2.287536,0 -0.01406,-6.26953 -2.527586,5.28109 -1.666228,0 -2.541706,-5.28109 0,6.26953 -2.301656,0 0,-9.89853 z"
           inkscape:connector-curvature="0" />
        <path
           id="path5119"
           style="font-style:normal;font-variant:normal;font-weight:bold;font-stretch:normal;font-size:medium;line-height:125%;font-family:Montserrat;-inkscape-font-specification:'Montserrat Bold';letter-spacing:0px;word-spacing:0px;fill:#692323;fill-opacity:1;stroke:none;stroke-width:1px;stroke-linecap:butt;stroke-linejoin:miter;stroke-opacity:1"
           d="m 84.593116,254.72378 q 1.892158,0 2.937083,0.91784 1.044923,0.90371 1.044923,2.55583 0,1.75095 -1.044923,2.72527 -1.044925,0.9602 -2.937083,0.9602 l -1.765074,0 0,2.73939 -2.584066,0 0,-9.89853 4.34914,0 z m -0.127082,5.09753 q 0.790753,0 1.21437,-0.39538 0.437738,-0.39536 0.437738,-1.14376 0,-0.72015 -0.437738,-1.10141 -0.423617,-0.39538 -1.21437,-0.39538 l -1.637989,0 0,3.03593 1.637989,0 z"
           inkscape:connector-curvature="0" />
        <path
           id="path5121"
           style="font-style:normal;font-variant:normal;font-weight:bold;font-stretch:normal;font-size:medium;line-height:125%;font-family:Montserrat;-inkscape-font-specification:'Montserrat Bold';letter-spacing:0px;word-spacing:0px;fill:#692323;fill-opacity:1;stroke:none;stroke-width:1px;stroke-linecap:butt;stroke-linejoin:miter;stroke-opacity:1"
           d="m 96.369023,264.62231 -0.677789,-1.75095 -4.278537,0 -0.691909,1.75095 -2.65467,0 4.250296,-9.89853 2.65467,0 4.151453,9.89853 -2.753514,0 z m -4.179694,-3.72784 2.739393,0 -1.355576,-3.53014 -1.383817,3.53014 z"
           inkscape:connector-curvature="0" />
        <path
           id="path5123"
           style="font-style:normal;font-variant:normal;font-weight:bold;font-stretch:normal;font-size:medium;line-height:125%;font-family:Montserrat;-inkscape-font-specification:'Montserrat Bold';letter-spacing:0px;word-spacing:0px;fill:#692323;fill-opacity:1;stroke:none;stroke-width:1px;stroke-linecap:butt;stroke-linejoin:miter;stroke-opacity:1"
           d="m 106.90166,258.08448 q -0.4801,-0.60718 -1.14377,-0.9602 -0.66367,-0.36713 -1.31322,-0.36713 -0.74839,0 -1.36969,0.38125 -0.60719,0.36713 -0.9602,1.0308 -0.35302,0.64955 -0.35302,1.45442 0,0.80488 0.35302,1.46854 0.35301,0.64955 0.9602,1.03081 0.6213,0.36713 1.36969,0.36713 0.60719,0 1.27086,-0.31065 0.66366,-0.31065 1.18613,-0.84724 l 1.5109,1.62388 q -0.80487,0.84723 -1.9204,1.35557 -1.10141,0.49422 -2.18869,0.49422 -1.46854,0 -2.65467,-0.67779 -1.18613,-0.67779 -1.863919,-1.84979 -0.677789,-1.17202 -0.677789,-2.62644 0,-1.4403 0.691909,-2.59818 0.691909,-1.15789 1.892159,-1.82155 1.21437,-0.66368 2.71115,-0.66368 1.10141,0 2.17457,0.46599 1.07317,0.45185 1.82156,1.24261 l -1.49678,1.80743 z"
           inkscape:connector-curvature="0" />
        <path
           id="path5125"
           style="font-style:normal;font-variant:normal;font-weight:bold;font-stretch:normal;font-size:medium;line-height:125%;font-family:Montserrat;-inkscape-font-specification:'Montserrat Bold';letter-spacing:0px;word-spacing:0px;fill:#692323;fill-opacity:1;stroke:none;stroke-width:1px;stroke-linecap:butt;stroke-linejoin:miter;stroke-opacity:1"
           d="m 108.64422,254.72378 8.48648,0 0,2.13221 -2.96533,0 0,7.76632 -2.58406,0 0,-7.76632 -2.93709,0 0,-2.13221 z"
           inkscape:connector-curvature="0" />
        <path
           id="path5106"
           style="font-style:normal;font-variant:normal;font-weight:500;font-stretch:normal;font-size:medium;line-height:100%;font-family:OneDirection;-inkscape-font-specification:'OneDirection Medium';letter-spacing:0.52347946px;word-spacing:0px;fill:#692323;fill-opacity:1;stroke:none;stroke-width:1px;stroke-linecap:butt;stroke-linejoin:miter;stroke-opacity:1"
           d="m 66.8233,269.99716 q 0.660821,-0.12021 0.871082,-0.15018 0.210263,-0.03 0.300374,0 0.09012,0.03 0.120154,0.12022 0.06008,0.0601 0.480598,0.15019 0.420522,0.0901 1.171456,0.15019 1.531904,0.0901 2.132651,0.48059 0.570709,0.33041 1.291604,1.35169 0.720898,1.02126 0.841046,1.65204 0.180224,0.78098 -0.150186,1.65207 -0.33041,0.87107 -1.02127,1.50185 l -0.841046,0.78097 0.510635,0.33041 q 1.59198,1.08134 1.652054,2.2528 0.06008,1.6821 -0.330411,2.52314 -0.360448,0.81101 -1.922389,2.31288 -1.261569,1.26157 -1.982464,1.71212 -0.720896,0.42053 -2.37295,0.90113 -1.111382,0.33041 -2.853548,0.60074 -1.712128,0.27035 -1.862315,0.12021 -0.06008,-0.0601 0.210263,-0.33041 0.270335,-0.27033 0.630783,-0.51064 0.390486,-0.27033 0.540673,-0.27033 0.210261,0 0.450559,-0.15019 0.270336,-0.15018 0.420523,-0.30037 0.180224,-0.18022 0.120154,-0.27034 -0.09011,-0.0901 -1.261568,0.1502 -1.171457,0.21025 -1.381718,0.03 -0.210262,-0.2403 0,-2.25279 0.240298,-2.01251 0.750933,-4.44553 1.622017,-7.83975 2.072577,-8.95113 0.360448,-0.87108 0.961194,-1.05131 0.120154,-0.03 0.45056,-0.0901 z m 3.694592,3.63452 q -0.811008,-0.45055 -1.501867,0.03 -0.300373,0.24031 -0.390485,1.14142 -0.09011,0.87109 0.180224,0.9612 0.240298,0.0901 1.201494,-0.54067 1.531903,-1.02127 0.510634,-1.59199 z m -0.720895,8.01997 q 0.390484,-0.66082 -0.690859,-0.84104 -1.021269,-0.18023 -1.35168,0.12007 -0.2403,0.30038 -0.300374,1.29161 -0.06008,0.96119 0.150187,1.02127 0.180224,0.0601 1.051306,-0.5707 0.871083,-0.6308 1.14142,-1.02129 z"
           inkscape:connector-curvature="0" />
        <path
           id="path5108"
           style="font-style:normal;font-variant:normal;font-weight:500;font-stretch:normal;font-size:medium;line-height:100%;font-family:OneDirection;-inkscape-font-specification:'OneDirection Medium';letter-spacing:0.52347946px;word-spacing:0px;fill:#692323;fill-opacity:1;stroke:none;stroke-width:1px;stroke-linecap:butt;stroke-linejoin:miter;stroke-opacity:1"
           d="m 75.810565,269.84698 q 0.240298,-0.30037 1.171456,-0.15019 0.931158,0.15019 1.712128,0.63078 0.57071,0.30039 0.811008,0.66083 0.2403,0.33041 0.570711,1.26156 0.630782,1.71213 0.811008,2.07258 0.180224,0.33042 0.360448,0.27034 0.150186,-0.0601 1.291604,-1.86231 1.141419,-1.83228 1.411756,-1.98247 0.150187,-0.0901 0.811008,-0.12022 0.660822,-0.03 1.441791,0.12022 0.811009,0.15019 1.111382,0.4806 0.300374,0.39048 0.300374,0.84105 0,0.42051 -0.210261,0.75093 -0.180224,0.33041 -0.390486,0.7209 -0.180224,0.39048 -0.180224,0.63078 0,0.15018 -0.180224,0.4806 -0.150187,0.30037 -0.630785,1.20148 -0.480597,0.90113 -0.991232,1.9224 l -1.23153,2.52313 q -0.390485,0.75093 -0.390485,0.9612 0,0.42052 -1.561942,3.66456 -0.720896,1.50185 -2.4931,3.00372 -1.772202,1.50187 -2.643285,1.38173 -0.270336,-0.03 -0.390485,-0.21027 -0.09012,-0.18022 -0.120154,-0.75093 -0.03004,-0.39049 0,-0.69086 0.03004,-0.33041 0.09011,-0.51064 0.06008,-0.18022 0.210261,-0.5707 0.150187,-0.42053 0.2403,-0.75094 0.390484,-1.32164 1.772202,-4.5056 0.240299,-0.57071 0.240299,-0.99123 0,-0.45056 -0.150187,-0.66082 -0.120154,-0.24029 -0.360448,-0.63078 -0.240299,-0.39049 -0.360449,-0.78097 -0.120154,-0.33041 -0.510634,-0.99124 -0.390485,-0.66082 -0.600746,-1.20149 0,-0.03 -0.03004,-0.0901 -1.862316,-4.92613 -0.931158,-6.12762 z"
           inkscape:connector-curvature="0" />
        <path
           id="path5110"
           style="font-style:normal;font-variant:normal;font-weight:500;font-stretch:normal;font-size:medium;line-height:100%;font-family:OneDirection;-inkscape-font-specification:'OneDirection Medium';letter-spacing:0.52347946px;word-spacing:0px;fill:#692323;fill-opacity:1;stroke:none;stroke-width:1px;stroke-linecap:butt;stroke-linejoin:miter;stroke-opacity:1"
           d="m 95.029299,270.38765 q 1.952426,-0.33041 3.063808,-0.48059 1.141419,-0.18023 1.802241,-0.21027 0.660822,-0.03 0.871082,0.0901 0.2403,0.0901 0.27034,0.33041 0.12015,0.51064 0.57071,0.72089 0.48059,0.18022 1.71212,0.18022 1.35168,0 1.65206,0.24031 0.33041,0.21025 0.21026,1.11138 -0.0901,0.75093 -0.54067,1.14142 -0.45056,0.36045 -1.74217,0.87107 -1.32164,0.51064 -4.535636,1.11139 -1.321643,0.2403 -1.622017,0.63079 -0.300373,0.39047 -0.300373,1.92238 0,1.47183 -0.240299,5.13638 -0.240299,3.66456 -0.240299,3.96493 0,0.4806 -0.120154,0.60076 -0.120154,0.12021 -0.480598,0.24029 -0.33041,0.0901 -0.660821,0.42053 -0.270337,0.24029 -0.420524,0.27033 -0.120154,0.03 -0.210261,-0.03 -0.09012,-0.0601 -0.390484,-0.27034 -0.300374,-0.21025 -0.69086,-0.39048 -0.480597,-0.18022 -0.690859,-0.69086 -0.210261,-0.51064 -0.210261,-1.50187 0,-0.99123 0.06008,-2.01249 0.06008,-1.05131 0.180224,-2.94366 0.120154,-1.89236 0.150187,-3.54442 0.03004,-1.50187 -0.03004,-1.83227 -0.06008,-0.36045 -0.390485,-0.63078 -0.33041,-0.27034 -0.931158,-0.39049 -0.570709,-0.15018 -1.021269,-0.21026 -0.420522,-0.0901 -0.780971,-0.45056 -0.330411,-0.36045 -0.330411,-1.0513 0,-0.78098 0.390486,-1.08135 0.420522,-0.33041 1.742165,-0.57072 l 3.904855,-0.69085 z"
           inkscape:connector-curvature="0" />
        <path
           id="path5112"
           style="font-style:normal;font-variant:normal;font-weight:500;font-stretch:normal;font-size:medium;line-height:100%;font-family:OneDirection;-inkscape-font-specification:'OneDirection Medium';letter-spacing:0.52347946px;word-spacing:0px;fill:#692323;fill-opacity:1;stroke:none;stroke-width:1px;stroke-linecap:butt;stroke-linejoin:miter;stroke-opacity:1"
           d="m 114.14947,270.17739 q 0.21026,-0.21027 1.35168,-0.15019 1.17146,0.03 1.35168,0.24031 0.15019,0.18022 0.21026,0.811 0.0901,0.63079 0.0601,1.29161 -0.03,0.21025 -0.18022,0.36045 -0.12016,0.15017 -0.27034,0.24029 -0.15019,0.0601 -0.51063,0.21027 -0.36045,0.12021 -0.60075,0.24029 -0.60075,0.30037 -2.94366,0.75094 -0.4806,0.0901 -0.75093,0.36045 -0.27034,0.27033 -0.12016,0.54066 0.15019,0.24031 1.41176,0.12021 1.11138,-0.12021 1.41175,0.0901 0.30038,0.21025 0.30038,1.08134 0,0.54067 -0.12016,0.81101 -0.12015,0.2403 -0.51063,0.57071 -0.63079,0.51064 -0.9612,0.51064 -0.33041,0 -0.99123,0.42052 l -0.66082,0.39049 0.0601,1.56193 q 0.03,1.32165 0.27033,1.59198 0.27034,0.2403 0.93116,-0.42052 0.4806,-0.4806 1.50187,-1.17146 1.02127,-0.69086 1.44179,-0.84104 0.30037,-0.0901 0.36045,0 0.0901,0.0601 0.0901,0.36045 0,0.51063 0.30038,0.75094 0.21026,0.15017 0.24029,0.5707 0.0601,0.42052 0.03,1.50187 l -0.0601,1.80224 -0.99124,0.90111 q -1.17145,1.05132 -2.0125,1.41177 -0.81101,0.3304 -2.10261,0.30037 -0.90112,-0.03 -1.44179,-0.12022 -0.51064,-0.12021 -1.17146,-0.45056 -1.11138,-0.5707 -1.44179,-1.08134 -0.39049,-0.57071 -0.7209,-1.65205 -0.30037,-1.08134 -0.33041,-1.92239 -0.03,-0.81101 0.36045,-3.51436 0.39048,-2.70337 0.75093,-4.23528 0.27034,-1.20148 0.51064,-1.74216 0.27033,-0.54068 0.99123,-1.41175 0.57071,-0.66082 0.96119,-0.78097 0.39049,-0.1502 0.93116,0.15019 0.33041,0.18021 1.53191,0 1.23153,-0.18023 1.5319,-0.45057 z"
           inkscape:connector-curvature="0" />
      </g>
    </g>
  </g>
</svg>
