<?xml version="1.0" encoding="UTF-8" standalone="no"?>
<!-- Created with Inkscape (http://www.inkscape.org/) -->

<svg
   xmlns:dc="http://purl.org/dc/elements/1.1/"
   xmlns:cc="http://creativecommons.org/ns#"
   xmlns:rdf="http://www.w3.org/1999/02/22-rdf-syntax-ns#"
   xmlns:svg="http://www.w3.org/2000/svg"
   xmlns="http://www.w3.org/2000/svg"
   xmlns:sodipodi="http://sodipodi.sourceforge.net/DTD/sodipodi-0.dtd"
   xmlns:inkscape="http://www.inkscape.org/namespaces/inkscape"
   width="500"
   height="500"
   viewBox="0 0 141.11111 141.11111"
   version="1.1"
   id="svg90851"
   inkscape:version="0.91 r13725"
   sodipodi:docname="impactbyte_all_color-trans_white.svg"
   inkscape:export-filename="/home/mhaidarh/all/org/impactbyte/repo/brand/logo/impactbyte_logo_red_square.svg.png"
   inkscape:export-xdpi="90"
   inkscape:export-ydpi="90">
  <defs
     id="defs90845">
    <clipPath
       clipPathUnits="userSpaceOnUse"
       id="clipPath171994">
      <rect
         style="opacity:0.66000001;fill:#00b0ff;fill-opacity:1;stroke:none;stroke-width:5;stroke-linecap:round;stroke-linejoin:round;stroke-miterlimit:4;stroke-dasharray:none;stroke-dashoffset:0;stroke-opacity:1"
         id="rect171996"
         width="360.70697"
         height="215.52615"
         x="1154.7113"
         y="2285.3784"
         rx="2.088433"
         ry="2.088433" />
    </clipPath>
    <clipPath
       clipPathUnits="userSpaceOnUse"
       id="clipPath90806">
      <rect
         style="opacity:0.66000001;fill:#00b0ff;fill-opacity:1;stroke:none;stroke-width:5;stroke-linecap:round;stroke-linejoin:round;stroke-miterlimit:4;stroke-dasharray:none;stroke-dashoffset:0;stroke-opacity:1"
         id="rect90808"
         width="183.2639"
         height="286.61984"
         x="1067.2368"
         y="2274.9014"
         rx="2.0539536"
         ry="2.088433" />
    </clipPath>
    <clipPath
       id="clipPath171994-7"
       clipPathUnits="userSpaceOnUse">
      <rect
         ry="2.088433"
         rx="2.088433"
         y="2285.3784"
         x="1154.7113"
         height="215.52615"
         width="360.70697"
         id="rect171996-5"
         style="opacity:0.66000001;fill:#00b0ff;fill-opacity:1;stroke:none;stroke-width:5;stroke-linecap:round;stroke-linejoin:round;stroke-miterlimit:4;stroke-dasharray:none;stroke-dashoffset:0;stroke-opacity:1" />
    </clipPath>
    <clipPath
       id="clipPath90806-3"
       clipPathUnits="userSpaceOnUse">
      <rect
         ry="2.088433"
         rx="2.0539536"
         y="2274.9014"
         x="1067.2368"
         height="286.61984"
         width="183.2639"
         id="rect90808-5"
         style="opacity:0.66000001;fill:#00b0ff;fill-opacity:1;stroke:none;stroke-width:5;stroke-linecap:round;stroke-linejoin:round;stroke-miterlimit:4;stroke-dasharray:none;stroke-dashoffset:0;stroke-opacity:1" />
    </clipPath>
    <clipPath
       id="clipPath171994-753"
       clipPathUnits="userSpaceOnUse">
      <rect
         ry="2.088433"
         rx="2.088433"
         y="2285.3784"
         x="1154.7113"
         height="215.52615"
         width="360.70697"
         id="rect171996-56"
         style="opacity:0.66000001;fill:#00b0ff;fill-opacity:1;stroke:none;stroke-width:5;stroke-linecap:round;stroke-linejoin:round;stroke-miterlimit:4;stroke-dasharray:none;stroke-dashoffset:0;stroke-opacity:1" />
    </clipPath>
    <clipPath
       id="clipPath90806-2"
       clipPathUnits="userSpaceOnUse">
      <rect
         ry="2.088433"
         rx="2.0539536"
         y="2274.9014"
         x="1067.2368"
         height="286.61984"
         width="183.2639"
         id="rect90808-9"
         style="opacity:0.66000001;fill:#00b0ff;fill-opacity:1;stroke:none;stroke-width:5;stroke-linecap:round;stroke-linejoin:round;stroke-miterlimit:4;stroke-dasharray:none;stroke-dashoffset:0;stroke-opacity:1" />
    </clipPath>
    <clipPath
       clipPathUnits="userSpaceOnUse"
       id="clipPath171994-75">
      <rect
         style="opacity:0.66000001;fill:#00b0ff;fill-opacity:1;stroke:none;stroke-width:5;stroke-linecap:round;stroke-linejoin:round;stroke-miterlimit:4;stroke-dasharray:none;stroke-dashoffset:0;stroke-opacity:1"
         id="rect171996-3"
         width="360.70697"
         height="215.52615"
         x="1154.7113"
         y="2285.3784"
         rx="2.088433"
         ry="2.088433" />
    </clipPath>
    <clipPath
       clipPathUnits="userSpaceOnUse"
       id="clipPath90806-5">
      <rect
         style="opacity:0.66000001;fill:#00b0ff;fill-opacity:1;stroke:none;stroke-width:5;stroke-linecap:round;stroke-linejoin:round;stroke-miterlimit:4;stroke-dasharray:none;stroke-dashoffset:0;stroke-opacity:1"
         id="rect90808-6"
         width="183.2639"
         height="286.61984"
         x="1067.2368"
         y="2274.9014"
         rx="2.0539536"
         ry="2.088433" />
    </clipPath>
    <clipPath
       id="clipPath171994-7-1"
       clipPathUnits="userSpaceOnUse">
      <rect
         ry="2.088433"
         rx="2.088433"
         y="2285.3784"
         x="1154.7113"
         height="215.52615"
         width="360.70697"
         id="rect171996-5-2"
         style="opacity:0.66000001;fill:#00b0ff;fill-opacity:1;stroke:none;stroke-width:5;stroke-linecap:round;stroke-linejoin:round;stroke-miterlimit:4;stroke-dasharray:none;stroke-dashoffset:0;stroke-opacity:1" />
    </clipPath>
    <clipPath
       id="clipPath90806-3-7"
       clipPathUnits="userSpaceOnUse">
      <rect
         ry="2.088433"
         rx="2.0539536"
         y="2274.9014"
         x="1067.2368"
         height="286.61984"
         width="183.2639"
         id="rect90808-5-0"
         style="opacity:0.66000001;fill:#00b0ff;fill-opacity:1;stroke:none;stroke-width:5;stroke-linecap:round;stroke-linejoin:round;stroke-miterlimit:4;stroke-dasharray:none;stroke-dashoffset:0;stroke-opacity:1" />
    </clipPath>
    <clipPath
       id="clipPath171994-7535"
       clipPathUnits="userSpaceOnUse">
      <rect
         ry="2.088433"
         rx="2.088433"
         y="2285.3784"
         x="1154.7113"
         height="215.52615"
         width="360.70697"
         id="rect171996-6"
         style="opacity:0.66000001;fill:#00b0ff;fill-opacity:1;stroke:none;stroke-width:5;stroke-linecap:round;stroke-linejoin:round;stroke-miterlimit:4;stroke-dasharray:none;stroke-dashoffset:0;stroke-opacity:1" />
    </clipPath>
    <clipPath
       id="clipPath90806-29"
       clipPathUnits="userSpaceOnUse">
      <rect
         ry="2.088433"
         rx="2.0539536"
         y="2274.9014"
         x="1067.2368"
         height="286.61984"
         width="183.2639"
         id="rect90808-1"
         style="opacity:0.66000001;fill:#00b0ff;fill-opacity:1;stroke:none;stroke-width:5;stroke-linecap:round;stroke-linejoin:round;stroke-miterlimit:4;stroke-dasharray:none;stroke-dashoffset:0;stroke-opacity:1" />
    </clipPath>
    <clipPath
       clipPathUnits="userSpaceOnUse"
       id="clipPath171994-7-2">
      <rect
         style="opacity:0.66000001;fill:#00b0ff;fill-opacity:1;stroke:none;stroke-width:5;stroke-linecap:round;stroke-linejoin:round;stroke-miterlimit:4;stroke-dasharray:none;stroke-dashoffset:0;stroke-opacity:1"
         id="rect171996-5-7"
         width="360.70697"
         height="215.52615"
         x="1154.7113"
         y="2285.3784"
         rx="2.088433"
         ry="2.088433" />
    </clipPath>
    <clipPath
       clipPathUnits="userSpaceOnUse"
       id="clipPath90806-3-0">
      <rect
         style="opacity:0.66000001;fill:#00b0ff;fill-opacity:1;stroke:none;stroke-width:5;stroke-linecap:round;stroke-linejoin:round;stroke-miterlimit:4;stroke-dasharray:none;stroke-dashoffset:0;stroke-opacity:1"
         id="rect90808-5-9"
         width="183.2639"
         height="286.61984"
         x="1067.2368"
         y="2274.9014"
         rx="2.0539536"
         ry="2.088433" />
    </clipPath>
    <clipPath
       clipPathUnits="userSpaceOnUse"
       id="clipPath171994-753-3">
      <rect
         style="opacity:0.66000001;fill:#00b0ff;fill-opacity:1;stroke:none;stroke-width:5;stroke-linecap:round;stroke-linejoin:round;stroke-miterlimit:4;stroke-dasharray:none;stroke-dashoffset:0;stroke-opacity:1"
         id="rect171996-56-6"
         width="360.70697"
         height="215.52615"
         x="1154.7113"
         y="2285.3784"
         rx="2.088433"
         ry="2.088433" />
    </clipPath>
    <clipPath
       clipPathUnits="userSpaceOnUse"
       id="clipPath90806-2-0">
      <rect
         style="opacity:0.66000001;fill:#00b0ff;fill-opacity:1;stroke:none;stroke-width:5;stroke-linecap:round;stroke-linejoin:round;stroke-miterlimit:4;stroke-dasharray:none;stroke-dashoffset:0;stroke-opacity:1"
         id="rect90808-9-6"
         width="183.2639"
         height="286.61984"
         x="1067.2368"
         y="2274.9014"
         rx="2.0539536"
         ry="2.088433" />
    </clipPath>
    <clipPath
       id="clipPath171994-75-2"
       clipPathUnits="userSpaceOnUse">
      <rect
         ry="2.088433"
         rx="2.088433"
         y="2285.3784"
         x="1154.7113"
         height="215.52615"
         width="360.70697"
         id="rect171996-3-6"
         style="opacity:0.66000001;fill:#00b0ff;fill-opacity:1;stroke:none;stroke-width:5;stroke-linecap:round;stroke-linejoin:round;stroke-miterlimit:4;stroke-dasharray:none;stroke-dashoffset:0;stroke-opacity:1" />
    </clipPath>
    <clipPath
       id="clipPath90806-5-1"
       clipPathUnits="userSpaceOnUse">
      <rect
         ry="2.088433"
         rx="2.0539536"
         y="2274.9014"
         x="1067.2368"
         height="286.61984"
         width="183.2639"
         id="rect90808-6-8"
         style="opacity:0.66000001;fill:#00b0ff;fill-opacity:1;stroke:none;stroke-width:5;stroke-linecap:round;stroke-linejoin:round;stroke-miterlimit:4;stroke-dasharray:none;stroke-dashoffset:0;stroke-opacity:1" />
    </clipPath>
    <clipPath
       clipPathUnits="userSpaceOnUse"
       id="clipPath171994-7-1-7">
      <rect
         style="opacity:0.66000001;fill:#00b0ff;fill-opacity:1;stroke:none;stroke-width:5;stroke-linecap:round;stroke-linejoin:round;stroke-miterlimit:4;stroke-dasharray:none;stroke-dashoffset:0;stroke-opacity:1"
         id="rect171996-5-2-9"
         width="360.70697"
         height="215.52615"
         x="1154.7113"
         y="2285.3784"
         rx="2.088433"
         ry="2.088433" />
    </clipPath>
    <clipPath
       clipPathUnits="userSpaceOnUse"
       id="clipPath90806-3-7-2">
      <rect
         style="opacity:0.66000001;fill:#00b0ff;fill-opacity:1;stroke:none;stroke-width:5;stroke-linecap:round;stroke-linejoin:round;stroke-miterlimit:4;stroke-dasharray:none;stroke-dashoffset:0;stroke-opacity:1"
         id="rect90808-5-0-0"
         width="183.2639"
         height="286.61984"
         x="1067.2368"
         y="2274.9014"
         rx="2.0539536"
         ry="2.088433" />
    </clipPath>
    <clipPath
       id="clipPath171994-75356"
       clipPathUnits="userSpaceOnUse">
      <rect
         ry="2.088433"
         rx="2.088433"
         y="2285.3784"
         x="1154.7113"
         height="215.52615"
         width="360.70697"
         id="rect171996-2"
         style="opacity:0.66000001;fill:#00b0ff;fill-opacity:1;stroke:none;stroke-width:5;stroke-linecap:round;stroke-linejoin:round;stroke-miterlimit:4;stroke-dasharray:none;stroke-dashoffset:0;stroke-opacity:1" />
    </clipPath>
    <clipPath
       id="clipPath90806-9"
       clipPathUnits="userSpaceOnUse">
      <rect
         ry="2.088433"
         rx="2.0539536"
         y="2274.9014"
         x="1067.2368"
         height="286.61984"
         width="183.2639"
         id="rect90808-12"
         style="opacity:0.66000001;fill:#00b0ff;fill-opacity:1;stroke:none;stroke-width:5;stroke-linecap:round;stroke-linejoin:round;stroke-miterlimit:4;stroke-dasharray:none;stroke-dashoffset:0;stroke-opacity:1" />
    </clipPath>
    <clipPath
       clipPathUnits="userSpaceOnUse"
       id="clipPath171994-7-7">
      <rect
         style="opacity:0.66000001;fill:#00b0ff;fill-opacity:1;stroke:none;stroke-width:5;stroke-linecap:round;stroke-linejoin:round;stroke-miterlimit:4;stroke-dasharray:none;stroke-dashoffset:0;stroke-opacity:1"
         id="rect171996-5-0"
         width="360.70697"
         height="215.52615"
         x="1154.7113"
         y="2285.3784"
         rx="2.088433"
         ry="2.088433" />
    </clipPath>
    <clipPath
       clipPathUnits="userSpaceOnUse"
       id="clipPath90806-3-9">
      <rect
         style="opacity:0.66000001;fill:#00b0ff;fill-opacity:1;stroke:none;stroke-width:5;stroke-linecap:round;stroke-linejoin:round;stroke-miterlimit:4;stroke-dasharray:none;stroke-dashoffset:0;stroke-opacity:1"
         id="rect90808-5-3"
         width="183.2639"
         height="286.61984"
         x="1067.2368"
         y="2274.9014"
         rx="2.0539536"
         ry="2.088433" />
    </clipPath>
    <clipPath
       clipPathUnits="userSpaceOnUse"
       id="clipPath171994-753-6">
      <rect
         style="opacity:0.66000001;fill:#00b0ff;fill-opacity:1;stroke:none;stroke-width:5;stroke-linecap:round;stroke-linejoin:round;stroke-miterlimit:4;stroke-dasharray:none;stroke-dashoffset:0;stroke-opacity:1"
         id="rect171996-56-0"
         width="360.70697"
         height="215.52615"
         x="1154.7113"
         y="2285.3784"
         rx="2.088433"
         ry="2.088433" />
    </clipPath>
    <clipPath
       clipPathUnits="userSpaceOnUse"
       id="clipPath90806-2-6">
      <rect
         style="opacity:0.66000001;fill:#00b0ff;fill-opacity:1;stroke:none;stroke-width:5;stroke-linecap:round;stroke-linejoin:round;stroke-miterlimit:4;stroke-dasharray:none;stroke-dashoffset:0;stroke-opacity:1"
         id="rect90808-9-2"
         width="183.2639"
         height="286.61984"
         x="1067.2368"
         y="2274.9014"
         rx="2.0539536"
         ry="2.088433" />
    </clipPath>
    <clipPath
       id="clipPath171994-75-6"
       clipPathUnits="userSpaceOnUse">
      <rect
         ry="2.088433"
         rx="2.088433"
         y="2285.3784"
         x="1154.7113"
         height="215.52615"
         width="360.70697"
         id="rect171996-3-1"
         style="opacity:0.66000001;fill:#00b0ff;fill-opacity:1;stroke:none;stroke-width:5;stroke-linecap:round;stroke-linejoin:round;stroke-miterlimit:4;stroke-dasharray:none;stroke-dashoffset:0;stroke-opacity:1" />
    </clipPath>
    <clipPath
       id="clipPath90806-5-8"
       clipPathUnits="userSpaceOnUse">
      <rect
         ry="2.088433"
         rx="2.0539536"
         y="2274.9014"
         x="1067.2368"
         height="286.61984"
         width="183.2639"
         id="rect90808-6-7"
         style="opacity:0.66000001;fill:#00b0ff;fill-opacity:1;stroke:none;stroke-width:5;stroke-linecap:round;stroke-linejoin:round;stroke-miterlimit:4;stroke-dasharray:none;stroke-dashoffset:0;stroke-opacity:1" />
    </clipPath>
    <clipPath
       clipPathUnits="userSpaceOnUse"
       id="clipPath171994-7-1-9">
      <rect
         style="opacity:0.66000001;fill:#00b0ff;fill-opacity:1;stroke:none;stroke-width:5;stroke-linecap:round;stroke-linejoin:round;stroke-miterlimit:4;stroke-dasharray:none;stroke-dashoffset:0;stroke-opacity:1"
         id="rect171996-5-2-2"
         width="360.70697"
         height="215.52615"
         x="1154.7113"
         y="2285.3784"
         rx="2.088433"
         ry="2.088433" />
    </clipPath>
    <clipPath
       clipPathUnits="userSpaceOnUse"
       id="clipPath90806-3-7-0">
      <rect
         style="opacity:0.66000001;fill:#00b0ff;fill-opacity:1;stroke:none;stroke-width:5;stroke-linecap:round;stroke-linejoin:round;stroke-miterlimit:4;stroke-dasharray:none;stroke-dashoffset:0;stroke-opacity:1"
         id="rect90808-5-0-2"
         width="183.2639"
         height="286.61984"
         x="1067.2368"
         y="2274.9014"
         rx="2.0539536"
         ry="2.088433" />
    </clipPath>
    <clipPath
       clipPathUnits="userSpaceOnUse"
       id="clipPath171994-7535-3">
      <rect
         style="opacity:0.66000001;fill:#00b0ff;fill-opacity:1;stroke:none;stroke-width:5;stroke-linecap:round;stroke-linejoin:round;stroke-miterlimit:4;stroke-dasharray:none;stroke-dashoffset:0;stroke-opacity:1"
         id="rect171996-6-7"
         width="360.70697"
         height="215.52615"
         x="1154.7113"
         y="2285.3784"
         rx="2.088433"
         ry="2.088433" />
    </clipPath>
    <clipPath
       clipPathUnits="userSpaceOnUse"
       id="clipPath90806-29-5">
      <rect
         style="opacity:0.66000001;fill:#00b0ff;fill-opacity:1;stroke:none;stroke-width:5;stroke-linecap:round;stroke-linejoin:round;stroke-miterlimit:4;stroke-dasharray:none;stroke-dashoffset:0;stroke-opacity:1"
         id="rect90808-1-9"
         width="183.2639"
         height="286.61984"
         x="1067.2368"
         y="2274.9014"
         rx="2.0539536"
         ry="2.088433" />
    </clipPath>
    <clipPath
       id="clipPath171994-7-2-2"
       clipPathUnits="userSpaceOnUse">
      <rect
         ry="2.088433"
         rx="2.088433"
         y="2285.3784"
         x="1154.7113"
         height="215.52615"
         width="360.70697"
         id="rect171996-5-7-2"
         style="opacity:0.66000001;fill:#00b0ff;fill-opacity:1;stroke:none;stroke-width:5;stroke-linecap:round;stroke-linejoin:round;stroke-miterlimit:4;stroke-dasharray:none;stroke-dashoffset:0;stroke-opacity:1" />
    </clipPath>
    <clipPath
       id="clipPath90806-3-0-8"
       clipPathUnits="userSpaceOnUse">
      <rect
         ry="2.088433"
         rx="2.0539536"
         y="2274.9014"
         x="1067.2368"
         height="286.61984"
         width="183.2639"
         id="rect90808-5-9-9"
         style="opacity:0.66000001;fill:#00b0ff;fill-opacity:1;stroke:none;stroke-width:5;stroke-linecap:round;stroke-linejoin:round;stroke-miterlimit:4;stroke-dasharray:none;stroke-dashoffset:0;stroke-opacity:1" />
    </clipPath>
    <clipPath
       id="clipPath171994-753-3-7"
       clipPathUnits="userSpaceOnUse">
      <rect
         ry="2.088433"
         rx="2.088433"
         y="2285.3784"
         x="1154.7113"
         height="215.52615"
         width="360.70697"
         id="rect171996-56-6-3"
         style="opacity:0.66000001;fill:#00b0ff;fill-opacity:1;stroke:none;stroke-width:5;stroke-linecap:round;stroke-linejoin:round;stroke-miterlimit:4;stroke-dasharray:none;stroke-dashoffset:0;stroke-opacity:1" />
    </clipPath>
    <clipPath
       id="clipPath90806-2-0-6"
       clipPathUnits="userSpaceOnUse">
      <rect
         ry="2.088433"
         rx="2.0539536"
         y="2274.9014"
         x="1067.2368"
         height="286.61984"
         width="183.2639"
         id="rect90808-9-6-1"
         style="opacity:0.66000001;fill:#00b0ff;fill-opacity:1;stroke:none;stroke-width:5;stroke-linecap:round;stroke-linejoin:round;stroke-miterlimit:4;stroke-dasharray:none;stroke-dashoffset:0;stroke-opacity:1" />
    </clipPath>
    <clipPath
       clipPathUnits="userSpaceOnUse"
       id="clipPath171994-75-2-2">
      <rect
         style="opacity:0.66000001;fill:#00b0ff;fill-opacity:1;stroke:none;stroke-width:5;stroke-linecap:round;stroke-linejoin:round;stroke-miterlimit:4;stroke-dasharray:none;stroke-dashoffset:0;stroke-opacity:1"
         id="rect171996-3-6-9"
         width="360.70697"
         height="215.52615"
         x="1154.7113"
         y="2285.3784"
         rx="2.088433"
         ry="2.088433" />
    </clipPath>
    <clipPath
       clipPathUnits="userSpaceOnUse"
       id="clipPath90806-5-1-3">
      <rect
         style="opacity:0.66000001;fill:#00b0ff;fill-opacity:1;stroke:none;stroke-width:5;stroke-linecap:round;stroke-linejoin:round;stroke-miterlimit:4;stroke-dasharray:none;stroke-dashoffset:0;stroke-opacity:1"
         id="rect90808-6-8-1"
         width="183.2639"
         height="286.61984"
         x="1067.2368"
         y="2274.9014"
         rx="2.0539536"
         ry="2.088433" />
    </clipPath>
    <clipPath
       id="clipPath171994-7-1-7-9"
       clipPathUnits="userSpaceOnUse">
      <rect
         ry="2.088433"
         rx="2.088433"
         y="2285.3784"
         x="1154.7113"
         height="215.52615"
         width="360.70697"
         id="rect171996-5-2-9-4"
         style="opacity:0.66000001;fill:#00b0ff;fill-opacity:1;stroke:none;stroke-width:5;stroke-linecap:round;stroke-linejoin:round;stroke-miterlimit:4;stroke-dasharray:none;stroke-dashoffset:0;stroke-opacity:1" />
    </clipPath>
    <clipPath
       id="clipPath90806-3-7-2-7"
       clipPathUnits="userSpaceOnUse">
      <rect
         ry="2.088433"
         rx="2.0539536"
         y="2274.9014"
         x="1067.2368"
         height="286.61984"
         width="183.2639"
         id="rect90808-5-0-0-8"
         style="opacity:0.66000001;fill:#00b0ff;fill-opacity:1;stroke:none;stroke-width:5;stroke-linecap:round;stroke-linejoin:round;stroke-miterlimit:4;stroke-dasharray:none;stroke-dashoffset:0;stroke-opacity:1" />
    </clipPath>
  </defs>
  <sodipodi:namedview
     id="base"
     pagecolor="#000000"
     bordercolor="#666666"
     borderopacity="1.0"
     inkscape:pageopacity="0"
     inkscape:pageshadow="2"
     inkscape:zoom="0.96058014"
     inkscape:cx="152.49756"
     inkscape:cy="121.65172"
     inkscape:document-units="px"
     inkscape:current-layer="layer1"
     showgrid="false"
     inkscape:window-width="1329"
     inkscape:window-height="744"
     inkscape:window-x="37"
     inkscape:window-y="24"
     inkscape:window-maximized="1"
     units="px"
     inkscape:showpageshadow="false" />
  <metadata
     id="metadata90848">
    <rdf:RDF>
      <cc:Work
         rdf:about="">
        <dc:format>image/svg+xml</dc:format>
        <dc:type
           rdf:resource="http://purl.org/dc/dcmitype/StillImage" />
        <dc:title />
      </cc:Work>
    </rdf:RDF>
  </metadata>
  <g
     inkscape:label="Layer 1"
     inkscape:groupmode="layer"
     id="layer1"
     transform="translate(0,-155.88891)">
    <g
       id="g3450">
      <path
         id="path172262-2-3"
         d="m 85.558483,182.56057 c 0.01473,0.002 0.0288,0.004 0.04299,0.007 -0.01456,-0.002 -0.02817,-0.005 -0.04299,-0.007 z m 0.346163,0.0772 c 0.01552,0.006 0.03035,0.0118 0.0452,0.0182 -0.01515,-0.006 -0.02967,-0.0127 -0.0452,-0.0182 z m 0.151034,0.0639 c 0.02484,0.0124 0.04786,0.027 0.07166,0.0408 -0.02382,-0.0138 -0.04673,-0.0284 -0.07166,-0.0408 z m 0.138904,0.0799 c 0.02464,0.0163 0.04772,0.0345 0.07111,0.0524 -0.0234,-0.0178 -0.04644,-0.0361 -0.07111,-0.0524 z m 0.123472,0.0926 c 0.02475,0.0208 0.04787,0.0436 0.07111,0.0661 -0.02326,-0.0226 -0.04637,-0.0453 -0.07111,-0.0661 z m 0.115206,0.10914 c 0.02698,0.0286 0.05233,0.0589 0.07717,0.0899 -0.02484,-0.031 -0.05019,-0.0613 -0.07717,-0.0899 z m 0.09756,0.11465 c 0.0256,0.0333 0.0495,0.0684 0.07276,0.10418 -0.02328,-0.0357 -0.04716,-0.0709 -0.07276,-0.10418 z m 0.09481,0.1378 c 0.02199,0.0356 0.04244,0.0726 0.06229,0.11025 -0.01984,-0.0377 -0.04029,-0.0747 -0.06229,-0.11025 z m 0.07607,0.13671 c 0.03321,0.0655 0.05909,0.13718 0.08599,0.20835 -0.02704,-0.071 -0.05281,-0.14294 -0.08599,-0.20835 z m 0.133946,0.33348 c 0.02269,0.0714 0.0396,0.14703 0.05677,0.22269 -0.0173,-0.0756 -0.03403,-0.1512 -0.05677,-0.22269 z m 0.08654,0.35168 c 0.01459,0.0794 0.02441,0.16151 0.03362,0.24418 -0.0093,-0.0827 -0.01902,-0.16476 -0.03362,-0.24418 z m 0.04685,0.36325 c 0.01095,0.13606 0.0153,0.27537 0.01324,0.41672 0.0023,-0.14162 -0.0023,-0.28047 -0.01324,-0.41672 z m 0.01324,0.41672 c -0.0041,0.28269 -0.0337,0.57301 -0.08489,0.85934 0.05164,-0.28679 0.08053,-0.57631 0.08489,-0.85934 z m -0.08489,0.85934 c -0.02489,0.13925 -0.05501,0.2774 -0.08985,0.41341 0.03502,-0.13603 0.06477,-0.27414 0.08985,-0.41341 z m -0.09316,0.42664 c -0.03084,0.11923 -0.06681,0.23585 -0.104733,0.35057 0.03813,-0.11489 0.07369,-0.23115 0.104733,-0.35057 z m -0.125126,0.41562 c -0.04367,0.12668 -0.09166,0.24937 -0.143316,0.36766 0.05175,-0.11826 0.0995,-0.241 0.143316,-0.36766 z m -0.148828,0.38034 c -0.05448,0.12377 -0.112852,0.24227 -0.175288,0.35388 0.06249,-0.11159 0.120678,-0.2301 0.175288,-0.35388 z m -0.175288,0.35388 c -0.06255,0.11181 -0.128741,0.21696 -0.198436,0.31364 0.06953,-0.0965 0.135933,-0.20203 0.198436,-0.31364 z m -0.198436,0.31364 c -0.07591,0.0676 -0.148816,0.14059 -0.218282,0.21718 0.06954,-0.0767 0.142277,-0.14894 0.218282,-0.21663 8.8e-5,-1.2e-4 -8.7e-5,-5.7e-4 0,-5.7e-4 z m -0.218282,0.21718 c -0.06964,0.0768 -0.135757,0.15736 -0.197886,0.24088 0.06205,-0.0834 0.128341,-0.16419 0.197886,-0.24088 z m -0.717132,1.30307 c -0.04349,0.17516 -0.06269,0.34351 -0.05347,0.49554 -0.0092,-0.15202 0.01,-0.32039 0.05347,-0.49554 z m -0.05347,0.49554 c 0.0046,0.0763 0.01637,0.14796 0.03583,0.21498 -0.01933,-0.0668 -0.03122,-0.13897 -0.03583,-0.21498 z m -4.902508,2.86357 c -1.097661,0.23381 -2.318749,0.3565 -3.53274,0.19678 -3.281321,-0.4317 -3.246563,3.06786 -5.007791,4.23995 0.08955,1.42806 -0.34185,2.91039 -1.287638,3.96489 -1.980416,2.45992 -7.121783,3.0207 -8.447375,-0.32136 -0.850607,0.12411 -1.951016,0.12926 -3.455018,-0.0165 -4.625651,-0.44841 -2.701829,3.73487 -5.800991,3.41699 -3.098371,-0.31776 -2.861019,2.14439 -5.858316,2.78364 -0.06943,1.1325 0.187362,2.21395 0.910057,3.0879 l 2.267701,2.7423 c 0,0 1.738009,-1.85712 2.431409,-2.69324 1.604787,-1.79736 2.094465,2.82857 3.40651,1.81185 0.999945,-1.1949 3.255852,-5.52145 4.361217,-2.77868 0.967024,2.56246 2.520863,-1.50927 3.898745,-1.82452 0.201803,0.0516 0.389676,0.12558 0.564995,0.21773 l 0.0011,-5.7e-4 c 9.855847,-10.01045 18.35136,5.10329 -0.220486,10.9769 -0.15137,0.31285 -0.299782,0.60858 -0.439318,0.86045 -0.8904,2.13292 -2.69174,0.76039 -3.825435,-0.009 -0.902632,1.47477 -1.639125,3.41822 -3.337609,2.75166 -0.647019,-0.25638 -2.821119,-0.78713 -2.821119,-0.78713 0,0 1.489033,5.15224 3.841418,3.91032 4.171879,-1.66302 7.935736,-2.79001 12.034134,-4.64454 2.012117,-0.58386 3.316295,-2.45542 5.385923,-2.77151 2.183037,-0.37527 1.595617,2.04029 2.098478,3.14468 5.630209,-4.73862 9.560657,-8.44418 14.329394,-15.66388 -1.746693,0.38282 -4.570849,1.27408 -5.450417,-0.88967 -0.332449,-3.76454 2.475049,-6.77416 3.37454,-10.26032 -2.085515,-0.93486 -4.396029,-0.33095 -6.545682,-0.007 -1.485923,0.71 -2.822166,-0.23285 -2.87569,-1.43867 z m -3.910872,5.23875 c 0.09098,-2.9e-4 0.183111,0.0129 0.268441,0.0452 0.864193,0.50652 0.943661,1.84578 0.293796,2.57032 -0.653516,0.81178 -2.35307,0.99522 -2.783086,-0.1152 -0.145094,-1.26579 0.988695,-2.40482 2.220849,-2.50031 z m -29.883588,2.76434 c -0.111672,0.14113 -0.221637,0.28433 -0.329076,0.42995 0.107656,-0.14543 0.217381,-0.28879 0.329076,-0.42995 z m -0.329076,0.42995 c -0.105732,0.1433 -0.209965,0.2882 -0.311438,0.43601 0.101741,-0.14753 0.205503,-0.29291 0.311438,-0.43601 z m 36.056648,0.23316 c 0.09102,-2.8e-4 0.182561,0.0135 0.267888,0.0458 0.864196,0.50653 0.944214,1.84524 0.29435,2.56977 -0.653517,0.81178 -2.353663,0.99521 -2.783637,-0.1152 -0.145094,-1.2658 0.989287,-2.40482 2.221399,-2.50032 z m -36.41163,0.26789 c -0.08504,0.12521 -0.169466,0.25072 -0.251356,0.37924 0.08205,-0.12832 0.166108,-0.25429 0.251356,-0.37924 z m 46.374295,0.0513 c -0.209713,0.1089 -0.400338,0.19115 -0.573264,0.24915 0.172926,-0.058 0.363551,-0.14024 0.573264,-0.24915 z m -46.927716,0.82021 c -0.09741,0.15229 -0.185076,0.30499 -0.267891,0.45806 0.08189,-0.15301 0.17055,-0.30587 0.267891,-0.45806 z m 32.485874,0.0413 c 0.09102,-2.8e-4 0.183072,0.0129 0.268441,0.0452 0.864151,0.50651 0.943664,1.84522 0.293799,2.56976 -0.653517,0.81178 -2.353115,0.99522 -2.783087,-0.1152 -0.145093,-1.26579 0.988738,-2.40426 2.220847,-2.49977 z m -32.771954,0.452 c -0.07944,0.14884 -0.151565,0.29818 -0.217732,0.44759 0.06621,-0.14952 0.139076,-0.29858 0.217732,-0.44759 z m -0.291042,0.6135 c -0.0058,0.0142 -0.0125,0.0283 -0.01817,0.0425 0.0059,-0.0142 0.01236,-0.0283 0.01817,-0.0425 z m 19.527355,8.44517 c -0.01216,1.65185 -0.199379,3.72869 -1.33339,4.79999 1.134838,-1.07122 1.321528,-3.148 1.33339,-4.79999 z m -1.33339,4.79999 c -0.102986,0.0973 -0.213755,0.18605 -0.332935,0.26568 0.119281,-0.0796 0.229876,-0.1684 0.332935,-0.26568 z m 3.72456,-4.26806 c -2.82e-4,0.001 -8.47e-4,0.003 -0.0011,0.004 l 0.0017,-0.004 -5.64e-4,0 z m -10.500101,2.80017 c -0.06804,0.10977 -0.141416,0.21157 -0.221037,0.30372 0.0796,-0.0922 0.153016,-0.19392 0.221037,-0.30372 z m -0.345612,0.43436 c -0.04314,0.0407 -0.08822,0.0793 -0.135046,0.1141 0.04705,-0.035 0.09172,-0.0732 0.135046,-0.1141 z m -0.135597,0.1141 c -0.0939,0.0698 -0.195269,0.12713 -0.305926,0.16978 9e-5,1.1e-4 -9e-5,5.6e-4 0,5.6e-4 0.110513,-0.0426 0.21213,-0.10061 0.305926,-0.17033 z m 18.457995,7.03075 c 0.143301,0.4295 0.281164,0.91167 0.46302,1.34717 -0.163672,-0.45632 -0.282228,-0.94868 -0.46302,-1.34717 z m -11.38425,3.52778 c -0.572877,0.20925 -1.141086,0.42803 -1.701052,0.66477 0.559972,-0.23676 1.12817,-0.45549 1.701052,-0.66477 z m -8.124913,0.23151 c 0.790607,0.62933 1.664581,1.16165 2.533385,1.59577 -0.841987,-0.42071 -1.715846,-0.95561 -2.533385,-1.59577 z m 3.76535,1.70767 c -0.169367,0.0411 -0.344158,0.063 -0.518143,0.0595 0.1741,0.004 0.348652,-0.0184 0.518143,-0.0595 z"
         style="opacity:1;fill:#ffffff;fill-opacity:1;stroke-width:11.96073818"
         inkscape:connector-curvature="0" />
      <path
         id="path172270-3-6"
         d="m 85.323113,180.85235 c -11.776866,1.83727 -22.551939,7.39646 -33.06465,12.73693 -4.928789,2.83764 -10.402681,7.56307 -9.89211,13.83165 0.460717,3.84863 2.576836,7.54164 5.45703,10.05471 0.804779,0.59022 2.358997,0.26966 2.866322,0.19789 -2.43606,3.57801 0.118116,8.30096 3.244452,10.53759 1.813126,1.55953 4.504609,2.38366 6.542375,0.7491 3.964926,-1.73604 8.467311,-2.59155 12.10579,-5.1219 0.387748,2.16251 3.022891,4.39765 4.985744,2.4259 7.128445,-4.78644 13.61871,-10.71675 17.94757,-18.21105 1.307528,-2.32747 3.698929,-4.75613 3.19319,-7.58582 -1.128147,-2.53179 -4.759557,-2.33639 -6.734748,-0.96077 1.026219,-3.29346 4.374283,-6.52827 2.741743,-10.16717 -1.6856,-2.01819 -4.689094,-1.7925 -6.907279,-1.26724 1.554235,-2.45393 1.254845,-7.19643 -2.485429,-7.21982 z m 0.04355,1.69774 0,5.7e-4 0,0.001 5.65e-4,0 c 0.06505,0 0.128417,0.003 0.189066,0.009 0.02055,0.002 0.03949,0.006 0.05953,0.009 0.04227,0.006 0.08451,0.0114 0.124576,0.0204 8.47e-4,2.3e-4 0.002,3.1e-4 0.0028,5.7e-4 0.05551,0.0126 0.109025,0.0282 0.160404,0.0463 0.0232,0.008 0.0449,0.0191 0.06725,0.0281 0.02802,0.0116 0.05649,0.0226 0.08324,0.0358 0.02554,0.0126 0.04893,0.0278 0.07331,0.0419 0.02193,0.0127 0.04457,0.0236 0.06559,0.0375 0.02546,0.0167 0.04918,0.0356 0.07331,0.054 0.0173,0.0132 0.03521,0.0257 0.05181,0.0397 0.02475,0.0208 0.04785,0.0435 0.07111,0.0661 0.0147,0.0143 0.02999,0.028 0.0441,0.043 0.02698,0.0286 0.05233,0.059 0.07717,0.0898 0.0067,0.008 0.01388,0.0158 0.0204,0.0248 0.02616,0.034 0.05067,0.0699 0.07441,0.10639 0.0063,0.01 0.0131,0.0192 0.0193,0.0292 0.02246,0.0362 0.04316,0.074 0.06339,0.11245 0.0047,0.009 0.0093,0.0174 0.01377,0.0265 0.03382,0.0667 0.06021,0.13972 0.08764,0.21222 0.01518,0.0402 0.03248,0.0784 0.04575,0.12016 0.02342,0.0736 0.04131,0.15131 0.05898,0.22931 0.0093,0.0413 0.02032,0.0811 0.02811,0.12347 0.01482,0.0805 0.02486,0.1637 0.03417,0.2475 0.0036,0.0328 0.01044,0.0637 0.01324,0.097 2.82e-4,0.007 -5.64e-4,0.0116 -5.64e-4,0.0187 0.08752,1.08847 -0.254923,2.39273 -0.81249,3.16618 -1.216098,1.08307 -1.671289,3.46363 0.750203,2.48433 2.063683,-0.45095 4.736841,-1.42118 6.429926,0.2971 0.654668,2.2924 -1.182271,4.3071 -1.963979,6.3456 -1.046539,1.37499 -2.567186,6.48023 0.788238,4.73769 1.425798,-1.62856 6.61932,-2.00724 4.545873,1.27496 -2.985601,5.42879 -6.562435,10.60891 -10.937216,15.00574 -3.150359,2.72053 -6.477968,5.22809 -9.877225,7.62771 -2.325116,-0.14382 -0.781504,-4.63613 -4.004581,-3.04877 -4.046573,2.82297 -9.163017,3.35914 -13.371933,5.83021 -0.463101,0.16261 -0.994381,0.17435 -1.440324,-0.0513 -2.717244,-1.35771 -5.768952,-3.90266 -6.174715,-7.3477 -0.198868,-1.68843 1.676798,-3.19208 1.676798,-3.19208 0,0 2.741414,0.50444 4.960386,1.37748 2.138822,-0.5614 1.893271,-5.0951 4.157267,-1.68121 2.486321,-0.6057 2.519923,-4.16429 2.482122,-6.27338 -1.893359,-0.32821 -4.311363,5.44133 -5.235993,1.26559 -2.422723,-1.5158 -1.883487,2.95295 -3.654008,3.63527 -1.046494,-1.34765 -2.248264,-3.64499 -3.944496,-0.94423 -2.92772,4.37486 -9.628833,-4.64392 -6.70774,-11.50221 0.0066,-0.0164 0.01425,-0.0327 0.02094,-0.0491 0.02402,-0.0554 0.04802,-0.11082 0.07331,-0.16592 0.139446,-0.31489 0.304239,-0.62889 0.503812,-0.94092 0.375037,-0.64027 0.790694,-1.23785 1.23748,-1.80247 4.100627,-5.39117 9.133781,-6.70867 14.297974,-9.23947 4.867016,-2.44525 9.877874,-4.60894 15.078494,-6.23866 2.774287,-1.08451 5.667748,-1.88801 8.611636,-2.27101 0.341314,-0.11667 0.643066,-0.16973 0.907852,-0.16977 z m -17.735903,13.89173 c -0.09179,-0.008 -0.185229,0.0208 -0.276161,0.10253 -0.329886,0.0562 -0.500967,0.23047 -0.759572,0.34396 -0.558134,0.39734 -0.930247,0.99655 -1.292601,1.566 -0.224635,0.40466 -0.473154,0.91706 -0.248598,1.36922 0.197107,0.34604 0.637176,0.35374 0.972343,0.23812 0.344226,-0.0902 0.670001,-0.23538 0.997701,-0.37152 0.639134,-0.30938 1.30885,-0.68061 1.683961,-1.30693 0.169014,-0.48823 -0.203268,-0.93584 -0.415615,-1.34441 -0.126523,-0.22264 -0.386094,-0.57347 -0.661458,-0.59697 z"
         style="opacity:1;fill:#e9e9f1;fill-opacity:1;stroke-width:3.16461182"
         inkscape:connector-curvature="0" />
      <path
         id="path172276-1-1"
         d="m 70.67346,206.44287 c -1.646062,-0.0302 -3.625294,1.33 -4.451248,2.68037 0.404664,1.02241 0.503641,2.23695 0.352778,3.23306 -0.239526,1.08271 -0.581782,2.1916 -0.957644,3.23049 3.57693,-0.32727 8.42247,-7.182 6.210726,-8.87163 -0.249498,-0.21041 -0.58782,-0.27925 -0.906932,-0.25686 -0.08162,-0.009 -0.164143,-0.0139 -0.24768,-0.0155 z"
         style="fill:#ffffff;fill-opacity:1;fill-rule:evenodd;stroke:none;stroke-width:0.83730352px;stroke-linecap:butt;stroke-linejoin:miter;stroke-opacity:1"
         inkscape:connector-curvature="0" />
      <g
         id="text3359-3-6-9-0"
         style="font-style:normal;font-weight:normal;font-size:14.58483315px;line-height:125%;font-family:sans-serif;letter-spacing:0px;word-spacing:0px;fill:#ffffff;fill-opacity:1;stroke:none;stroke-width:1px;stroke-linecap:butt;stroke-linejoin:miter;stroke-opacity:1">
        <path
           id="path3438"
           style="font-style:normal;font-variant:normal;font-weight:bold;font-stretch:normal;font-family:Montserrat;-inkscape-font-specification:'Montserrat Bold';fill:#ffffff;fill-opacity:1"
           d="m 42.333283,235.65816 2.669025,0 0,10.22397 -2.669025,0 0,-10.22397 z" />
        <path
           id="path3440"
           style="font-style:normal;font-variant:normal;font-weight:bold;font-stretch:normal;font-family:Montserrat;-inkscape-font-specification:'Montserrat Bold';fill:#ffffff;fill-opacity:1"
           d="m 46.976502,235.65816 2.902382,0 2.960721,5.97978 2.946136,-5.97978 2.902382,0 0,10.22397 -2.362743,0 -0.01459,-6.47567 -2.610685,5.45473 -1.72101,0 -2.62527,-5.45473 0,6.47567 -2.377328,0 0,-10.22397 z" />
        <path
           id="path3442"
           style="font-style:normal;font-variant:normal;font-weight:bold;font-stretch:normal;font-family:Montserrat;-inkscape-font-specification:'Montserrat Bold';fill:#ffffff;fill-opacity:1"
           d="m 65.170398,235.65816 q 1.954367,0 3.033645,0.94801 1.079278,0.93343 1.079278,2.63986 0,1.80852 -1.079278,2.81487 -1.079278,0.99177 -3.033645,0.99177 l -1.823104,0 0,2.82946 -2.669025,0 0,-10.22397 4.492129,0 z m -0.131264,5.26512 q 0.816751,0 1.254296,-0.40837 0.45213,-0.40838 0.45213,-1.18137 0,-0.74383 -0.45213,-1.13762 -0.437545,-0.40838 -1.254296,-0.40838 l -1.69184,0 0,3.13574 1.69184,0 z" />
        <path
           id="path3444"
           style="font-style:normal;font-variant:normal;font-weight:bold;font-stretch:normal;font-family:Montserrat;-inkscape-font-specification:'Montserrat Bold';fill:#ffffff;fill-opacity:1"
           d="m 77.333465,245.88213 -0.700072,-1.80852 -4.419204,0 -0.714657,1.80852 -2.741949,0 4.390035,-10.22397 2.741949,0 4.28794,10.22397 -2.844042,0 z m -4.317111,-3.8504 2.829458,0 -1.400144,-3.64621 -1.429314,3.64621 z" />
        <path
           id="path3446"
           style="font-style:normal;font-variant:normal;font-weight:bold;font-stretch:normal;font-family:Montserrat;-inkscape-font-specification:'Montserrat Bold';fill:#ffffff;fill-opacity:1"
           d="m 88.212382,239.12935 q -0.495884,-0.62715 -1.181371,-0.99177 -0.685487,-0.37921 -1.35639,-0.37921 -0.772996,0 -1.414729,0.39379 -0.627147,0.37921 -0.991768,1.0647 -0.364621,0.6709 -0.364621,1.50223 0,0.83134 0.364621,1.51683 0.364621,0.6709 0.991768,1.06469 0.641733,0.37921 1.414729,0.37921 0.627148,0 1.312635,-0.32087 0.685487,-0.32087 1.225126,-0.87509 l 1.560577,1.67726 q -0.831335,0.87509 -1.983537,1.40014 -1.137617,0.51047 -2.260649,0.51047 -1.516823,0 -2.741949,-0.70007 -1.225126,-0.70008 -1.925198,-1.91062 -0.700072,-1.21054 -0.700072,-2.71278 0,-1.48765 0.714657,-2.6836 0.714657,-1.19596 1.954368,-1.88145 1.254295,-0.68549 2.800288,-0.68549 1.137617,0 2.246064,0.4813 1.108447,0.46672 1.881444,1.28347 l -1.545993,1.86686 z" />
        <path
           id="path3448"
           style="font-style:normal;font-variant:normal;font-weight:bold;font-stretch:normal;font-family:Montserrat;-inkscape-font-specification:'Montserrat Bold';fill:#ffffff;fill-opacity:1"
           d="m 90.012242,235.65816 8.765485,0 0,2.20231 -3.062815,0 0,8.02166 -2.669024,0 0,-8.02166 -3.033646,0 0,-2.20231 z" />
      </g>
      <g
         id="text3425-9-7-3"
         style="font-style:normal;font-weight:normal;font-size:31.02488708px;line-height:100%;font-family:sans-serif;letter-spacing:0px;word-spacing:0px;fill:#ffffff;fill-opacity:1;stroke:none;stroke-width:1px;stroke-linecap:butt;stroke-linejoin:miter;stroke-opacity:1">
        <path
           id="path3429"
           style="font-style:normal;font-variant:normal;font-weight:500;font-stretch:normal;line-height:100%;font-family:OneDirection;-inkscape-font-specification:'OneDirection Medium';letter-spacing:0.77562213px;fill:#ffffff;fill-opacity:1"
           d="m 46.816376,252.07816 q 0.682548,-0.1241 0.899722,-0.15513 0.217174,-0.031 0.310249,0 0.09307,0.031 0.124099,0.1241 0.06205,0.062 0.496399,0.15513 0.434348,0.0931 1.20997,0.15512 1.582269,0.0931 2.202767,0.4964 0.589473,0.34127 1.33407,1.39612 0.744598,1.05485 0.868697,1.70637 0.18615,0.80665 -0.155124,1.70637 -0.341274,0.89972 -1.054846,1.55124 l -0.868697,0.80665 0.527423,0.34127 q 1.644319,1.1169 1.706369,2.32687 0.06205,1.73739 -0.341274,2.60609 -0.372299,0.83767 -1.985593,2.38892 -1.303045,1.30304 -2.047642,1.76841 -0.744598,0.43435 -2.450967,0.93075 -1.14792,0.34127 -2.947364,0.6205 -1.768418,0.27922 -1.923543,0.1241 -0.06205,-0.062 0.217174,-0.34128 0.279224,-0.27922 0.651523,-0.52742 0.403324,-0.27922 0.558448,-0.27922 0.217174,0 0.465373,-0.15513 0.279224,-0.15512 0.434349,-0.31025 0.186149,-0.18615 0.124099,-0.27922 -0.09307,-0.0931 -1.303045,0.15512 -1.209971,0.21718 -1.427145,0.031 -0.217174,-0.2482 0,-2.32687 0.248199,-2.07866 0.775622,-4.59168 1.675344,-8.0975 2.140718,-9.24542 0.372298,-0.89972 0.992796,-1.08587 0.1241,-0.031 0.465373,-0.0931 z m 3.816061,3.75401 q -0.837672,-0.46537 -1.551244,0.031 -0.310249,0.2482 -0.403323,1.17895 -0.09307,0.89972 0.186149,0.9928 0.248199,0.0931 1.240995,-0.55845 1.58227,-1.05485 0.527423,-1.64432 z m -0.744597,8.28364 q 0.403324,-0.68254 -0.713572,-0.86869 -1.054846,-0.18615 -1.39612,0.1241 -0.248199,0.31024 -0.310249,1.33407 -0.06205,0.99279 0.155124,1.05484 0.18615,0.062 1.085871,-0.58947 0.899722,-0.65152 1.178946,-1.05485 z" />
        <path
           id="path3431"
           style="font-style:normal;font-variant:normal;font-weight:500;font-stretch:normal;line-height:100%;font-family:OneDirection;-inkscape-font-specification:'OneDirection Medium';letter-spacing:0.77562213px;fill:#ffffff;fill-opacity:1"
           d="m 56.099119,251.92303 q 0.248199,-0.31025 1.209971,-0.15512 0.961771,0.15512 1.768418,0.65152 0.589473,0.31025 0.837672,0.68255 0.248199,0.34127 0.589473,1.30304 0.651523,1.76842 0.837672,2.14072 0.186149,0.34127 0.372299,0.27922 0.155124,-0.062 1.33407,-1.92354 1.178946,-1.89252 1.45817,-2.04764 0.155124,-0.0931 0.837672,-0.1241 0.682547,-0.031 1.489194,0.1241 0.837672,0.15512 1.147921,0.4964 0.310249,0.40332 0.310249,0.86869 0,0.43435 -0.217174,0.77563 -0.18615,0.34127 -0.403324,0.74459 -0.186149,0.40333 -0.186149,0.65153 0,0.15512 -0.18615,0.49639 -0.155124,0.31025 -0.651522,1.241 -0.496398,0.93075 -1.023821,1.98559 l -1.272021,2.60609 q -0.403323,0.77563 -0.403323,0.9928 0,0.43435 -1.613294,3.78504 -0.744598,1.55124 -2.575066,3.10248 -1.830468,1.55125 -2.73019,1.42715 -0.279224,-0.031 -0.403324,-0.21717 -0.09307,-0.18615 -0.124099,-0.77563 -0.03102,-0.40332 0,-0.71357 0.03102,-0.34127 0.09307,-0.52742 0.06205,-0.18615 0.217175,-0.58948 0.155124,-0.43434 0.248199,-0.77562 0.403323,-1.36509 1.830468,-4.65373 0.248199,-0.58947 0.248199,-1.02382 0,-0.46537 -0.155124,-0.68255 -0.1241,-0.2482 -0.372299,-0.65152 -0.248199,-0.40333 -0.372299,-0.80665 -0.124099,-0.34127 -0.527423,-1.02382 -0.403323,-0.68255 -0.620497,-1.241 0,-0.031 -0.03102,-0.0931 -1.923543,-5.08808 -0.961772,-6.32908 z" />
        <path
           id="path3433"
           style="font-style:normal;font-variant:normal;font-weight:500;font-stretch:normal;line-height:100%;font-family:OneDirection;-inkscape-font-specification:'OneDirection Medium';letter-spacing:0.77562213px;fill:#ffffff;fill-opacity:1"
           d="m 75.949715,252.48148 q 2.016617,-0.34127 3.164538,-0.4964 1.178946,-0.18615 1.861493,-0.21717 0.682548,-0.031 0.899722,0.0931 0.248199,0.0931 0.279224,0.34128 0.1241,0.52742 0.589473,0.74459 0.496398,0.18615 1.768418,0.18615 1.39612,0 1.706369,0.2482 0.341274,0.21718 0.217174,1.14792 -0.09307,0.77563 -0.558448,1.17895 -0.465373,0.3723 -1.799443,0.89972 -1.365095,0.52742 -4.684758,1.14792 -1.365095,0.2482 -1.675344,0.65152 -0.310249,0.40333 -0.310249,1.9856 0,1.52022 -0.248199,5.30525 -0.248199,3.78504 -0.248199,4.09529 0,0.4964 -0.1241,0.6205 -0.124099,0.12409 -0.496398,0.24819 -0.341273,0.0931 -0.682547,0.43435 -0.279224,0.2482 -0.434349,0.27923 -0.124099,0.031 -0.217174,-0.031 -0.09307,-0.062 -0.403323,-0.27922 -0.310249,-0.21718 -0.713573,-0.40333 -0.496398,-0.18614 -0.713572,-0.71357 -0.217174,-0.52742 -0.217174,-1.55124 0,-1.02382 0.06205,-2.07867 0.06205,-1.08587 0.18615,-3.04044 0.124099,-1.95457 0.155124,-3.66094 0.03102,-1.55124 -0.03102,-1.89251 -0.06205,-0.3723 -0.403323,-0.65153 -0.341274,-0.27922 -0.961772,-0.40332 -0.589473,-0.15512 -1.054846,-0.21717 -0.434348,-0.0931 -0.806647,-0.46538 -0.341274,-0.3723 -0.341274,-1.08587 0,-0.80665 0.403324,-1.11689 0.434348,-0.34128 1.799443,-0.58948 l 4.033236,-0.71357 z" />
        <path
           id="path3435"
           style="font-style:normal;font-variant:normal;font-weight:500;font-stretch:normal;line-height:100%;font-family:OneDirection;-inkscape-font-specification:'OneDirection Medium';letter-spacing:0.77562213px;fill:#ffffff;fill-opacity:1"
           d="m 95.698509,252.26431 q 0.217174,-0.21718 1.39612,-0.15513 1.20997,0.031 1.39612,0.2482 0.155124,0.18615 0.217174,0.83767 0.09307,0.65153 0.06205,1.33407 -0.03102,0.21718 -0.186149,0.3723 -0.124099,0.15513 -0.279224,0.2482 -0.155124,0.062 -0.527423,0.21718 -0.372299,0.12409 -0.620498,0.24819 -0.620497,0.31025 -3.040439,0.77563 -0.496398,0.0931 -0.775622,0.3723 -0.279224,0.27922 -0.124099,0.55844 0.155124,0.2482 1.458169,0.1241 1.147921,-0.1241 1.45817,0.0931 0.310249,0.21717 0.310249,1.11689 0,0.55845 -0.1241,0.83768 -0.124099,0.24819 -0.527423,0.58947 -0.651522,0.52742 -0.992796,0.52742 -0.341274,0 -1.023821,0.43435 l -0.682548,0.40332 0.06205,1.6133 q 0.03102,1.36509 0.279224,1.64432 0.279224,0.2482 0.961771,-0.43435 0.496399,-0.4964 1.551245,-1.20997 1.054846,-0.71358 1.489194,-0.8687 0.310249,-0.0931 0.372299,0 0.09307,0.062 0.09307,0.3723 0,0.52742 0.310249,0.77562 0.217174,0.15513 0.248199,0.58947 0.06205,0.43435 0.03102,1.55125 l -0.06205,1.86149 -1.023822,0.93075 q -1.20997,1.08587 -2.078667,1.45817 -0.837672,0.34127 -2.171742,0.31025 -0.930747,-0.031 -1.489195,-0.1241 -0.527423,-0.1241 -1.20997,-0.46538 -1.147921,-0.58947 -1.489195,-1.11689 -0.403323,-0.58947 -0.744597,-1.70637 -0.310249,-1.1169 -0.341274,-1.98559 -0.03102,-0.83768 0.372299,-3.62992 0.403323,-2.79224 0.775622,-4.3745 0.279224,-1.241 0.527423,-1.79945 0.279224,-0.55845 1.023821,-1.45817 0.589473,-0.68255 0.992797,-0.80664 0.403323,-0.15513 0.961771,0.15512 0.341274,0.18615 1.582269,0 1.272021,-0.18615 1.58227,-0.46537 z" />
      </g>
    </g>
  </g>
</svg>
